<?xml version="1.0" encoding="utf-8"?>
<!-- Generator: Adobe Illustrator 27.1.1, SVG Export Plug-In . SVG Version: 6.00 Build 0)  -->
<svg version="1.1" id="图层_1" xmlns="http://www.w3.org/2000/svg" xmlns:xlink="http://www.w3.org/1999/xlink" x="0px" y="0px"
	 viewBox="0 0 192 192" enable-background="new 0 0 192 192" xml:space="preserve">
<path id="path" d="M67.217,27.897c-9.869,0-18.093,8.018-18.093,17.887c0,10.075,8.224,18.093,18.093,18.093
	c3.289,0,6.373-0.822,9.046-2.467c18.915-10.897,20.56-11.307,39.681,0.206c2.672,1.439,5.756,2.467,9.046,2.467
	c9.869,0,17.888-8.018,17.888-18.093c0-9.868-7.813-18.093-17.888-18.093c-3.29,0-6.374,1.028-9.046,2.467
	c-19.532,11.102-20.149,11.102-39.681,0C73.59,28.719,70.506,27.897,67.217,27.897L67.217,27.897z M153.773,114.042
	c9.868,0,17.887-8.018,17.887-18.093c0-9.869-8.018-17.888-17.887-17.888c-3.29,0-6.374,0.822-9.047,2.261
	c-19.121,10.897-26.522,9.252-42.353,2.673l-2.467-0.822c-1.233-0.411-2.467-0.617-3.906-0.617c-1.028,0-2.261,0.206-3.701,0.411
	l-2.467,1.028c-16.859,6.579-23.027,8.429-42.559-2.878c-2.673-1.439-5.757-2.261-8.841-2.261c-10.074,0-18.093,8.018-18.093,17.887
	c0,10.074,8.018,18.093,17.887,18.093c3.29,0,6.374-0.822,9.047-2.467c18.093-10.486,27.756-9.663,31.456-6.374
	c1.439,0.822,0.206,2.056-2.878,5.963c-4.729,5.551-14.598,13.569-23.439,21.793c-3.701,3.495-5.551,7.813-5.551,12.953
	c0,10.074,8.018,18.093,17.888,18.093c2.261,0,4.523-0.412,6.784-1.028c17.27-4.729,31.251-12.953,40.297-17.27
	c2.467-1.439,1.028,0.617,3.495,6.579c1.645,4.524,6.991,11.308,14.804,11.925c11.925,1.234,18.503-9.046,15.831-18.709
	c-3.29-11.719-15.214-20.148-27.756-15.214c-13.364,5.551-25.289,8.224-38.447,8.224c-2.467-0.206-2.262-1.028-1.645-2.467
	c1.645-5.962,11.719-23.027,23.438-28.783c11.925-5.551,21.999-7.608,42.97,4.523C147.194,113.014,150.278,114.042,153.773,114.042z
	"/>
<g>
</g>
<g>
</g>
<g>
</g>
<g>
</g>
<g>
</g>
<g>
</g>
<g>
</g>
<g>
</g>
<g>
</g>
<g>
</g>
<g>
</g>
</svg>
