<?xml version="1.0" encoding="utf-8"?>
<!-- Generator: Adobe Illustrator 27.1.1, SVG Export Plug-In . SVG Version: 6.00 Build 0)  -->
<svg version="1.1" id="图层_1" xmlns="http://www.w3.org/2000/svg" xmlns:xlink="http://www.w3.org/1999/xlink" x="0px" y="0px"
	 viewBox="0 0 192 192" enable-background="new 0 0 192 192" xml:space="preserve">
<path id="path" stroke="#000000" stroke-width="0.7844" d="M164.804,127.202c2.724-0.027,5.313-1.194,7.136-3.219
	c1.823-2.025,2.713-4.72,2.455-7.433c0.04-7.845-2.379-15.505-6.917-21.905c-5.281-7.839-13.369-13.352-22.597-15.402
	c-3.505-0.784-7.101-1.106-10.79-1.66c0.79-11.533-3.706-22.8-12.221-30.62c-8.363-8.126-20.077-11.819-31.588-9.96
	c-19.957,3.01-34.204,20.919-32.649,41.042c-20.244-0.722-37.61,14.309-39.797,34.447c-1.388,11.289,2.508,22.587,10.56,30.62
	c8.241,8.86,20.303,13.117,32.28,11.39c7.364-0.672,14.316-3.695,19.829-8.624c5.533-5.119,10.606-10.698,15.909-16.094
	c8.854-9.223,17.616-18.215,26.516-27.254c5.584-5.396,13.87-6.893,20.99-3.793c7.12,3.1,11.668,10.186,11.521,17.95
	c-0.216,2.65,0.663,5.274,2.431,7.26C159.642,125.934,162.146,127.11,164.804,127.202L164.804,127.202z M56.343,135.641
	c-7.838,0.206-15.016-4.366-18.141-11.556c-3.127-7.19-1.574-15.558,3.921-21.149c5.496-5.59,13.837-7.285,21.079-4.282
	c7.242,3.003,11.936,10.101,11.863,17.941C75.066,126.989,66.734,135.465,56.343,135.641L56.343,135.641z M95.77,94.138
	c-7.811,0.036-14.868-4.655-17.857-11.873c-2.989-7.216-1.315-15.524,4.235-21.02c5.55-5.497,13.874-7.09,21.061-4.032
	c7.187,3.058,11.811,10.161,11.698,17.971c-0.036,5.067-2.091,9.911-5.709,13.459c-3.618,3.549-8.5,5.509-13.567,5.448L95.77,94.138
	z M162.728,136.517c-2.541-0.153-5.031,0.751-6.882,2.498c-1.851,1.746-2.898,4.18-2.894,6.725c-0.052,5.305,4.194,9.654,9.499,9.73
	c5.12-0.088,9.303-4.111,9.592-9.223c0.062-2.527-0.886-4.975-2.635-6.801C167.661,137.619,165.256,136.565,162.728,136.517
	L162.728,136.517z"/>
<g>
</g>
<g>
</g>
<g>
</g>
<g>
</g>
<g>
</g>
<g>
</g>
<g>
</g>
<g>
</g>
<g>
</g>
<g>
</g>
<g>
</g>
</svg>
