<?xml version="1.0" encoding="utf-8"?>
<!-- Generator: Adobe Illustrator 27.1.1, SVG Export Plug-In . SVG Version: 6.00 Build 0)  -->
<svg version="1.1" id="图层_1" xmlns="http://www.w3.org/2000/svg" xmlns:xlink="http://www.w3.org/1999/xlink" x="0px" y="0px"
	 viewBox="0 0 192 192" enable-background="new 0 0 192 192" xml:space="preserve">
<path id="path" stroke="#000000" stroke-width="0.786" d="M174.243,92.559c-1.008-27.837-18.198-46.807-18.198-46.807
	c-26.584-31.194-60.677-28.285-60.677-28.285C58.959,16.303,36.57,44.015,36.57,44.015c-15.316,18.366-17.047,35.29-17.047,35.29
	c-6.792,28.424,7.364,52.921,7.364,52.921c10.545,19.246,21.669,28.151,39.725,36.591c18.06,8.471,45.516,7.306,62.563-1.295
	c17.044-8.613,27.446-18.089,36.98-36.017C175.685,113.56,174.243,92.559,174.243,92.559 M88,157.165
	c0,0-28.606-1.602-44.352-29.314c0,0-13.586-19.544-7.952-43.894c5.639-24.35,18.785-34.113,21.39-36.59
	c2.6-2.474,19.432-12.592,30.914-12.405v29.022H75.865c0,0-16.471,1.02-17.049,19.393v26.832c0,0,0.435,16.483,17.481,18.374H88
	V157.165 M78.171,111.524c0,0-2.885,0.729-3.317-2.62V83.236c0,0,0.432-2.768,2.597-2.768h35.683c0,0,3.04-0.593,3.325,2.768v24.933
	c0,0,0.726,3.938-2.166,3.355H78.171 M147.667,130.328c-11.561,17.787-33.522,25.96-43.775,26.836v-28.584h13.578
	c0,0,14.455-2.912,15.316-18.083V80.024c0,0-2.32-15.303-18.342-16.041h-10.552V34.969c0,0,18.058,1.452,32.647,15.02
	c14.591,13.558,18.345,27.118,19.939,34.413C158.064,91.694,159.221,112.539,147.667,130.328"/>
<g>
</g>
<g>
</g>
<g>
</g>
<g>
</g>
<g>
</g>
<g>
</g>
<g>
</g>
<g>
</g>
<g>
</g>
<g>
</g>
<g>
</g>
</svg>
