<?xml version="1.0" encoding="utf-8"?>
<!-- Generator: Adobe Illustrator 27.1.1, SVG Export Plug-In . SVG Version: 6.00 Build 0)  -->
<svg version="1.1" id="图层_1" xmlns="http://www.w3.org/2000/svg" xmlns:xlink="http://www.w3.org/1999/xlink" x="0px" y="0px"
	 viewBox="0 0 192 192" enable-background="new 0 0 192 192" xml:space="preserve">
<path d="M80.307,81.769l-30.945,5.925l2.65,11.614l30.633-5.925C82.645,93.383,80.307,81.769,80.307,81.769z M96.987,112.558
	c-7.561,16.213-14.342,3.975-14.342,3.975l-5.066,3.274c0,0,9.976,13.641,19.486,3.273c11.225,10.367,19.799-3.351,19.799-3.351
	l-4.599-2.962C112.265,116.689,104.237,128.303,96.987,112.558L96.987,112.558z M112.265,93.382l30.711,5.925l2.572-11.614
	l-30.867-5.925L112.265,93.382L112.265,93.382z M173.244,70.577c-0.489-21.634-19.358-25.783-19.358-25.783
	s-14.722-0.081-33.837-0.244l13.909-13.42c0,0,2.196-2.766-1.546-5.856c-3.742-3.091-3.986-1.708-5.287-0.894
	c-1.139,0.813-17.813,17.161-20.741,20.09c-7.564,0-15.454-0.082-23.099-0.082h2.684c0,0-19.927-19.683-21.229-20.578
	c-1.302-0.895-1.464-2.195-5.287,0.894c-3.741,3.091-1.546,5.856-1.546,5.856l14.234,13.827c-15.454,0-28.794,0.082-34.975,0.325
	c-20.009,5.775-18.463,25.865-18.463,25.865s0.244,43.109,0,64.907c2.196,21.798,18.951,25.295,18.951,25.295
	s6.669,0.163,11.632,0.163c0.487,1.383,0.894,8.215,8.54,8.215c7.564,0,8.54-8.215,8.54-8.215s55.716-0.244,60.352-0.244
	c0.244,2.358,1.383,8.621,9.029,8.541c7.564-0.163,8.133-9.028,8.133-9.028s2.603-0.244,10.33,0
	c18.057-3.335,19.114-24.482,19.114-24.482S173,92.213,173.244,70.577L173.244,70.577z M157.709,139.552
	c0,3.416-2.684,6.181-6.019,6.181H41.886c-3.335,0-6.019-2.765-6.019-6.181V66.755c0-3.416,2.684-6.182,6.019-6.182h109.804
	c3.335,0,6.019,2.765,6.019,6.182L157.709,139.552L157.709,139.552z"/>
<g>
</g>
<g>
</g>
<g>
</g>
<g>
</g>
<g>
</g>
<g>
</g>
<g>
</g>
<g>
</g>
<g>
</g>
<g>
</g>
<g>
</g>
</svg>
