<?xml version="1.0" encoding="utf-8"?>
<!-- Generator: Adobe Illustrator 27.1.1, SVG Export Plug-In . SVG Version: 6.00 Build 0)  -->
<svg version="1.1" id="图层_1" xmlns="http://www.w3.org/2000/svg" xmlns:xlink="http://www.w3.org/1999/xlink" x="0px" y="0px"
	 viewBox="0 0 192 192" enable-background="new 0 0 192 192" xml:space="preserve">
<g>
	<g>
		<path fill-rule="evenodd" clip-rule="evenodd" d="M153.792,85.03h32.206l3.181-5.414H143.04l-12.795,32.717h29.918l2.102-5.299
			h-17.083l3.283-8.294h17.087l2.063-5.414h-17.021L153.792,85.03L153.792,85.03z M129.13,93.325h-12.77l2.092-5.363
			c0.872-2.223,1.657-3.007,2.966-3.007c1.307,0,1.744,1.569,1.046,3.531h12.935l1.285-3.472c0.943-2.571,0.943-5.399-1.37-5.399
			h-22.842c-2.067,0-3.704,0.388-4.91,3.359l-4.048,10.337c-1.12,2.972-1.034,5.428,1.723,5.428h13.168l-2.159,5.701
			c-0.605,1.555-1.381,2.591-3.196,2.591c-1.555,0-1.467-1.555-0.776-3.108H99.403l-1.551,3.874c-0.948,2.455-0.172,4.65,2.067,4.65
			h22.665c2.067,0,3.876-1.422,4.909-4.006l3.876-9.69C132.231,96.297,131.8,93.325,129.13,93.325L129.13,93.325z"/>
		<path fill-rule="evenodd" clip-rule="evenodd" d="M99.823,79.616H80.416c-2.662,0-6.097,0-8.158,5.409l-8.587,21.897
			c-1.203,2.963-0.171,5.411,2.061,5.411h22.584c2.319,0,3.778-1.03,5.581-5.411l8.587-21.897
			C103.602,82.191,101.884,79.616,99.823,79.616L99.823,79.616z M88.92,88.033L82.476,104.4c-0.859,2.32-1.633,2.577-3.609,2.577
			c-1.975,0-2.491-1.029-1.89-2.577l6.529-16.367c0.945-2.449,2.062-2.963,3.693-2.963S89.779,85.843,88.92,88.033z M65.808,79.616
			H40.892l-10.732,27.302H6.445l-3.622,5.414h51.477c3.177,0,4.208-2.319,4.895-4.123l2.576-6.697
			c0.687-1.804,0.687-3.865-0.687-5.024c1.377,0,3.263-1.416,4.38-4.379l2.576-6.57C69.329,82.321,67.782,79.616,65.808,79.616
			L65.808,79.616z M53.035,101.72l-1.295,3.11c-0.346,1.035-0.951,2.203-2.42,2.203h-6.393l3.286-8.294h6.219
			C53.554,98.739,53.554,100.296,53.035,101.72L53.035,101.72z M58.448,88.012l-1.295,3.11c-0.346,1.037-0.951,2.203-2.419,2.203
			h-6.393l3.283-8.294h6.221C58.966,85.032,58.966,86.587,58.448,88.012L58.448,88.012z"/>
	</g>
</g>
<g>
	<path d="M176.944,43.137h-16.355v16.28h-5.678v-16.28h-16.279v-5.752h16.279v-16.28h5.678v16.28h16.355V43.137z"/>
</g>
<g>
</g>
<g>
</g>
<g>
</g>
<g>
</g>
<g>
</g>
<g>
</g>
<g>
</g>
<g>
</g>
<g>
</g>
<g>
</g>
<g>
</g>
<g>
</g>
</svg>
