<?xml version="1.0" encoding="utf-8"?>
<!-- Generator: Adobe Illustrator 27.1.1, SVG Export Plug-In . SVG Version: 6.00 Build 0)  -->
<svg version="1.1" id="图层_1" xmlns="http://www.w3.org/2000/svg" xmlns:xlink="http://www.w3.org/1999/xlink" x="0px" y="0px"
	 viewBox="0 0 192 192" enable-background="new 0 0 192 192" xml:space="preserve">
<path d="M47.49,15.15h97.02c8.893,0,16.17,7.276,16.17,16.17v129.36c0,8.893-7.277,16.17-16.17,16.17H47.49
	c-8.893,0-16.17-7.277-16.17-16.17V31.32C31.32,22.426,38.597,15.15,47.49,15.15z M47.49,23.235c-4.447,0-8.085,3.638-8.085,8.085
	v129.36c0,4.447,3.638,8.085,8.085,8.085h97.02c4.447,0,8.085-3.638,8.085-8.085V31.32c0-4.447-3.638-8.085-8.085-8.085H47.49z"/>
<path d="M55.575,31.32h80.85c4.447,0,8.085,3.638,8.085,8.085v21.021c0,4.447-3.638,8.085-8.085,8.085h-80.85
	c-4.447,0-8.085-3.638-8.085-8.085V39.405C47.49,34.958,51.128,31.32,55.575,31.32z M55.575,39.405v21.021h80.85V39.405
	C136.425,39.405,55.575,39.405,55.575,39.405z M53.15,74.979h17.787c1.779,0,3.234,1.455,3.234,3.234V96
	c0,1.779-1.455,3.234-3.234,3.234H53.15c-1.779,0-3.234-1.455-3.234-3.234V78.213C49.916,76.434,51.371,74.979,53.15,74.979z
	 M56.384,92.766h11.319V81.447H56.383C56.383,81.447,56.383,92.766,56.384,92.766z M53.15,105.702h17.787
	c1.779,0,3.234,1.455,3.234,3.234v17.787c0,1.779-1.455,3.234-3.234,3.234H53.15c-1.779,0-3.234-1.455-3.234-3.234v-17.787
	C49.916,107.157,51.371,105.702,53.15,105.702L53.15,105.702z M56.384,123.489h11.319V112.17H56.383
	C56.383,112.17,56.383,123.489,56.384,123.489z M87.107,74.979h17.787c1.779,0,3.234,1.455,3.234,3.234V96
	c0,1.779-1.455,3.234-3.234,3.234H87.107c-1.779,0-3.234-1.455-3.234-3.234V78.213C83.873,76.434,85.328,74.979,87.107,74.979z
	 M90.341,92.766h11.319V81.447H90.341V92.766z M87.107,105.702h17.787c1.779,0,3.234,1.455,3.234,3.234v17.787
	c0,1.779-1.455,3.234-3.234,3.234H87.107c-1.779,0-3.234-1.455-3.234-3.234v-17.787C83.873,107.157,85.328,105.702,87.107,105.702
	L87.107,105.702z M90.341,123.489h11.319V112.17H90.341V123.489z M121.063,74.979h17.787c1.779,0,3.234,1.455,3.234,3.234V96
	c0,1.779-1.455,3.234-3.234,3.234h-17.787c-1.779,0-3.234-1.455-3.234-3.234V78.213C117.829,76.434,119.285,74.979,121.063,74.979
	L121.063,74.979z M124.298,92.766h11.319V81.447h-11.319V92.766z"/>
<path d="M121.063,105.702h17.787c1.779,0,3.234,1.455,3.234,3.234v48.51c0,1.779-1.455,3.234-3.234,3.234h-17.787
	c-1.779,0-3.234-1.455-3.234-3.234v-48.51C117.829,107.157,119.285,105.702,121.063,105.702L121.063,105.702z M124.298,112.17
	v42.042h11.319V112.17H124.298z"/>
<path d="M53.15,136.425h17.787c1.779,0,3.234,1.455,3.234,3.234v17.787c0,1.779-1.455,3.234-3.234,3.234H53.15
	c-1.779,0-3.234-1.455-3.234-3.234v-17.787C49.916,137.88,51.371,136.425,53.15,136.425L53.15,136.425z M56.384,154.212h11.319
	v-11.319H56.383C56.383,142.893,56.383,154.212,56.384,154.212z M87.107,136.425h17.787c1.779,0,3.234,1.455,3.234,3.234v17.787
	c0,1.779-1.455,3.234-3.234,3.234H87.107c-1.779,0-3.234-1.455-3.234-3.234v-17.787C83.873,137.88,85.328,136.425,87.107,136.425
	L87.107,136.425z M90.341,142.893v11.319h11.319v-11.319H90.341z"/>
<g>
	<path d="M66.662,53.07h2.83v2.672h-9.229V53.07h2.962v-5.704c-1.125,0.498-2.004,0.791-2.637,0.879v-2.698
		c1.705-0.369,2.862-1.031,3.472-1.986h2.602V53.07z"/>
	<path d="M77.077,53.07h2.83v2.672h-9.229V53.07h2.962v-5.704c-1.125,0.498-2.004,0.791-2.637,0.879v-2.698
		c1.705-0.369,2.862-1.031,3.472-1.986h2.602V53.07z"/>
	<path d="M90.621,53.105h-1.688v2.637h-3.305v-2.637h-4.904v-2.61l4.518-6.935h3.691v6.935h1.688V53.105z M85.629,50.495v-3.583
		l-2.271,3.583H85.629z"/>
	<path d="M100.474,48.57v2.224h-3.252v3.375H94.98v-3.375h-3.252V48.57h3.252v-3.375h2.241v3.375H100.474z"/>
	<path d="M110.607,46.707h-5.027l-0.141,1.696c0.65-0.451,1.371-0.677,2.162-0.677c1.043,0,1.954,0.357,2.733,1.072
		s1.169,1.67,1.169,2.865c0,1.26-0.454,2.285-1.362,3.076s-2.068,1.187-3.48,1.187c-1.23,0-2.296-0.324-3.194-0.971
		c-0.9-0.647-1.452-1.551-1.657-2.711l3.094-0.378c0.205,0.873,0.765,1.31,1.679,1.31c0.463,0,0.824-0.141,1.086-0.422
		c0.26-0.281,0.391-0.624,0.391-1.028c0-0.457-0.149-0.814-0.448-1.072s-0.653-0.387-1.063-0.387c-0.609,0-1.078,0.252-1.406,0.756
		l-2.751-0.387l0.527-6.891h8.007L110.607,46.707z"/>
	<path d="M119.133,53.07h2.83v2.672h-9.229V53.07h2.962v-5.704c-1.125,0.498-2.004,0.791-2.637,0.879v-2.698
		c1.705-0.369,2.862-1.031,3.472-1.986h2.602V53.07z"/>
	<path d="M132.677,53.105h-1.688v2.637h-3.305v-2.637h-4.904v-2.61l4.518-6.935h3.691v6.935h1.688V53.105z M127.685,50.495v-3.583
		l-2.271,3.583H127.685z"/>
</g>
<g>
</g>
<g>
</g>
<g>
</g>
<g>
</g>
<g>
</g>
<g>
</g>
<g>
</g>
<g>
</g>
<g>
</g>
<g>
</g>
<g>
</g>
</svg>
