<?xml version="1.0" encoding="utf-8"?>
<!-- Generator: Adobe Illustrator 27.1.1, SVG Export Plug-In . SVG Version: 6.00 Build 0)  -->
<svg version="1.1" id="图层_1" xmlns="http://www.w3.org/2000/svg" xmlns:xlink="http://www.w3.org/1999/xlink" x="0px" y="0px"
	 viewBox="0 0 192 192" enable-background="new 0 0 192 192" xml:space="preserve">
<path id="path" d="M149.296,24.563c-5.797,0-17.015,25.129-17.015,25.129s-7.18-3.07-20.192-3.07c-8.735,0-15.317,1.023-19.744,3.07
	c-8.424-17.506-15.012-26.056-19.762-25.649c-4.547,0.383-10.53,43.46-17.949,129.231c-4.679-0.565-9.257-1.773-13.605-3.59
	c-4.595-2.405-5.582-4.774-5.797-5.241c-5.008-11.523,5.188-16.369,9.98-21.772c1.315-1.465,1.43-3.65,0.276-5.245
	c-1.154-1.595-3.265-2.169-5.067-1.378c-13.905,5.887-20.091,14.814-18.559,26.78c1.604,12.229,12.217,19.75,31.841,22.562
	l1.113,0.108l1.238,0.161c32.308,3.159,70.413,3.081,114.316-0.233C170.386,113.177,155.076,24.563,149.296,24.563z M87.875,85.877
	c-2.974,0-5.385-2.411-5.385-5.385c0-2.974,2.411-5.385,5.385-5.385c2.974,0,5.385,2.411,5.385,5.385
	C93.26,83.466,90.849,85.877,87.875,85.877L87.875,85.877z M118.388,97.058c-3.769,1.383-5.833,0.341-6.946-1.113
	c-0.877,1.172-2.271,1.842-3.734,1.795c-1.107-0.02-2.201-0.239-3.231-0.646c-0.342-0.133-0.517-0.515-0.394-0.861
	c0.056-0.171,0.181-0.31,0.345-0.385c0.163-0.076,0.35-0.078,0.517-0.009c3.948,1.454,5.259-0.126,5.887-1.437l0.61-1.256
	l0.593,1.256c0.628,1.311,1.938,2.89,5.887,1.437c0.347-0.129,0.733,0.048,0.861,0.394c0.129,0.347-0.048,0.733-0.395,0.861V97.058z
	 M139.568,85.877c-2.974,0-5.385-2.411-5.385-5.385c0-2.974,2.411-5.385,5.385-5.385c2.974,0,5.385,2.411,5.385,5.385
	c0,1.444-0.58,2.827-1.609,3.84c-1.029,1.013-2.422,1.569-3.866,1.545H139.568z"/>
<g>
</g>
<g>
</g>
<g>
</g>
<g>
</g>
<g>
</g>
<g>
</g>
<g>
</g>
<g>
</g>
<g>
</g>
<g>
</g>
<g>
</g>
</svg>
