<?xml version="1.0" encoding="utf-8"?>
<!-- Generator: Adobe Illustrator 27.1.1, SVG Export Plug-In . SVG Version: 6.00 Build 0)  -->
<svg version="1.1" id="图层_1" xmlns="http://www.w3.org/2000/svg" xmlns:xlink="http://www.w3.org/1999/xlink" x="0px" y="0px"
	 viewBox="0 0 192 192" enable-background="new 0 0 192 192" xml:space="preserve">
<g>
	<g id="CSDN_00000145779006472948921610000007073023614523393983_">
		<path d="M93.637,73.066c0.293-2.159,0.533-4.266,0.88-6.372c0.133-0.853-0.027-1.253-0.906-1.36
			c-3.066-0.32-6.132-0.8-9.198-0.986c-5.519-0.32-11.011-0.187-16.316,1.653c-2.773,0.96-5.305,2.319-7.198,4.665
			c-2.613,3.253-2.213,7.332,1.066,9.891c1.013,0.773,2.133,1.44,3.279,2.026c3.359,1.68,7.038,2.399,10.664,3.306
			c1.173,0.293,2.373,0.64,3.492,1.12c1.173,0.507,1.546,1.466,0.986,2.613c-0.293,0.613-0.773,1.253-1.333,1.573
			c-1.04,0.56-2.159,1.013-3.306,1.226c-3.333,0.64-6.665,0.373-9.998-0.107c-2.666-0.4-5.305-0.986-7.998-1.493
			c-0.24,1.946-0.453,3.999-0.8,5.999c-0.16,1.013,0.107,1.52,1.093,1.653c0.187,0.027,0.373,0.107,0.56,0.16
			c7.438,2,14.93,2.106,22.448,0.48c3.332-0.72,6.452-1.973,8.958-4.426c1.84-1.786,2.853-3.946,2.693-6.558
			c-0.16-2.879-1.92-4.666-4.239-6.052c-2.826-1.706-5.972-2.533-9.118-3.359c-2.266-0.613-4.559-1.146-6.745-1.946
			c-1.546-0.56-1.733-2.079-0.56-3.253c0.427-0.427,0.96-0.853,1.52-0.986c1.626-0.4,3.306-0.906,4.985-0.96
			C83.613,71.44,88.572,72.026,93.637,73.066z"/>
		<path d="M173.937,98.648c0.053-0.373,0.133-0.72,0.187-1.066c0.4-3.892,0.826-7.811,1.2-11.704
			c0.267-2.906,0.667-5.839,0.667-8.744c0-5.065-2.159-8.931-6.985-11.011c-2.826-1.226-5.812-1.653-8.824-1.786
			c-6.052-0.267-11.997,0.507-17.942,1.573c-0.533,0.107-0.667,0.32-0.693,0.8c-0.24,2.853-0.507,5.705-0.8,8.558
			c-0.613,5.892-1.226,11.757-1.84,17.649c-0.187,1.893-0.4,3.812-0.587,5.759c3.412,0,6.692,0,9.997,0
			c0.053-0.133,0.107-0.213,0.107-0.32c0.853-8.345,1.733-16.689,2.586-25.034c0.053-0.507,0.053-0.933,0.72-1.04
			c2.933-0.48,5.892-0.72,8.824-0.213c3.946,0.666,5.679,2.959,5.279,6.932c-0.507,4.825-1.066,9.651-1.573,14.476
			c-0.187,1.706-0.347,3.439-0.533,5.199C167.165,98.648,170.524,98.648,173.937,98.648z"/>
		<path d="M52.287,91.515c-2.266,0.267-4.372,0.613-6.505,0.773c-3.999,0.32-7.971,0.373-11.81-1.066
			c-3.066-1.146-5.092-3.226-5.545-6.558c-0.693-5.065,1.893-9.464,6.665-11.41c3.466-1.413,7.118-1.733,10.797-1.52
			c3.093,0.187,6.185,0.613,9.331,0.933c0.293-2.426,0.613-5.039,0.906-7.571c-0.133-0.107-0.187-0.16-0.24-0.187
			c-0.24-0.08-0.48-0.16-0.746-0.187c-7.731-1.36-15.436-1.466-23.008,0.906c-5.039,1.573-9.544,4.079-12.717,8.451
			c-3.306,4.559-4.426,9.624-2.373,15.036c1.493,3.919,4.532,6.398,8.211,8.131c3.786,1.786,7.811,2.559,11.944,2.746
			c4.532,0.213,9.064,0.16,13.517-0.826c0.32-0.08,0.773-0.427,0.8-0.693C51.834,96.18,52.047,93.861,52.287,91.515z"/>
		<path d="M132.561,71.386c-2.506-3.066-5.972-4.479-9.678-5.412c-5.759-1.44-11.597-1.306-17.462-1.093
			c-1.6,0.053-3.199,0.213-4.852,0.347c-1.146,11.224-2.293,22.341-3.466,33.565c0.32,0.053,0.533,0.107,0.746,0.133
			c5.439,0.667,10.904,0.88,16.369,0.48c2.959-0.213,5.972-0.667,8.798-1.546c6.505-2.053,11.064-6.212,12.37-13.197
			C136.32,79.891,135.786,75.332,132.561,71.386z M119.737,90.688c-3.919,1.866-8.025,2.079-12.397,1.546
			c0.667-6.798,1.333-13.49,2-20.235c0.453-0.053,0.906-0.133,1.333-0.133c3.572-0.107,7.145-0.133,10.504,1.386
			c2.319,1.066,3.786,2.826,4.346,5.305C126.749,83.757,124.536,88.395,119.737,90.688z"/>
	</g>
	<g>
		<path d="M72.394,129.777c0.136-1.519,0.23-2.761,0.28-3.728s0.115-2.617,0.194-4.952s0.119-3.938,0.119-4.812
			c0-0.265-0.004-0.655-0.011-1.171c0.902,0.015,1.65,0.021,2.245,0.021c0.602,0,1.342-0.011,2.223-0.032s1.607-0.032,2.181-0.032
			c0.802,0,1.405,0.034,1.81,0.103c0.404,0.067,0.764,0.17,1.079,0.306c0.315,0.136,0.58,0.303,0.795,0.499
			c0.215,0.197,0.399,0.43,0.553,0.699c0.154,0.268,0.269,0.559,0.344,0.869c0.075,0.312,0.113,0.629,0.113,0.951
			c0,0.401-0.048,0.782-0.145,1.145c-0.097,0.361-0.236,0.688-0.419,0.977c-0.183,0.291-0.396,0.537-0.639,0.742
			c-0.244,0.203-0.477,0.363-0.698,0.478c-0.222,0.114-0.52,0.236-0.892,0.365c0.336,0.071,0.605,0.142,0.806,0.21
			c0.2,0.067,0.415,0.172,0.645,0.311c0.229,0.141,0.446,0.319,0.65,0.537c0.204,0.219,0.367,0.45,0.489,0.693
			c0.122,0.243,0.216,0.514,0.285,0.811c0.068,0.298,0.102,0.607,0.102,0.93c0,0.688-0.149,1.317-0.446,1.891
			c-0.297,0.573-0.708,1.025-1.23,1.359c-0.523,0.332-1.108,0.555-1.756,0.666c-0.648,0.11-2.025,0.166-4.13,0.166l-2.6-0.011
			L72.394,129.777z M75.648,127.683h2.438c0.494,0,0.879-0.02,1.155-0.06c0.275-0.039,0.539-0.109,0.79-0.21
			c0.25-0.1,0.447-0.208,0.591-0.322c0.143-0.115,0.27-0.263,0.381-0.442c0.111-0.179,0.199-0.382,0.263-0.608
			c0.064-0.226,0.097-0.461,0.097-0.705c0-0.33-0.058-0.621-0.172-0.872c-0.115-0.251-0.285-0.469-0.511-0.651
			s-0.489-0.316-0.79-0.398c-0.301-0.083-0.759-0.124-1.375-0.124h-2.708L75.648,127.683z M75.911,121.194h1.725
			c0.735,0,1.23-0.018,1.483-0.054s0.52-0.105,0.798-0.209c0.279-0.104,0.514-0.266,0.707-0.484
			c0.193-0.218,0.334-0.458,0.423-0.719c0.089-0.262,0.134-0.528,0.134-0.801c0-0.265-0.048-0.516-0.145-0.752
			c-0.097-0.236-0.245-0.432-0.445-0.586c-0.2-0.153-0.441-0.265-0.724-0.332c-0.282-0.068-0.695-0.103-1.238-0.103h-2.573
			L75.911,121.194z"/>
		<path d="M87.695,129.777c0.107-1.21,0.237-3.386,0.39-6.525c0.153-3.141,0.248-5.854,0.283-8.138
			c0.746,0.015,1.276,0.021,1.592,0.021c0.423,0,0.938-0.007,1.548-0.021l-0.256,3.921l-0.375,8.744l-0.042,1.998
			c-0.588-0.015-1.086-0.021-1.495-0.021C89.204,129.756,88.656,129.763,87.695,129.777z"/>
		<path d="M100.516,118.595c0.823,0,1.613,0.124,2.368,0.37c0.756,0.248,1.396,0.613,1.924,1.096
			c0.525,0.484,0.922,1.074,1.187,1.773c0.265,0.697,0.397,1.434,0.397,2.207c0,0.816-0.14,1.604-0.419,2.363
			s-0.684,1.416-1.214,1.971c-0.53,0.556-1.19,0.971-1.982,1.246c-0.791,0.276-1.634,0.414-2.529,0.414
			c-0.831,0-1.62-0.123-2.369-0.371c-0.748-0.246-1.387-0.617-1.917-1.111s-0.933-1.096-1.208-1.805
			c-0.276-0.709-0.414-1.45-0.414-2.224c0-0.788,0.125-1.54,0.376-2.256s0.643-1.354,1.177-1.912c0.533-0.559,1.215-0.992,2.046-1.3
			S99.628,118.595,100.516,118.595z M100.515,120.808c-0.62,0-1.175,0.152-1.664,0.456c-0.488,0.305-0.853,0.758-1.092,1.359
			s-0.358,1.257-0.358,1.966c0,0.623,0.098,1.178,0.294,1.665s0.518,0.881,0.964,1.182c0.445,0.301,0.976,0.451,1.59,0.451
			c0.627,0,1.179-0.156,1.653-0.467c0.475-0.312,0.831-0.771,1.07-1.375c0.238-0.605,0.358-1.273,0.358-2.004
			c0-0.595-0.093-1.135-0.278-1.622s-0.498-0.877-0.937-1.171S101.143,120.808,100.515,120.808z"/>
		<path d="M110.124,132.044c1.611,0.53,3.008,0.795,4.189,0.795c0.451,0,0.877-0.056,1.278-0.166
			c0.401-0.111,0.737-0.271,1.01-0.482s0.483-0.497,0.634-0.857c0.15-0.361,0.251-0.779,0.301-1.254
			c0.05-0.476,0.09-1.195,0.118-2.16c-0.279,0.38-0.53,0.675-0.752,0.886c-0.222,0.212-0.489,0.401-0.8,0.57
			c-0.312,0.168-0.676,0.304-1.091,0.408c-0.415,0.104-0.853,0.155-1.311,0.155c-0.63,0-1.229-0.099-1.794-0.296
			c-0.565-0.196-1.068-0.506-1.51-0.929c-0.439-0.423-0.774-0.954-1.004-1.595c-0.229-0.642-0.344-1.31-0.344-2.004
			c0-0.995,0.188-1.938,0.564-2.825c0.375-0.888,0.927-1.618,1.654-2.191c0.727-0.573,1.504-0.967,2.33-1.182
			c0.828-0.215,1.746-0.322,2.756-0.322c0.559,0,1.192,0.034,1.901,0.103c0.709,0.067,1.647,0.205,2.814,0.413l-0.247,3.403
			l-0.227,4.262l-0.086,3.854c-0.021,0.437-0.075,0.856-0.161,1.262c-0.086,0.404-0.222,0.769-0.408,1.095
			c-0.186,0.325-0.422,0.613-0.709,0.864c-0.286,0.25-0.61,0.452-0.972,0.606c-0.361,0.153-0.81,0.28-1.343,0.381
			s-1.104,0.15-1.713,0.15c-0.652,0-1.394-0.043-2.224-0.129c-0.831-0.086-1.737-0.247-2.718-0.483L110.124,132.044z
			 M117.967,121.001c-0.623-0.129-1.199-0.193-1.729-0.193c-0.932,0-1.701,0.17-2.311,0.511c-0.608,0.341-1.078,0.838-1.407,1.49
			c-0.329,0.653-0.494,1.345-0.494,2.076c0,0.538,0.101,1.039,0.301,1.501c0.2,0.463,0.514,0.812,0.94,1.049
			c0.426,0.237,0.897,0.355,1.413,0.355c0.365,0,0.707-0.058,1.025-0.172c0.319-0.115,0.607-0.291,0.865-0.527
			s0.485-0.531,0.683-0.883c0.196-0.351,0.336-0.747,0.419-1.188c0.082-0.441,0.145-0.993,0.188-1.657
			C117.902,122.699,117.938,121.912,117.967,121.001z"/>
	</g>
</g>
<g>
</g>
<g>
</g>
<g>
</g>
<g>
</g>
<g>
</g>
<g>
</g>
<g>
</g>
<g>
</g>
<g>
</g>
<g>
</g>
<g>
</g>
</svg>
