<?xml version="1.0" encoding="utf-8"?>
<!-- Generator: Adobe Illustrator 27.1.1, SVG Export Plug-In . SVG Version: 6.00 Build 0)  -->
<svg version="1.1" id="图层_1" xmlns="http://www.w3.org/2000/svg" xmlns:xlink="http://www.w3.org/1999/xlink" x="0px" y="0px"
	 viewBox="0 0 192 192" enable-background="new 0 0 192 192" xml:space="preserve">
<path id="path" fill-rule="evenodd" clip-rule="evenodd" d="M97.056,36.582c21.834,0,43.668,0,65.502,0
	c10.24,0,10.24,0,10.242-10.071c0-6.481-0.816-7.308-7.298-7.309C120.536,19.199,75.569,19.2,30.604,19.2
	c-9.676,0-9.984,0.304-9.967,9.866c0.012,6.301,1.247,7.512,7.73,7.514C51.264,36.584,74.16,36.582,97.056,36.582L97.056,36.582z
	 M96.489,50.986l56.672,0.004c5.45,0.001,6.806,1.375,6.805,6.924c-0.005,18.938-0.015,37.874-0.044,56.811
	c-0.008,5.59-1.547,7.103-7.124,7.14c-8.498,0.059-8.454,0.071-10.818,8.236c-2.281,7.873-4.672,15.715-6.998,23.576
	c-0.253,0.859-0.398,1.75-0.721,3.2l0,0h4.16l0,0l19.126-0.004l0,0l9.564,0.012c4.518,0.011,5.601,1.123,5.626,5.625
	c0.009,1.529,0.005,3.058-0.003,4.587c-0.026,4.72-1.01,5.698-5.896,5.699c-47.227,0.008-94.454,0.009-141.681-0.001
	c-4.779-0.001-5.869-1.103-5.909-5.751c-0.012-1.456-0.042-2.708-0.047-3.784v-0.421c0.019-5.698,1.007-6.123,10.34-5.986
	c8.715,0.129,17.433,0.025,26.733,0.025c-1.51-5.342-2.903-10.233-4.274-15.129c-0.852-3.044-1.569-6.131-2.539-9.135
	c-0.893-2.765-0.127-4.027,2.853-3.992c4.839,0.057,9.681-0.017,14.522,0.032c2.583,0.025,4.391,1.115,5.369,3.707
	c2.647,7.019,5.557,13.94,8.144,20.98c0.932,2.535,2.077,3.727,5.025,3.616c6.721-0.25,13.459,0.004,20.185-0.159
	c1.144-0.028,2.964-0.856,3.287-1.743c3.931-10.771,7.642-21.622,11.399-32.456c0.028-0.083-0.083-0.211-0.304-0.732l0,0h-3.994
	c-25.148,0-50.296,0.005-75.444-0.003c-6.338-0.003-7.713-1.374-7.719-7.642c-0.022-18.703-0.043-37.404-0.049-56.106
	c-0.003-5.626,1.491-7.123,7.084-7.124c37.781-0.006,75.563-0.004,113.343,0L96.489,50.986z M130.54,68.218
	c-22.768,0.113-45.538,0.096-68.307,0.014c-2.692-0.01-3.733,0.679-3.688,3.554c0.153,9.753,0.154,19.511-0.034,29.264
	c-0.059,3.039,1.041,3.726,3.875,3.691c11.324-0.136,22.651-0.057,33.976-0.06c11.326,0,22.653-0.113,33.975,0.073
	c3.193,0.051,4.024-1.016,3.97-4.033c-0.172-9.517-0.168-19.04-0.06-28.559C134.278,69.403,133.636,68.202,130.54,68.218z"/>
<g>
</g>
<g>
</g>
<g>
</g>
<g>
</g>
<g>
</g>
<g>
</g>
<g>
</g>
<g>
</g>
<g>
</g>
<g>
</g>
<g>
</g>
</svg>
