<?xml version="1.0" encoding="utf-8"?>
<!-- Generator: Adobe Illustrator 27.1.1, SVG Export Plug-In . SVG Version: 6.00 Build 0)  -->
<svg version="1.1" id="图层_1" xmlns="http://www.w3.org/2000/svg" x="0px" y="0px"
	 viewBox="0 0 192 192" enable-background="new 0 0 192 192" xml:space="preserve">
<path id="path" fill-rule="evenodd" clip-rule="evenodd" d="M96.876,46.709c18.113,0,36.225,0,54.337,0c8.495,0,8.495,0,8.496-8.355
	c0-5.376-0.677-6.063-6.054-6.064C116.354,32.29,79.052,32.29,41.75,32.29c-8.027,0-8.282,0.252-8.268,8.184
	c0.01,5.227,1.034,6.232,6.412,6.233C58.889,46.711,77.883,46.709,96.876,46.709L96.876,46.709z M96.405,58.658l47.012,0.003
	c4.521,0.001,5.646,1.14,5.645,5.743c-0.004,15.71-0.013,31.418-0.037,47.128c-0.006,4.637-1.283,5.892-5.91,5.923
	c-7.049,0.049-7.013,0.059-8.974,6.832c-1.892,6.531-3.876,13.037-5.806,19.557c-0.21,0.713-0.33,1.452-0.598,2.654l0,0h3.451l0,0
	l15.866-0.003l0,0l7.934,0.01c3.748,0.009,4.646,0.932,4.667,4.666c0.007,1.269,0.004,2.536-0.002,3.805
	c-0.021,3.916-0.838,4.726-4.891,4.727c-39.177,0.006-78.355,0.007-117.532-0.001c-3.964-0.001-4.869-0.915-4.902-4.771
	c-0.01-1.208-0.035-2.247-0.039-3.139v-0.35c0.016-4.726,0.835-5.079,8.578-4.965c7.229,0.107,14.461,0.021,22.177,0.021
	c-1.253-4.432-2.408-8.489-3.545-12.55c-0.707-2.525-1.301-5.086-2.106-7.578c-0.741-2.294-0.105-3.341,2.367-3.311
	c4.015,0.047,8.031-0.014,12.047,0.026c2.143,0.021,3.643,0.925,4.454,3.075c2.196,5.822,4.61,11.564,6.756,17.404
	c0.773,2.103,1.723,3.091,4.168,3c5.575-0.207,11.165,0.003,16.744-0.132c0.949-0.023,2.458-0.71,2.727-1.446
	c3.261-8.935,6.339-17.937,9.456-26.924c0.023-0.068-0.068-0.175-0.252-0.607l0,0h-3.313c-20.862,0-41.723,0.004-62.585-0.002
	c-5.258-0.002-6.398-1.14-6.404-6.339c-0.018-15.515-0.036-31.029-0.041-46.543c-0.002-4.667,1.237-5.909,5.876-5.91
	c31.341-0.005,62.683-0.003,94.024,0L96.405,58.658z M124.653,72.953c-18.888,0.094-37.776,0.08-56.664,0.012
	c-2.233-0.008-3.097,0.563-3.06,2.948c0.127,8.09,0.127,16.185-0.028,24.276c-0.049,2.521,0.863,3.091,3.214,3.062
	c9.394-0.113,18.79-0.047,28.185-0.049c9.396,0,18.792-0.094,28.184,0.061c2.649,0.042,3.338-0.843,3.293-3.346
	c-0.143-7.895-0.139-15.794-0.05-23.691C127.754,73.937,127.221,72.94,124.653,72.953z"/>
<g>
</g>
<g>
</g>
<g>
</g>
<g>
</g>
<g>
</g>
<g>
</g>
<g>
</g>
<g>
</g>
<g>
</g>
<g>
</g>
<g>
</g>
</svg>
