<?xml version="1.0" encoding="utf-8"?>
<!-- Generator: Adobe Illustrator 27.1.1, SVG Export Plug-In . SVG Version: 6.00 Build 0)  -->
<svg version="1.1" id="图层_1" xmlns="http://www.w3.org/2000/svg" xmlns:xlink="http://www.w3.org/1999/xlink" x="0px" y="0px"
	 viewBox="0 0 192 192" enable-background="new 0 0 192 192" xml:space="preserve">
<g>
	<g>
		<path d="M93.189,18.225c2.082,0,4.165,0,6.247,0c1.207,0.253,2.403,0.644,3.621,0.737c15.826,1.201,29.982,6.854,42.072,16.966
			c20.749,17.354,30.519,39.653,28.556,66.828c-1.385,19.172-9.154,35.539-22.803,48.836
			c-19.069,18.577-42.121,25.421-68.362,21.314c-28.946-4.53-54.697-28.599-61.577-57.567c-1.287-5.419-1.832-11.013-2.719-16.527
			c0-1.666,0-3.332,0-4.998c0.22-1.111,0.451-2.22,0.66-3.334c1.107-5.889,1.5-12.022,3.431-17.626
			c9.716-28.194,29.147-45.925,58.351-52.607C84.779,19.305,89.012,18.886,93.189,18.225z M143.386,95.933
			c-0.085-24.646-19.698-45.614-44.221-47.196c-35.97-2.32-61.355,34.074-46.722,66.985c9.272,20.853,32.629,32.22,54.701,26.692
			c8.049-2.016,15.145-5.739,21.062-11.539c1.795-1.759,3.277-1.996,5.39-0.668c2.103,1.323,4.387,2.379,6.652,3.422
			c5.218,2.404,11.729,0.752,15.149-3.765c3.738-4.937,3.726-11.703-0.594-15.993c-2.299-2.282-5.257-4.091-8.22-5.46
			c-3.1-1.433-4.638-2.973-3.562-6.584C143.57,99.989,143.291,97.905,143.386,95.933z"/>
		<path d="M95.709,129.02c-19.445-0.49-33.079-14.904-32.523-34.601c0.466-16.501,15.133-31.543,34.189-30.684
			c17.589,0.793,31.375,15.739,30.835,34.073C127.702,115.058,112.717,129.449,95.709,129.02z M95.434,107.954
			c0,0.009,0,0.019-0.001,0.028c1.027,0,2.078,0.134,3.073-0.044c0.732-0.131,1.391-0.67,2.083-1.027
			c-0.347-0.57-0.669-1.157-1.045-1.706c-0.614-0.895-1.504-1.679-1.858-2.662c-2.537-7.037-4.891-14.141-7.512-21.146
			c-0.409-1.092-1.89-2.504-2.86-2.492c-1.403,0.017-2.892,1.058-4.143,1.946c-0.565,0.4-0.679,1.472-0.941,2.258
			c-2.136,6.41-4.212,12.839-6.429,19.221c-0.368,1.06-1.337,1.908-2.014,2.864c-0.326,0.461-0.976,1.105-0.85,1.385
			c0.255,0.569,0.917,1.311,1.446,1.34c2.04,0.11,4.098,0.03,6.142-0.101c2.036-0.13,2.025-1.542,0.892-2.462
			c-2.22-1.802-0.31-3.442,0.067-4.976c0.177-0.718,1.832-1.262,2.904-1.515c1.085-0.257,2.307-0.216,3.413-0.01
			c1.005,0.187,2.57,0.571,2.776,1.22c0.507,1.6,1.012,3.716,0.355,5.053c-1.046,2.131-0.403,2.612,1.436,2.806
			C93.38,108.042,94.412,107.954,95.434,107.954z M113.451,95.677c-2.205,0.235-4.487,0.253-6.656,0.758
			c-3.766,0.877-5.726,4.079-5.043,7.732c0.579,3.096,2.897,4.505,6.919,4.112c1.024-0.1,2.083-0.291,3.023-0.686
			c1.49-0.626,2.628-0.843,4.274,0.132c1.059,0.627,3.003-0.241,4.054-0.375c-0.532-2.945-1.071-4.965-1.223-7.013
			c-0.192-2.584,0.051-5.199-0.11-7.787c-0.209-3.348-1.999-5.431-5.118-5.652c-2.78-0.197-5.609-0.046-8.387,0.238
			c-0.925,0.095-2.214,0.913-2.497,1.701c-0.242,0.675,0.487,2.17,1.204,2.591c0.777,0.456,2.239,0.459,3.053,0.017
			C111.318,89.07,113.286,90.206,113.451,95.677z"/>
		<path d="M89.295,95.296c-2.294,0-4.197,0-6.52,0c0.977-3.276,1.896-6.36,2.816-9.443c0.208-0.002,0.416-0.004,0.624-0.006
			C87.209,88.897,88.203,91.948,89.295,95.296z"/>
		<path d="M111.579,98.437c0.714,0.915,1.97,1.793,2.033,2.751c0.152,2.304-1.298,3.584-3.659,3.683
			c-2.087,0.088-3.09-0.939-3.026-3.004C107.009,99.247,108.893,99.059,111.579,98.437z"/>
		<path fill="none" stroke="#000000" stroke-width="2" stroke-linecap="round" stroke-linejoin="round" stroke-miterlimit="10" d="
			M86.005,85.38c-0.104,1.145-0.208,2.291-0.312,3.436"/>
	</g>
</g>
<g>
</g>
<g>
</g>
<g>
</g>
<g>
</g>
<g>
</g>
<g>
</g>
<g>
</g>
<g>
</g>
<g>
</g>
<g>
</g>
<g>
</g>
</svg>
