<?xml version="1.0" encoding="utf-8"?>
<!-- Generator: Adobe Illustrator 27.1.1, SVG Export Plug-In . SVG Version: 6.00 Build 0)  -->
<svg version="1.1" id="图层_1" xmlns="http://www.w3.org/2000/svg" xmlns:xlink="http://www.w3.org/1999/xlink" x="0px" y="0px"
	 viewBox="0 0 192 192" enable-background="new 0 0 192 192" xml:space="preserve">
<path d="M140.928,47.887c2.041-0.533,4.327,0.579,5.18,2.498c0.929,1.843,0.259,4.037-0.823,5.652
	c-3.032,4.723-8.059,7.648-13.086,9.826c-5.804,2.377-12.34,4.266-18.586,2.453c-0.503-0.061-0.503-0.777,0.046-0.746
	c10.268-1.463,18.845-8.668,24.192-17.261C138.475,49.121,139.587,48.177,140.928,47.887L140.928,47.887z"/>
<path d="M156.406,49.395c1.325-2.483,5.469-1.98,6.17,0.746c1.874,6.688,1.584,13.772,0.472,20.566
	c-1.204,5.698-3.55,11.152-6.749,16.011c-3.656,5.241-8.44,9.674-13.848,13.071c-1.204,0.655-2.422,1.508-2.895,2.849
	c-0.518,1.371,0.061,2.895,0.945,3.976c2.529,2.834,5.804,4.89,9.278,6.383c7.099,3.001,14.96,3.93,22.623,3.565
	c1.249-0.137,2.118,1.508,1.28,2.438c-11.593,10.177-26.599,16.209-41.955,17.382c-19.028,1.386-38.771-4.601-53.183-17.261
	c-6.779-5.835-12.218-13.01-17.306-20.323c-2.331-3.321-4.784-6.749-8.394-8.79c-3.016-1.904-6.779-2.59-10.237-1.737
	c6.459,6.444,12.736,13.193,17.489,21.023c1.92,3.245,3.656,6.734,4.052,10.527c0.442,7.328-2.895,14.732-8.623,19.302
	c-5.423,4.464-12.98,6.17-19.805,4.479c-6.246-1.462-11.746-5.713-14.808-11.334c-2.133-3.87-3.199-8.303-2.864-12.675
	c0.503-4.129,2.529-7.876,4.677-11.38c4.479-6.977,10.07-13.178,15.935-19.012c0.229-0.213,0.335-0.503,0.457-0.762
	c-2.041-0.137-4.342-0.472-5.713-2.148c-0.305-0.335-0.716-1.066-0.091-1.295c2.255-0.518,4.479,0.488,6.383,1.6
	c-0.625-1.356-0.427-3.214,0.868-4.098c1.173-0.381,1.6,1.143,1.798,1.996c2.788-2.864,6.81-4.707,8.455-8.546
	c1.493-3.839,2.651-7.861,4.784-11.411c3.093-5.454,8.105-9.689,13.848-12.127c6.231-2.498,13.406-2.62,19.698-0.289
	c3.336,1.249,6.475,3.016,9.171,5.347c3.626,3.123,5.423,7.891,9.308,10.755c2.605,1.95,5.926,2.742,9.141,2.757
	c8.013,0.183,16.027-1.874,23.095-5.637C146.747,61.659,152.125,55.794,156.406,49.395 M63.187,70.023
	c-2.788,0.442-4.768,3.534-3.961,6.261c0.67,2.757,3.93,4.479,6.566,3.413c2.392-0.807,3.839-3.595,3.138-6.018
	C68.351,71.211,65.685,69.52,63.187,70.023z"/>
<g>
</g>
<g>
</g>
<g>
</g>
<g>
</g>
<g>
</g>
<g>
</g>
<g>
</g>
<g>
</g>
<g>
</g>
<g>
</g>
<g>
</g>
</svg>
