<?xml version="1.0" encoding="utf-8"?>
<!-- Generator: Adobe Illustrator 27.1.1, SVG Export Plug-In . SVG Version: 6.00 Build 0)  -->
<svg version="1.1" id="图层_1" xmlns="http://www.w3.org/2000/svg" xmlns:xlink="http://www.w3.org/1999/xlink" x="0px" y="0px"
	 viewBox="0 0 192 192" enable-background="new 0 0 192 192" xml:space="preserve">
<path d="M45.424,75.532c0.243,3.204,0.607,6.438,0.729,9.657c0.228,5.998-2.141,10.765-7.015,14.257
	c-3.75,2.688-7.865,4.646-12.359,5.709c-5.254,1.23-9.626-3.082-8.26-8.305c0.774-2.976,1.776-6.013,3.325-8.639
	c3.857-6.499,6.225-13.544,8.154-20.771c0.349-1.351,0.835-2.688,1.442-3.948c1.048-2.186,3.431-3.31,5.724-2.627
	c1.655,0.501,3.264,1.2,4.798,2.019c2.445,1.275,4.828,2.733,7.227,4.115c1.473-1.579,2.885-3.249,4.418-4.768
	c5.375-5.329,11.995-8.715,18.752-11.843c10.583-4.889,21.47-9.034,32.918-11.418c5.299-1.093,10.72-1.807,16.125-2.217
	c6.453-0.486,12.936-0.729,19.389-0.562c8.381,0.197,16.641,1.306,24.294,5.162c4.13,2.08,7.592,4.95,8.336,9.657
	c0.516,3.295,0.319,6.787-0.061,10.143c-0.623,5.694-2.946,10.932-5.208,16.11c-0.607,1.367-2.186,2.46-3.538,3.264
	c-3.462,2.019-7.318,3.067-11.236,3.811c-11.038,2.111-21.88,1.169-32.432-2.627c-6.271-2.247-11.327-6.347-15.928-11.038
	c-0.486-0.486-0.865-1.139-1.458-1.412c-0.623-0.304-1.609-0.547-2.05-0.243c-0.456,0.319-0.729,1.367-0.607,1.989
	c0.167,0.744,0.729,1.488,1.275,2.08c6.681,7.227,14.819,12.071,24.4,14.288c11.448,2.642,22.851,2.505,34.087-1.23
	c0.638-0.213,1.275-0.456,1.898-0.744c0.607-0.273,1.2-0.607,2.035-0.744c-1.245,1.807-2.414,3.644-3.705,5.405
	c-8.715,11.691-19.906,19.921-34.011,24.036c-9.004,2.627-18.008,2.247-26.966,0.076c-14.956-3.644-28.697-9.93-40.54-19.951
	c-3.69-3.113-7.167-6.483-9.596-10.72c-0.941-1.625-1.731-3.401-2.186-5.193C47.246,76.838,46.654,75.912,45.424,75.532
	L45.424,75.532z M154.321,39.805c-1.731,0.167-3.492,0.228-5.208,0.501c-2.657,0.425-5.193,1.291-7.303,3.037
	c-1.868,1.518-1.655,3.72,0.425,4.889c0.835,0.456,1.776,0.805,2.688,1.048c4.206,1.154,8.488,0.85,12.739,0.38
	c2.186-0.243,4.343-0.941,6.392-1.731c1.412-0.547,2.475-1.761,2.414-3.492c-0.076-1.655-1.412-2.247-2.627-2.824
	C160.85,40.215,157.616,39.82,154.321,39.805L154.321,39.805z M104.397,59.21c2.52,0,4.479-1.776,4.479-4.008
	c-0.015-2.217-2.08-4.054-4.51-4.039c-2.536,0.015-4.434,1.761-4.449,4.039C99.918,57.433,101.877,59.194,104.397,59.21z
	 M123.908,155.762c-1.169,0-2.293,0.076-3.386-0.03c-0.304-0.03-0.714-0.547-0.805-0.926c-0.82-3.189-1.503-6.438-2.399-9.611
	c-0.334-1.245-0.972-2.445-1.701-3.523c-1.093-1.655-2.946-1.868-4.175-0.319c-1.2,1.488-2.262,3.173-3.006,4.95
	c-1.078,2.581-1.868,5.299-2.627,8.017c-0.319,1.124-0.714,1.701-1.944,1.503c-0.698-0.106-1.442-0.015-2.308-0.015
	c0.182-4.646,0.334-9.141,0.516-14.06c-1.093,0.547-1.928,0.82-2.566,1.306c-1.473,1.184-2.93,2.414-4.251,3.75
	c-2.414,2.46-4.752,5.011-7.091,7.561c-1.473,1.594-1.989,1.761-4.525,1.169c2.991-5.087,5.967-10.127,9.034-15.275
	c-2.946-0.85-5.512-2.019-6.605-5.041c-0.698-1.883-0.592-3.735,0.182-5.679c0.182,0.653,0.319,1.336,0.516,1.989
	c0.987,3.386,3.963,5.147,7.318,4.13c0.865-0.273,1.822-0.987,2.308-1.761c2.946-4.752,5.785-9.566,8.579-14.394
	c0.516-0.881,1.032-1.048,1.989-0.881c4.616,0.729,9.232,1.412,13.878,0.197c1.017-0.273,1.989-0.698,3.067-1.078L123.908,155.762
	L123.908,155.762z"/>
<g>
</g>
<g>
</g>
<g>
</g>
<g>
</g>
<g>
</g>
<g>
</g>
<g>
</g>
<g>
</g>
<g>
</g>
<g>
</g>
<g>
</g>
</svg>
