<?xml version="1.0" encoding="utf-8"?>
<!-- Generator: Adobe Illustrator 27.1.1, SVG Export Plug-In . SVG Version: 6.00 Build 0)  -->
<svg version="1.1" id="图层_1" xmlns="http://www.w3.org/2000/svg" xmlns:xlink="http://www.w3.org/1999/xlink" x="0px" y="0px"
	 viewBox="0 0 192 192" enable-background="new 0 0 192 192" xml:space="preserve">
<g>
	<path d="M37.883,33.718h18.988v60.159c0,7.729-2.016,13.965-6.047,18.706c-4.032,4.742-9.369,7.112-16.011,7.112
		c-4.178,0-8.293-1.149-12.345-3.446v-19.05c3.801,2.506,6.538,3.759,8.209,3.759c4.804,0,7.207-3.049,7.207-9.149V33.718z"/>
	<path d="M87.942,33.718h24.001c3.425,18.048,6.12,33.568,8.084,46.561l2.067-12.972c0.836-5.054,1.733-9.984,2.695-14.789
		l3.697-18.8h24.502l9.525,83.659h-18.8l-5.076-57.527l-11.718,57.527h-12.847l-12.283-57.653l-4.888,57.653H78.918L87.942,33.718z"
		/>
</g>
<g>
	<path d="M56.21,150.219c0.228,0.399,0.342,0.699,0.342,0.898c0,0.058-0.043,0.136-0.128,0.235s-0.157,0.121-0.214,0.063
		c-0.058,0.058-0.299,0.321-0.727,0.792c-0.428,0.471-0.67,0.678-0.728,0.62l-0.342,0.3h-0.085l-0.257,0.342
		c-1.283,0.97-2.039,1.497-2.267,1.583c-0.742,0.571-1.79,1.034-3.145,1.391c-1.355,0.356-2.56,0.534-3.615,0.534l-0.171-0.128
		c-0.428-0.057-1.169-0.242-2.224-0.557c0,0.058-0.029,0.086-0.086,0.086c-0.114,0-0.2-0.028-0.256-0.086l0.085-0.128
		c-0.257-0.171-0.571-0.313-0.941-0.428c-0.057,0-0.136-0.064-0.235-0.192c-0.1-0.129-0.192-0.207-0.278-0.235l-0.128,0.043
		c-0.114,0-0.186-0.064-0.214-0.192c-0.029-0.129-0.085-0.193-0.171-0.193c-0.086,0-0.128,0.015-0.128,0.043
		c-0.029,0-0.143-0.1-0.342-0.299l0.085-0.129c-0.058-0.057-0.35-0.428-0.877-1.112c-0.528-0.685-0.777-1.055-0.749-1.112
		l-0.428-0.898c-0.086,0-0.128-0.057-0.128-0.171H37.9c0-0.257-0.015-0.478-0.042-0.663c-0.029-0.186-0.058-0.335-0.085-0.449
		c-0.143-0.57-0.214-0.984-0.214-1.24l0.128-0.086l0.086-0.342v-0.043v-0.086l-0.086-0.128l0.128-0.214v-0.043l-0.042-0.043
		l0.042-0.128l0.043,0.085c0.028-0.171,0.064-0.342,0.107-0.513c0.042-0.172,0.049-0.328,0.021-0.471
		c0.228-0.143,0.285-0.356,0.171-0.642l0.085,0.085c0-0.057,0.014-0.1,0.043-0.128c0.028-0.028,0.043-0.071,0.043-0.129h-0.086
		c0-0.085,0.143-0.435,0.428-1.048s0.456-0.934,0.514-0.963l-0.043-0.128v-0.043c0-0.028,0.014-0.057,0.043-0.085
		c0-0.086,0.014-0.129,0.042-0.129l0.043,0.043l0.043-0.043h-0.043c-0.029,0-0.043-0.014-0.043-0.043
		c0-0.027,0.014-0.042,0.043-0.042c0.028,0,0.049,0.007,0.064,0.021c0.014,0.016,0.007,0.021-0.021,0.021
		c0.085-0.142,0.185-0.32,0.299-0.534c0.114-0.214,0.228-0.349,0.342-0.406h-0.128c0-0.114,0.114-0.257,0.342-0.428
		c0.228-0.172,0.342-0.328,0.342-0.471h-0.085c0-0.086,0.014-0.15,0.042-0.192c0.028-0.043,0.071-0.064,0.128-0.064
		c0.057,0,0.085,0.028,0.085,0.085c0.028-0.085,0.107-0.198,0.235-0.342c0.128-0.143,0.221-0.242,0.278-0.3h-0.128
		c0.057,0,0.1-0.021,0.128-0.063c0.028-0.043,0.042-0.078,0.042-0.107l0.043-0.171h0.128c0.028,0,0.057,0.015,0.085,0.043
		c0.028,0.028,0.071,0.043,0.128,0.043c-0.058-0.114-0.058-0.172,0-0.172c0.057,0,0.114,0,0.171,0c0-0.142,0.028-0.241,0.085-0.299
		s0.157-0.086,0.3-0.086c0-0.113,0.028-0.186,0.085-0.214c0,0.028,0.014,0.043,0.043,0.043c0.028,0,0.042-0.015,0.042-0.043
		s-0.015-0.071-0.042-0.128c0.142,0,0.256-0.028,0.342-0.086l-0.086-0.043l0.043-0.043l-0.085-0.128h-0.086l-0.042,0.171h-0.043
		l-0.171-0.043c0.085-0.027,0.171-0.106,0.256-0.235c0.086-0.128,0.143-0.206,0.171-0.235l0.043,0.086
		c0.142-0.057,0.185-0.1,0.128-0.128l0.214,0.042c0.028,0,0.114-0.027,0.257-0.085l-0.042-0.043
		c0.142-0.143,0.242-0.257,0.299-0.342l0.171,0.085v-0.085h0.085c0.028-0.028,0.057-0.05,0.086-0.064
		c0.028-0.014,0.042-0.035,0.042-0.064l-0.085-0.085h0.085c0-0.086,0.071-0.193,0.214-0.321c0.143-0.128,0.214-0.249,0.214-0.363
		l0.3-0.043v-0.043h0.085c0-0.057,0.028-0.1,0.085-0.128c-0.085,0-0.128-0.043-0.128-0.129c0-0.057,0.014-0.085,0.043-0.085
		l0.128,0.042l0.042,0.043h0.043c0.085,0,0.128-0.085,0.128-0.257c0.085-0.027,0.178-0.078,0.278-0.149
		c0.1-0.07,0.164-0.135,0.193-0.192v-0.043l-0.043-0.128c0-0.086,0.043-0.129,0.128-0.129c0.057,0,0.1,0.021,0.128,0.064
		c0.028,0.043,0.057,0.064,0.085,0.064h0.128c-0.114-0.028-0.171-0.114-0.171-0.257c0.114,0,0.199,0.071,0.257,0.214
		c0-0.113,0.064-0.214,0.192-0.3c0.128-0.085,0.193-0.185,0.193-0.299l-0.086-0.043c0.086-0.114,0.228-0.164,0.428-0.15
		c0.199,0.016,0.328,0.021,0.385,0.021v-0.256h0.171l0.984-0.514h0.042l0.299-0.171c0.114-0.028,0.349-0.114,0.706-0.257
		c0.356-0.143,0.535-0.229,0.535-0.257h2.824c0.428,0,0.841,0.229,1.24,0.685s0.599,0.898,0.599,1.326
		c0,0.085-0.015,0.143-0.043,0.171c-0.028,0.029-0.057,0.043-0.085,0.043c-0.029,0-0.042,0.043-0.042,0.128h0.042
		c0-0.057,0.014-0.085,0.043-0.085c0.028,0,0.042,0.021,0.042,0.063c0,0.043-0.015,0.064-0.042,0.064l-0.043,0.043h-0.042
		l-0.086,0.043c0-0.114-0.007-0.156-0.021-0.129c-0.015,0.029-0.05,0.043-0.107,0.043l-0.086,0.043l0.086,0.128
		c-0.143,0.172-0.271,0.257-0.385,0.257c-0.229,0-0.4-0.07-0.513-0.214c-0.114-0.143-0.235-0.37-0.364-0.685
		c-0.128-0.313-0.25-0.471-0.364-0.471h-0.599c-0.286,0-0.642,0.072-1.07,0.214c-0.428,0.144-0.799,0.3-1.112,0.471v0.086
		l0.043,0.043c-0.029,0.028-0.165,0.071-0.406,0.128c-0.243,0.058-0.378,0.114-0.407,0.171v0.129v0.043l-0.085,0.085h-0.043
		l-0.214-0.043c0.114,0.086,0.043,0.129-0.214,0.129v0.085c-0.171,0-0.35,0.064-0.535,0.193c-0.186,0.128-0.321,0.277-0.406,0.449
		h0.171c-0.029,0.028-0.05,0.071-0.064,0.128c-0.015,0.058-0.064,0.086-0.15,0.086c-0.029,0-0.05-0.015-0.064-0.043
		c-0.015-0.028-0.036-0.057-0.064-0.086c-0.256,0.171-0.428,0.3-0.513,0.385c0.057,0.144-0.043,0.278-0.299,0.407
		c-0.257,0.128-0.471,0.25-0.642,0.363c-0.171,0.114-0.257,0.242-0.257,0.385c0,0.086,0.028,0.129,0.085,0.129h-0.085h-0.128
		l-0.342,0.342v0.043v0.043l0.085,0.085c0,0.058-0.029,0.114-0.085,0.172c-0.058,0.057-0.128,0.085-0.214,0.085l-0.043-0.085
		c-0.114,0.028-0.214,0.106-0.299,0.234c-0.085,0.129-0.128,0.235-0.128,0.321c0.028,0,0.057-0.014,0.086-0.043
		c0.028-0.028,0.057-0.043,0.085-0.043c0,0.058-0.058,0.114-0.171,0.172l-0.085-0.043h-0.043v0.085h0.043l0.085,0.086
		c0,0.058-0.05,0.136-0.149,0.235c-0.101,0.101-0.193,0.192-0.278,0.278c0-0.086-0.042-0.129-0.128-0.129
		c-0.085,0-0.128,0.101-0.128,0.3h0.128c0,0.086-0.071,0.186-0.214,0.3c0-0.114-0.042-0.172-0.128-0.172
		c-0.057,0-0.085,0.086-0.085,0.257h0.085c0,0.144-0.093,0.336-0.278,0.578c-0.186,0.242-0.278,0.406-0.278,0.491h-0.085
		c0,0.144-0.079,0.328-0.235,0.557s-0.235,0.414-0.235,0.556h-0.042l-0.085,0.257l-0.257,0.471
		c-0.029,0.058-0.122,0.314-0.278,0.771s-0.264,0.656-0.321,0.599c-0.143,0.314-0.243,0.699-0.299,1.155l-0.085,0.171H40.98
		c0,0.171-0.036,0.371-0.107,0.599c-0.072,0.229-0.064,0.428,0.021,0.599c-0.057,0.029-0.1,0.064-0.128,0.107
		c-0.029,0.043-0.043,0.079-0.043,0.106l0.085,0.257c0,0.058-0.021,0.144-0.064,0.257c-0.043,0.114-0.064,0.214-0.064,0.3v0.171
		l0.043,0.171l-0.043,0.3v0.128c0,0.828,0.378,1.604,1.134,2.332c0.755,0.728,1.576,1.091,2.46,1.091v-0.043
		c0.028,0,0.071,0.015,0.128,0.043c0.057,0.028,0.128,0.043,0.214,0.043h0.042l-0.085-0.043c0.143-0.028,0.285-0.064,0.428-0.107
		c0.143-0.042,0.271-0.078,0.385-0.106l0.128-0.171h0.214c0.171,0,0.698-0.214,1.583-0.642l1.455-0.941
		c0.741-0.542,1.155-0.884,1.241-1.027c-0.085,0-0.128-0.07-0.128-0.214c0.228,0,0.399-0.027,0.514-0.085
		c0.113-0.057,0.256-0.186,0.428-0.385l-0.128-0.086l0.128-0.129v-0.085l-0.043-0.043h0.043c0.057,0,0.121-0.021,0.192-0.064
		c0.071-0.042,0.121-0.078,0.15-0.106l0.085,0.085l0.685-0.642c0.028-0.027,0.071-0.156,0.128-0.385
		c0.057-0.228,0.128-0.342,0.214-0.342l0.128-0.172l0.086,0.043h0.042l0.171-0.043h0.042l0.128,0.086l-0.042,0.086l0.812,0.256
		h1.155c0.085,0,0.171-0.027,0.256-0.085c0.086-0.057,0.171-0.086,0.257-0.086s0.185,0.043,0.299,0.129
		c0.114,0.085,0.199,0.128,0.257,0.128C55.868,149.506,55.981,149.819,56.21,150.219z M38.114,147.16
		c0-0.043-0.029-0.064-0.086-0.064c-0.029,0-0.042,0.021-0.042,0.064c0,0.042,0.014,0.063,0.042,0.063
		C38.085,147.224,38.114,147.202,38.114,147.16z M39.312,143.48c0-0.014,0.014-0.021,0.042-0.021v0.043
		C39.326,143.502,39.312,143.495,39.312,143.48z M40.296,154.839h0.042l-0.171-0.086v0.043
		C40.167,154.825,40.21,154.839,40.296,154.839z M40.938,141.513c0,0.043,0.014,0.064,0.043,0.064c0.028,0,0.049-0.007,0.064-0.021
		c0.014-0.014,0.007-0.035-0.021-0.064h0.043v-0.085c-0.029,0-0.05,0.007-0.064,0.021c-0.015,0.015-0.007,0.021,0.021,0.021H40.98
		C40.952,141.448,40.938,141.47,40.938,141.513z M41.173,141.192c-0.015,0-0.021,0.015-0.021,0.042c0,0.058,0.007,0.086,0.021,0.086
		c0.014,0,0.021-0.028,0.021-0.086C41.194,141.207,41.187,141.192,41.173,141.192z M41.194,141.149c0,0.028,0.014,0.043,0.042,0.043
		c0.028,0,0.043-0.015,0.043-0.043s-0.015-0.043-0.043-0.043C41.208,141.106,41.194,141.121,41.194,141.149z M41.194,141.448
		c0,0.029,0.014,0.043,0.042,0.043c0.028,0,0.043-0.014,0.043-0.043c0-0.027-0.015-0.042-0.043-0.042
		C41.208,141.406,41.194,141.421,41.194,141.448z M41.494,140.828c0,0.043,0.014,0.064,0.043,0.064c0.028,0,0.042-0.021,0.042-0.064
		s-0.015-0.063-0.042-0.063C41.508,140.765,41.494,140.785,41.494,140.828z M41.921,140.379c0,0.058,0.014,0.086,0.043,0.086
		c0.028,0,0.042-0.028,0.042-0.086c0-0.057-0.015-0.085-0.042-0.085C41.936,140.294,41.921,140.322,41.921,140.379z M42.221,139.908
		c0.028-0.027,0.057-0.042,0.086-0.042l-0.043,0.128C42.206,139.966,42.192,139.938,42.221,139.908z M42.563,139.396
		c0,0.058,0.014,0.085,0.043,0.085c0.028,0,0.043-0.027,0.043-0.085c0-0.057-0.015-0.086-0.043-0.086
		C42.577,139.31,42.563,139.339,42.563,139.396z M42.627,139.609c0.014,0,0.021-0.015,0.021-0.043s-0.008-0.043-0.021-0.043
		c-0.015,0-0.021,0.015-0.021,0.043S42.613,139.609,42.627,139.609z M42.82,143.331c0,0.028,0.014,0.043,0.043,0.043
		c0.028,0,0.042-0.015,0.042-0.043s-0.015-0.043-0.042-0.043C42.834,143.288,42.82,143.303,42.82,143.331z M43.675,142.069
		c0,0.042,0.014,0.063,0.043,0.063c0.028,0,0.042-0.021,0.042-0.063c0-0.043-0.015-0.064-0.042-0.064
		C43.689,142.005,43.675,142.026,43.675,142.069z M43.975,141.62c0,0.028,0.014,0.042,0.042,0.042c0.057,0,0.085-0.014,0.085-0.042
		s-0.028-0.043-0.085-0.043C43.989,141.577,43.975,141.592,43.975,141.62z M44.231,141.448l-0.085,0.043h-0.043l0.128-0.085V141.448
		z M44.617,140.828c0-0.043,0.014-0.063,0.042-0.063s0.043,0.021,0.043,0.063s-0.015,0.064-0.043,0.064
		S44.617,140.871,44.617,140.828z M45.087,137.556c0,0.058,0.014,0.086,0.042,0.086c0.028,0,0.043-0.043,0.043-0.129
		c0.028,0,0.042-0.014,0.042-0.043c0-0.027-0.015-0.042-0.042-0.042l-0.043,0.042C45.101,137.47,45.087,137.499,45.087,137.556z
		 M45.13,137.47l0.043,0.043L45.13,137.47z M45.301,136.807c0-0.042,0.014-0.063,0.042-0.063c0.028,0,0.043,0.021,0.043,0.063
		c0,0.043-0.015,0.064-0.043,0.064C45.315,136.871,45.301,136.85,45.301,136.807z M45.344,140.251c0-0.028,0.014-0.043,0.043-0.043
		c0.057,0,0.085,0.015,0.085,0.043s-0.029,0.043-0.085,0.043C45.358,140.294,45.344,140.279,45.344,140.251z M45.472,140.187
		c0-0.043,0.014-0.064,0.043-0.064c0.057,0,0.085,0.021,0.085,0.064s-0.029,0.064-0.085,0.064
		C45.486,140.251,45.472,140.229,45.472,140.187z M45.943,139.652v0.042h-0.171C45.771,139.667,45.829,139.652,45.943,139.652z
		 M45.857,136.914c0,0.028,0.028,0.043,0.085,0.043c0.028,0,0.042-0.015,0.042-0.043s-0.015-0.043-0.042-0.043
		C45.885,136.871,45.857,136.886,45.857,136.914z M46.67,136.016c-0.029,0-0.042,0.015-0.042,0.043s0.014,0.043,0.042,0.043
		c0.028,0,0.043-0.015,0.043-0.043S46.698,136.016,46.67,136.016z M46.927,138.625c0-0.028,0.014-0.043,0.042-0.043
		s0.043,0.015,0.043,0.043c0,0.029-0.015,0.043-0.043,0.043S46.927,138.654,46.927,138.625z M47.44,138.283v-0.086h0.043
		L47.44,138.283z M47.654,137.983c0-0.028,0.014-0.043,0.043-0.043c0.057,0,0.085,0.015,0.085,0.043
		c0,0.029-0.029,0.043-0.085,0.043C47.668,138.026,47.654,138.013,47.654,137.983z M48.125,137.684c0-0.027,0.014-0.042,0.043-0.042
		c0.057,0,0.085,0.015,0.085,0.042c0,0.029-0.029,0.043-0.085,0.043C48.139,137.727,48.125,137.713,48.125,137.684z M48.809,137.192
		c0,0.015,0.014,0.021,0.042,0.021s0.043-0.007,0.043-0.021s-0.015-0.021-0.043-0.021S48.809,137.178,48.809,137.192z
		 M50.092,151.353c0,0.043,0.014,0.063,0.043,0.063v-0.128C50.106,151.288,50.092,151.31,50.092,151.353z M50.777,134.39
		l-0.085-0.085h0.385v0.085H50.777z M51.076,150.582c0-0.043-0.015-0.064-0.042-0.064c-0.029,0-0.043,0.021-0.043,0.064
		s0.014,0.064,0.043,0.064C51.062,150.646,51.076,150.625,51.076,150.582z M52.295,149.021c-0.015,0-0.021,0.015-0.021,0.043
		l0.128,0.086v-0.129C52.345,149.021,52.31,149.021,52.295,149.021z M52.531,148.978c0-0.027-0.015-0.042-0.042-0.042
		c-0.029,0-0.043,0.015-0.043,0.042c0,0.029,0.014,0.043,0.043,0.043C52.516,149.021,52.531,149.007,52.531,148.978z"/>
	<path d="M77.407,135.866c0.185,0.328,0.321,0.678,0.407,1.048c0.113,0.713,0.135,1.412,0.064,2.096
		c-0.072,0.685-0.179,1.655-0.321,2.909c-0.085,0.114-0.229,0.6-0.428,1.455c-0.086,0.456-0.171,0.77-0.257,0.94l-0.214,0.429
		c0.028,0,0.049,0.015,0.064,0.042c0.014,0.029,0.007,0.043-0.021,0.043l-0.043-0.043c-0.656,1.284-1.212,2.511-1.668,3.68
		c0,0.028-0.043,0.071-0.128,0.128c-0.085,0.058-0.128,0.157-0.128,0.3l-0.085,0.043l-0.428,0.685c0,0.028-0.043,0.186-0.128,0.47
		H73.92c-0.058,0.144-0.157,0.343-0.3,0.6c-0.143,0.257-0.256,0.399-0.342,0.428c0,0.058-0.007,0.093-0.021,0.106
		c-0.015,0.015-0.036,0.036-0.064,0.064c-0.057,0.058-0.128,0.171-0.214,0.342c-0.085,0.172-0.157,0.257-0.214,0.257v0.086
		c-0.085,0.086-0.214,0.2-0.385,0.342c-0.171,0.144-0.257,0.229-0.257,0.257v0.086h-0.085h-0.086
		c0.057,0.058,0.064,0.121,0.021,0.192c-0.042,0.071-0.064,0.136-0.064,0.192v-0.086c-0.029,0-0.043,0.016-0.043,0.043
		c0,0.029,0.014,0.043,0.043,0.043c-0.114,0.029-0.214,0.086-0.299,0.171c-0.086,0.086-0.115,0.172-0.086,0.257
		c-0.029,0.086-0.071,0.157-0.128,0.214c-0.058,0.058-0.101,0.101-0.128,0.129v0.085l-0.086-0.128
		c-0.057,0.028-0.107,0.071-0.149,0.128c-0.043,0.058-0.064,0.101-0.064,0.129l-0.513,0.085c0.028,0.171,0.036,0.278,0.021,0.321
		c-0.015,0.043-0.079,0.063-0.192,0.063v0.043l-0.556,0.557c-0.657,0.542-1.355,0.97-2.096,1.283l-0.685,0.128
		c-0.542,0.114-0.991,0.144-1.348,0.086c-0.357-0.057-0.92-0.186-1.69-0.385c-0.114-0.057-0.171-0.071-0.171-0.043
		s-0.029,0.028-0.086,0l0.086-0.128c-0.2-0.143-0.528-0.442-0.984-0.898c-0.457-0.456-0.699-0.813-0.728-1.07l0.043-0.042
		l-0.043-0.129l-0.042-0.299l-0.043-0.129l0.128-0.128c-0.114-0.199-0.171-0.328-0.171-0.386c-0.029-0.171,0.028-0.299,0.171-0.385
		c0.057,0,0.078-0.021,0.064-0.064c-0.015-0.042-0.05-0.063-0.107-0.063l0.043,0.128c-0.029-0.085-0.079-0.171-0.15-0.257
		c-0.071-0.085-0.107-0.156-0.107-0.214c-0.029-0.113,0.007-0.221,0.107-0.32c0.1-0.1,0.135-0.221,0.107-0.364
		c0-0.057-0.042-0.142-0.128-0.256l0.086,0.042l0.085-0.428c-0.029-0.085-0.072-0.149-0.128-0.192
		c-0.058-0.043-0.085-0.078-0.085-0.106c-0.029-0.172,0.028-0.307,0.171-0.406c0.143-0.1,0.171-0.264,0.085-0.492l-0.128-0.214
		v-0.214c-0.029-0.143,0.021-0.229,0.149-0.257s0.207-0.114,0.235-0.257c0-0.113,0.007-0.292,0.021-0.535
		c0.014-0.241,0.049-0.42,0.107-0.534l-0.085-0.471l0.085-0.128l0.128,0.085l0.171-0.257l-0.085-0.085l-0.043,0.042l-0.042,0.086
		h-0.043l-0.085-0.086c-0.029,0.086-0.072,0.144-0.128,0.172c-0.029-0.086,0.007-0.15,0.107-0.192
		c0.1-0.043,0.178-0.064,0.235-0.064c-0.058-0.199-0.021-0.399,0.107-0.599s0.192-0.456,0.192-0.771
		c0.086-0.057,0.114-0.242,0.086-0.556l0.256-0.257l-0.042-0.172l0.171,0.172c0.057-0.057,0.107-0.235,0.15-0.535
		c0.042-0.3,0.049-0.463,0.021-0.492l0.171,0.043l0.085-0.128c0.884-2.225,1.725-3.936,2.524-5.134
		c0.171-0.143,0.407-0.399,0.706-0.771c0.299-0.37,0.477-0.727,0.535-1.069l0.171,0.086h0.042c0.057,0,0.306-0.235,0.749-0.706
		c0.442-0.471,0.734-0.763,0.877-0.877c0.085-0.086,0.185-0.178,0.299-0.278c0.114-0.1,0.199-0.178,0.256-0.235l-0.085-0.042
		l0.685-0.429l0.043-0.085l0.042,0.085l0.3-0.214c0.028,0.086,0.071,0.129,0.128,0.129s0.086-0.043,0.086-0.129l0.812-0.128
		c0.285,0.143,0.627,0.186,1.027,0.128h0.043l-0.171-0.042l0.471-0.086c0.712-0.171,1.348-0.235,1.904-0.192s0.977,0.32,1.262,0.834
		l0.428,0.984C77.1,135.317,77.221,135.538,77.407,135.866z M61.942,149.962h-0.085c-0.029-0.086,0.014-0.143,0.128-0.171
		C62.013,149.876,61.999,149.934,61.942,149.962z M61.92,151.523c-0.015-0.043-0.007-0.064,0.021-0.064
		c0.028,0,0.049,0.021,0.064,0.064c0.014,0.043,0.007,0.064-0.021,0.064C61.956,151.588,61.935,151.566,61.92,151.523z
		 M61.942,151.973h0.085v-0.043C61.97,151.93,61.942,151.944,61.942,151.973z M62.049,153.897c0.014,0.029,0.007,0.043-0.021,0.043
		c-0.029,0-0.05-0.014-0.064-0.043c-0.015-0.028-0.007-0.043,0.021-0.043C62.013,153.854,62.034,153.869,62.049,153.897z
		 M62.113,150.454c0-0.043-0.028-0.036-0.085,0.021c-0.029,0-0.042,0.015-0.042,0.042c0,0.029,0.014,0.043,0.042,0.043
		C62.084,150.533,62.113,150.497,62.113,150.454z M62.07,150.304c-0.058,0.029-0.079,0.064-0.064,0.107
		c0.014,0.043,0.05,0.036,0.107-0.021C62.113,150.333,62.098,150.304,62.07,150.304z M62.156,153.47
		c0-0.028-0.015-0.043-0.043-0.043c-0.057,0-0.085,0.015-0.085,0.043c0,0.029,0.028,0.043,0.085,0.043
		C62.141,153.513,62.156,153.499,62.156,153.47z M63.225,144.828v0.043h0.043v-0.043H63.225z M63.247,144.7
		c0.014,0.028,0.036,0.028,0.064,0c0.028,0,0.035-0.015,0.021-0.043c-0.015-0.028-0.036-0.043-0.064-0.043
		C63.239,144.644,63.232,144.672,63.247,144.7z M63.439,144.529c-0.028,0-0.042,0.015-0.042,0.042c0,0.029,0.014,0.043,0.042,0.043
		s0.043-0.014,0.043-0.043C63.482,144.544,63.467,144.529,63.439,144.529z M73.535,136.102c-0.114,0.028-0.235,0.121-0.364,0.277
		c-0.128,0.157-0.25,0.235-0.363,0.235v0.043c-0.2,0.029-0.5,0.314-0.898,0.855c-0.286,0.428-0.528,0.656-0.728,0.685
		c0,0.058-0.028,0.144-0.085,0.257c-0.058,0.114-0.114,0.186-0.171,0.214c-0.085,0-0.171-0.021-0.257-0.064
		s-0.157-0.063-0.214-0.063c-0.114,0.028-0.25,0.121-0.406,0.277c-0.157,0.157-0.264,0.293-0.321,0.406l-0.086,0.043
		c-0.057,0-0.157-0.057-0.299-0.171c-0.143-0.113-0.257-0.186-0.342-0.214l-0.171,0.171h-0.043c-0.2-0.171-0.328-0.242-0.385-0.214
		c-0.029-0.028-0.157-0.249-0.385-0.663c-0.229-0.413-0.485-0.592-0.77-0.534c-0.143,0.028-0.314,0.186-0.513,0.471
		c-0.2,0.285-0.286,0.484-0.257,0.599h-0.128c0.028,0.114,0.028,0.179,0,0.192c-0.029,0.015-0.071,0.064-0.128,0.149l0.214,0.086
		l-0.085-0.043c0,0.058-0.107,0.25-0.321,0.577c-0.214,0.329-0.307,0.593-0.278,0.792l-0.043,0.128l-0.043-0.042h-0.042
		l-0.128,0.727c-0.342,1.056-0.542,1.754-0.599,2.097c0.028,0.028,0.014,0.136-0.042,0.32c-0.058,0.187-0.086,0.293-0.086,0.321
		l0.043,0.043l0.043,0.128c0.028,0.058-0.029,0.271-0.171,0.642c-0.143,0.371-0.171,0.714-0.085,1.027
		c-0.114-0.028-0.221,0.406-0.321,1.305c-0.1,0.898-0.179,1.604-0.235,2.117c0.028,0.144,0.049,0.3,0.064,0.471
		c0.014,0.171-0.036,0.328-0.149,0.471l0.042,0.043c0,0.085,0.028,0.186,0.086,0.299c0.057,0.114,0.1,0.229,0.128,0.343
		c-0.085,0-0.143,0.05-0.171,0.149c-0.029,0.101-0.071,0.149-0.128,0.149v0.086l0.128,0.171l0.128,0.086
		c0.028,0.085,0.014,0.157-0.043,0.214c-0.058,0.058-0.085,0.114-0.085,0.171v0.086l0.085,0.171l-0.042,0.043v0.043h0.042
		c0,0.057-0.007,0.106-0.021,0.149c-0.015,0.043-0.021,0.093-0.021,0.149l0.042,0.086l0.085,0.085c0,0.058-0.021,0.122-0.064,0.193
		s-0.05,0.164-0.021,0.277l0.043,0.257l0.085,0.129l-0.043,0.214v0.042c0.086,0.428,0.278,0.742,0.578,0.941
		c0.3,0.2,0.663,0.3,1.091,0.3c0-0.114,0.043-0.171,0.128-0.171c0.057-0.028,0.1-0.036,0.128-0.021
		c0.028,0.015,0.071,0.021,0.128,0.021c0.085-0.028,0.228-0.114,0.428-0.257c0.199-0.143,0.313-0.257,0.342-0.343l-0.214,0.043
		v-0.086c-0.029-0.057-0.036-0.092-0.021-0.106c0.014-0.014,0.049-0.021,0.107-0.021h0.171l0.042-0.043l0.257-0.043v-0.042
		c0.028-0.028,0.207-0.15,0.535-0.364c0.328-0.214,0.463-0.449,0.406-0.706l0.086-0.042c-0.029,0.028-0.043,0.028-0.043,0
		s0.014-0.058,0.043-0.086v0.086c0.113,0,0.156-0.058,0.128-0.172c0.086-0.027,0.143-0.063,0.171-0.106
		c0.028-0.043,0.028-0.121,0-0.235l0.042-0.043l0.043,0.043c0.199-0.143,0.406-0.342,0.62-0.599
		c0.214-0.257,0.306-0.442,0.278-0.557c0.057-0.028,0.1-0.057,0.128-0.085h-0.043c-0.029,0-0.042-0.015-0.042-0.043
		s0.014-0.043,0.042-0.043c0.028,0,0.05,0.007,0.064,0.021c0.014,0.015,0.006,0.021-0.021,0.021c0-0.057,0.007-0.143,0.021-0.257
		c0.014-0.113,0.064-0.186,0.149-0.214c0.228-0.028,0.342-0.086,0.342-0.171c-0.058-0.229-0.058-0.343,0-0.343l0.085,0.043
		c-0.028,0.028-0.042,0.086-0.042,0.171c0.171-0.028,0.228-0.199,0.171-0.513c0.143-0.028,0.25-0.136,0.321-0.321
		c0.071-0.186,0.135-0.321,0.193-0.406c-0.029,0-0.015-0.057,0.042-0.171c0,0.028,0.014,0.042,0.043,0.042c0.028,0,0.057,0,0.085,0
		c0-0.085,0.064-0.178,0.192-0.277s0.178-0.207,0.15-0.321c0.143-0.228,0.377-0.677,0.706-1.348c0.327-0.67,0.506-1.062,0.535-1.176
		l-0.043-0.086l0.471-0.898c0.085-0.171,0.156-0.342,0.214-0.514l-0.085-0.043c-0.058-0.198,0.071-0.655,0.385-1.368
		c0.199-0.485,0.313-0.813,0.342-0.984c0.143-0.113,0.264-0.378,0.364-0.791c0.1-0.413,0.135-0.706,0.107-0.877l-0.043-0.086
		c-0.029-0.057-0.029-0.106,0-0.149c0.028-0.043,0.057-0.078,0.086-0.107c0.171-1.055,0.214-1.797,0.128-2.225
		c0.028-0.057,0.028-0.199,0-0.428c0-0.028-0.007-0.049-0.021-0.064c-0.015-0.014-0.036-0.049-0.064-0.106v-0.043l0.043-0.043
		l-0.085-0.471l-0.043-0.428l-0.085-0.256l-0.941,0.171V136.102z M64.038,151.331l0.128-0.043v0.086L64.038,151.331z
		 M64.252,149.705c0,0.029-0.015,0.043-0.043,0.043c-0.028,0.028-0.042,0.028-0.042,0s0.014-0.057,0.042-0.086
		C64.237,149.662,64.252,149.677,64.252,149.705z M65.386,141.021c0.014,0.058,0.035,0.086,0.064,0.086
		c0.028-0.028,0.036-0.071,0.021-0.128c-0.015-0.058-0.036-0.071-0.064-0.043C65.378,140.936,65.371,140.964,65.386,141.021z
		 M65.707,140.785c0,0.043-0.015,0.079-0.043,0.107c-0.057,0-0.085-0.021-0.085-0.064s0.028-0.063,0.085-0.063
		C65.692,140.736,65.707,140.743,65.707,140.785z M65.728,140.657c0.014,0.043,0.006,0.064-0.021,0.064
		c-0.029,0.028-0.05,0.028-0.064,0c-0.015-0.028-0.008-0.071,0.021-0.129C65.692,140.593,65.713,140.614,65.728,140.657z
		 M65.771,139.716c0.014,0.043,0.036,0.064,0.064,0.064c0.028-0.028,0.035-0.064,0.021-0.107c-0.015-0.042-0.036-0.049-0.064-0.021
		C65.763,139.652,65.756,139.673,65.771,139.716z M66.049,139.203c0,0.042,0.014,0.063,0.042,0.063c0.057,0,0.086-0.021,0.086-0.063
		c0-0.043-0.029-0.064-0.086-0.064C66.063,139.139,66.049,139.16,66.049,139.203z M66.113,155.053c0.014,0,0.021-0.028,0.021-0.086
		c0-0.027-0.007-0.042-0.021-0.042c-0.015,0-0.021,0.015-0.021,0.042C66.091,155.024,66.098,155.053,66.113,155.053z M66.22,139.139
		c0-0.028-0.015-0.043-0.042-0.043v0.086C66.205,139.182,66.22,139.167,66.22,139.139z M66.263,139.502
		c0,0.043-0.015,0.064-0.043,0.064v-0.128C66.248,139.438,66.263,139.459,66.263,139.502z M67.396,153.897
		c-0.015-0.028-0.007-0.043,0.021-0.043l0.043,0.086C67.432,153.94,67.41,153.927,67.396,153.897z M67.674,136.614
		c0,0.029,0.014,0.043,0.043,0.043c0.057,0,0.085-0.014,0.085-0.043c0-0.027-0.029-0.043-0.085-0.043
		C67.688,136.571,67.674,136.587,67.674,136.614z M69.514,139.331c0,0.015-0.015,0.036-0.043,0.064
		c-0.029,0-0.043-0.015-0.043-0.043s0.014-0.043,0.043-0.043C69.499,139.31,69.514,139.317,69.514,139.331z M71.332,153.577
		c-0.015-0.043-0.036-0.064-0.064-0.064h-0.043c-0.029,0-0.029,0.043,0,0.128c-0.029,0-0.043,0.021-0.043,0.064
		s0.014,0.064,0.043,0.064l0.043-0.043l0.042-0.086C71.339,153.641,71.346,153.619,71.332,153.577z M71.225,153.513l0.085,0.128
		C71.282,153.641,71.253,153.599,71.225,153.513z M71.268,153.727l-0.043-0.086L71.268,153.727z M71.738,152.785
		c0-0.028-0.015-0.043-0.042-0.043c-0.029,0-0.043,0.015-0.043,0.043c0,0.029,0.014,0.043,0.043,0.043
		C71.724,152.828,71.738,152.814,71.738,152.785z M71.931,152.722c-0.015-0.043-0.05-0.064-0.107-0.064
		c0.028,0,0.042-0.021,0.042-0.064s-0.015-0.064-0.042-0.064v0.129l0.042,0.128C71.924,152.785,71.945,152.764,71.931,152.722z
		 M72.145,152.336c-0.015-0.043-0.036-0.063-0.064-0.063c-0.029,0-0.036,0.021-0.021,0.063c0.014,0.043,0.035,0.064,0.064,0.064
		C72.151,152.4,72.159,152.379,72.145,152.336z M72.765,151.93c0-0.028-0.015-0.028-0.042,0c-0.029,0-0.043,0.015-0.043,0.043
		s0.014,0.043,0.043,0.043C72.75,151.987,72.765,151.959,72.765,151.93z M72.808,151.416c0.028,0,0.042-0.014,0.042-0.042h-0.085
		C72.765,151.402,72.779,151.416,72.808,151.416z M73,151.181c-0.015-0.042-0.036-0.063-0.064-0.063l-0.086,0.085
		c-0.028,0-0.036,0.029-0.021,0.086c0.014,0.058,0.035,0.086,0.064,0.086c0.057-0.028,0.085-0.071,0.085-0.129
		C73.007,151.245,73.015,151.224,73,151.181z M72.851,151.202l0.128,0.043L72.851,151.202z M73.45,150.561
		c0-0.057-0.015-0.085-0.043-0.085c-0.029,0.028-0.042,0.063-0.042,0.106s0.014,0.064,0.042,0.064
		C73.435,150.646,73.45,150.618,73.45,150.561z M73.557,150.411c-0.015-0.043-0.036-0.064-0.064-0.064
		c-0.029,0-0.036,0.021-0.021,0.064c0.014,0.043,0.035,0.064,0.064,0.064C73.563,150.476,73.571,150.454,73.557,150.411z
		 M74.198,149.299c-0.015-0.043-0.036-0.064-0.064-0.064l0.042,0.129l-0.085,0.042h0.085v-0.042
		C74.205,149.363,74.212,149.342,74.198,149.299z M74.263,141.684c0,0.043-0.015,0.064-0.043,0.064
		c-0.058,0-0.085-0.021-0.085-0.064c0-0.042,0.028-0.063,0.085-0.063C74.248,141.62,74.263,141.642,74.263,141.684z M74.605,148.614
		c0-0.043-0.029-0.064-0.086-0.064c-0.029,0-0.029,0.043,0,0.129C74.576,148.679,74.605,148.657,74.605,148.614z M74.797,148.208
		c-0.015-0.057-0.05-0.086-0.107-0.086c0,0.114,0.014,0.172,0.042,0.172C74.79,148.294,74.812,148.266,74.797,148.208z
		 M75.567,146.774c-0.015-0.042-0.064-0.049-0.15-0.021l0.043,0.129C75.546,146.854,75.582,146.817,75.567,146.774z M75.589,146.625
		c0-0.057-0.015-0.086-0.043-0.086c-0.029,0.029-0.043,0.064-0.043,0.107s0.014,0.064,0.043,0.064
		C75.574,146.711,75.589,146.683,75.589,146.625z M75.631,146.497c0-0.028-0.015-0.043-0.042-0.043
		c-0.029,0-0.043,0.015-0.043,0.043s0.014,0.042,0.043,0.042C75.617,146.539,75.631,146.525,75.631,146.497z M75.717,146.39
		c0-0.043-0.028-0.064-0.085-0.064c-0.029,0-0.036,0.021-0.021,0.064c0.014,0.043,0.036,0.064,0.064,0.064
		C75.702,146.454,75.717,146.433,75.717,146.39z"/>
	<path d="M109.362,138.817c0.129,0.157,0.193,0.293,0.193,0.406v0.043c-0.172,0-0.441,0.15-0.812,0.449
		c-0.371,0.3-0.543,0.492-0.514,0.578l-0.129-0.129v0.129v0.085c0,0.114-0.043,0.2-0.127,0.257h-0.043l-0.043-0.043
		c-0.258,0.257-0.385,0.471-0.385,0.642c0,0.086,0.07,0.157,0.213,0.214c0,0.029-0.027,0.043-0.086,0.043
		c0,0.144-0.07,0.271-0.213,0.386s-0.215,0.242-0.215,0.385c0,0.028,0.016,0.063,0.043,0.106c0.029,0.043,0.043,0.093,0.043,0.15
		h-0.086c0,0.143-0.035,0.285-0.105,0.428c-0.072,0.143-0.094,0.285-0.064,0.428c-0.059,0.028-0.086,0.058-0.086,0.085
		c0.086,0,0.129,0.072,0.129,0.214h-0.129v0.3c0,0.086-0.037,0.207-0.107,0.363c-0.07,0.157-0.107,0.278-0.107,0.364l0.086,0.085
		v0.043h-0.086v0.086l0.043,0.171v0.043l-0.043,0.128h0.043v0.129c0,0.058-0.035,0.106-0.105,0.149
		c-0.072,0.043-0.107,0.149-0.107,0.321l0.043,0.128v0.086c0,0.143-0.016,0.214-0.043,0.214h-0.043l-0.043-0.086v0.342l-0.086,0.257
		l0.086,0.172v0.128v0.043l-0.086,0.214l0.086,0.043v0.599l-0.086,0.128h0.086l-0.086,0.086l0.086,0.128v0.172
		c0,0.085-0.016,0.143-0.043,0.171c-0.029,0.028-0.043,0.058-0.043,0.085l0.043,0.941c0.057,0.428,0.086,0.771,0.086,1.027
		c0.086,0.171,0.129,0.435,0.129,0.791s0.027,0.62,0.084,0.791c0.059,0.685,0.115,1.185,0.172,1.498l0.129,0.94
		c0.027,0.257,0.092,0.571,0.191,0.941c0.1,0.371,0.15,0.642,0.15,0.812c0,0.058-0.057,0.086-0.172,0.086h-0.127l-0.344-0.342v0.085
		l0.043,0.129v0.042h-0.043l-0.256-0.085c-0.057,0-0.143,0.093-0.256,0.278c-0.115,0.186-0.215,0.277-0.301,0.277
		c-0.057,0-0.121-0.049-0.191-0.149c-0.072-0.1-0.15-0.149-0.236-0.149h-0.043l-0.213,0.042h-0.086l-0.043-0.085l-0.043,0.043
		c-0.029,0-0.043-0.015-0.043-0.043s0.014-0.043,0.043-0.043l-1.326-1.925l0.043-1.84l0.086-0.086v-1.368
		c-0.086-0.028-0.129-0.172-0.129-0.428h0.043c0.027-0.257,0.043-0.656,0.043-1.198c0-0.143,0-0.557,0-1.24
		c0-0.685,0.057-1.312,0.172-1.883l0.043-0.043c0-0.027,0.014-0.063,0.041-0.106c0.029-0.043,0.043-0.093,0.043-0.15v-0.47h0.129
		c0-0.086,0-0.172,0-0.257c0-0.086-0.014-0.156-0.043-0.214l0.086,0.042l0.043-0.342v-0.043l-0.043-0.085
		c0.143-0.028,0.213-0.343,0.213-0.941h0.043v-0.599c0-0.143,0.043-0.214,0.129-0.214l0.172-0.514l-0.172-0.086
		c0.113,0,0.199-0.092,0.258-0.278c0.057-0.185,0.098-0.292,0.127-0.32v0.214l0.043-0.257l-0.043-0.214
		c0.029,0,0.043-0.021,0.043-0.064c0-0.042-0.014-0.063-0.043-0.063l-0.043,0.085c-0.057-0.143-0.084-0.271-0.084-0.385h-0.043
		l-0.898,0.685c-0.572,0.428-1.213,1.005-1.926,1.732s-1.127,1.276-1.24,1.647c-0.115-0.086-0.57,0.449-1.369,1.604
		c-0.799,1.155-1.583,2.354-2.353,3.594c-0.771,1.241-1.156,1.989-1.156,2.246v1.497h0.043l0.042,1.455
		c-0.085,0-0.2-0.05-0.342-0.15c-0.143-0.1-0.271-0.149-0.385-0.149c-0.058,0-0.15,0.122-0.278,0.363
		c-0.128,0.243-0.307,0.35-0.535,0.321c-0.057-0.028-0.085-0.071-0.085-0.128c-0.029-0.143-0.157-0.25-0.385-0.321
		c-0.229-0.071-0.371-0.192-0.428-0.363c-0.057-0.229-0.171-0.413-0.342-0.557c-0.058,0-0.143-0.092-0.257-0.278
		c-0.114-0.185-0.186-0.32-0.214-0.406c0-0.143,0.035-0.327,0.107-0.556c0.071-0.229,0.107-0.399,0.107-0.514v-0.214l-0.043-0.086
		c0-0.171,0.05-0.428,0.15-0.77c0.1-0.343,0.15-0.613,0.15-0.812c0-0.058-0.015-0.1-0.043-0.129l0.171,0.043
		c0.028-0.086,0.064-0.264,0.107-0.535c0.043-0.271,0.107-0.406,0.193-0.406l0.128,0.043c0.085,0,0.128-0.014,0.128-0.043
		c0-0.085-0.042-0.128-0.128-0.128c0-0.171,0.042-0.3,0.128-0.385v-0.129l0.086,0.086c0.028-0.057,0.042-0.143,0.042-0.257
		c0-0.113-0.042-0.143-0.128-0.086c0-0.171,0.028-0.257,0.086-0.257h0.128v0.257c0.171-0.057,0.3-0.249,0.385-0.577
		s0.128-0.592,0.128-0.792c-0.029,0-0.058-0.027-0.085-0.085c0.028-0.057,0.107-0.129,0.235-0.214
		c0.128-0.086,0.178-0.171,0.15-0.257l-0.085-0.171v-0.086c0-0.085,0.057-0.156,0.171-0.214c0.114-0.057,0.171-0.156,0.171-0.3
		l-0.085-0.128c0.342-0.228,0.684-0.977,1.026-2.246c0.342-1.269,0.542-1.989,0.599-2.16v-0.043c0.028,0,0.042-0.014,0.042-0.043
		c0-0.027-0.015-0.042-0.042-0.042c0-0.172,0.064-0.378,0.192-0.621c0.129-0.241,0.192-0.449,0.192-0.62
		c-0.143,0-0.271,0.05-0.385,0.149c-0.114,0.101-0.243,0.15-0.385,0.15c-0.114,0-0.171-0.028-0.171-0.086l-0.085,0.043l0.085,0.086
		v0.085c0,0.029-0.058,0.043-0.171,0.043l-0.214-0.043c-0.085,0-0.157,0.058-0.214,0.171c-0.057,0.114-0.085,0.2-0.085,0.257h-0.085
		c-0.371,0-0.542,0.101-0.514,0.3l0.128,0.086v0.085l-0.128,0.043c-0.371,0.086-0.492,0.149-0.363,0.192s0.107,0.079-0.064,0.107
		l-0.128-0.043l-0.214,0.171l0.214,0.086c-0.028,0.171-0.2,0.256-0.513,0.256c-0.314,0.257-0.727,0.714-1.241,1.369l0.086,0.086
		l-0.128,0.257l-0.128-0.172c-0.085,0.086-0.235,0.243-0.449,0.471c-0.214,0.229-0.321,0.386-0.321,0.471l0.085,0.129
		c-0.085,0-0.229,0.085-0.428,0.257c-0.085,0.171-0.214,0.356-0.385,0.556c-0.171,0.2-0.314,0.385-0.428,0.556
		c0,0.029-0.015,0.058-0.042,0.086c-0.029,0.029-0.058,0.043-0.086,0.043c-0.085,0.058-0.143,0.186-0.171,0.385
		c-0.029,0.2-0.114,0.328-0.257,0.385l0.086,0.043l-0.257,0.257l-0.171-0.043h-0.042c-0.029,0-0.128,0.136-0.3,0.406
		c-0.171,0.271-0.285,0.464-0.342,0.578h0.085c0,0.028-0.186,0.257-0.556,0.685c-0.371,0.428-0.556,0.741-0.556,0.94
		c0,0.058,0.042,0.086,0.128,0.086c-0.029,0.058-0.093,0.086-0.193,0.086c-0.1,0-0.149,0.043-0.149,0.128
		c0,0.058,0.014,0.101,0.042,0.129s0.043,0.057,0.043,0.085l-0.385,0.385c0.057,0.058,0.057,0.094,0,0.107
		c-0.057,0.015-0.1,0.036-0.128,0.064l-0.128,0.342l0.128,0.129c-0.029,0.028-0.128,0.085-0.3,0.171
		c-0.171,0.085-0.256,0.271-0.256,0.556h0.214c0,0.086-0.085,0.114-0.257,0.086v0.085l-0.085,0.043v0.043l0.128,0.043
		c-0.171,0-0.257,0.085-0.257,0.257l0.043,0.085l0.085-0.085l0.085,0.043l-0.085,0.171c-0.029,0.058-0.093,0.093-0.192,0.106
		c-0.101,0.015-0.15,0.051-0.15,0.107l0.043,0.043c0-0.028,0.014-0.043,0.042-0.043c0.028,0,0.043,0.015,0.043,0.043
		s-0.015,0.042-0.043,0.042l0.043,0.043v0.043l-0.043,0.171c0-0.085-0.042-0.171-0.128-0.257l-0.042,0.086v0.171h-0.043
		c-0.029,0-0.043,0.015-0.043,0.043s0.014,0.043,0.043,0.043c-0.029,0.143-0.079,0.257-0.15,0.342
		c-0.071,0.086-0.122,0.172-0.149,0.257l0.042,0.3v0.043c0,0.057-0.028,0.164-0.085,0.32c-0.058,0.157-0.085,0.278-0.085,0.364
		v0.128l0.085,0.086l-0.085,0.085v0.043l-0.085-0.043h-0.043c-0.085,0-0.128,0.114-0.128,0.343c-0.057,0-0.107-0.021-0.149-0.064
		c-0.043-0.043-0.093-0.064-0.15-0.064h-0.043c-0.085,0-0.164,0.064-0.235,0.192c-0.071,0.129-0.192,0.192-0.363,0.192
		c-0.058,0-0.114-0.042-0.171-0.128s-0.114-0.128-0.171-0.128h-0.385c-0.457-0.827-0.684-1.27-0.684-1.326
		c0-0.086,0.028-0.172,0.085-0.257v-0.642c0.057-0.028,0.092-0.078,0.107-0.15c0.014-0.07,0.064-0.106,0.149-0.106l-0.085-0.043
		c0.028-0.028,0.071-0.05,0.128-0.064c0.057-0.014,0.085-0.049,0.085-0.106l-0.171-0.086l-0.043-0.043
		c0-0.171,0.071-0.306,0.214-0.406c0.143-0.1,0.214-0.178,0.214-0.235v-0.043l-0.128-0.085l0.128-0.086v-0.043
		c0-0.085,0.028-0.156,0.086-0.214l0.042,0.086l0.085-0.128c0-0.028,0.007-0.05,0.021-0.064c0.014-0.015,0.036-0.021,0.064-0.021
		l-0.171-0.128l-0.042-0.086l0.042-0.043h0.043c0.028,0,0.071,0.021,0.128,0.064c0.057,0.043,0.085,0.079,0.085,0.106v-0.128
		c0-0.199-0.072-0.3-0.214-0.3c0-0.143,0.057-0.292,0.171-0.449c0.114-0.156,0.214-0.192,0.3-0.106
		c0.028-0.057,0.057-0.129,0.085-0.214c0.028-0.086,0.085-0.186,0.171-0.3l0.043-0.043c-0.171-0.027-0.243-0.078-0.214-0.149
		c0.028-0.071,0.014-0.107-0.043-0.107l0.299-0.256v-0.043l-0.085-0.086v-0.085l0.128-0.257l0.085,0.085
		c0.086,0,0.207-0.256,0.364-0.77c0.156-0.514,0.278-0.771,0.364-0.771c0-0.199,0.049-0.477,0.149-0.834
		c0.1-0.356,0.15-0.648,0.15-0.877c-0.085,0-0.128-0.028-0.128-0.086c0-0.142,0.028-0.214,0.085-0.214
		c0.028,0,0.043,0.029,0.043,0.086c0,0.058,0.043,0.101,0.128,0.128c0.057-0.085,0.085-0.284,0.085-0.599
		c0-0.028-0.015-0.057-0.043-0.085s-0.042-0.071-0.042-0.129v-0.085l0.128,0.042l0.042-0.171v-0.043l-0.171-0.043
		c0.028-0.142,0.114-0.327,0.257-0.556c0.142-0.228,0.214-0.413,0.214-0.557c0-0.057-0.021-0.106-0.064-0.149
		c-0.042-0.043-0.064-0.078-0.064-0.106c0-0.172,0.064-0.313,0.192-0.428s0.192-0.214,0.192-0.3s-0.029-0.171-0.085-0.257
		c-0.058-0.086-0.085-0.143-0.085-0.171c0.171,0,0.278-0.1,0.321-0.3c0.043-0.199,0.064-0.327,0.064-0.385
		c-0.143-0.113-0.214-0.257-0.214-0.428c0.114-0.028,0.185-0.086,0.214-0.171c-0.029,0-0.042-0.021-0.042-0.064
		s0.014-0.064,0.042-0.064c0.028,0,0.043,0.043,0.043,0.129v-0.086c0-0.028-0.015-0.057-0.043-0.086
		c-0.029-0.027-0.042-0.07-0.042-0.128c0-0.057,0.006-0.106,0.021-0.149c0.014-0.043,0.035-0.064,0.064-0.064
		c0-0.113-0.015-0.221-0.043-0.321c-0.029-0.1-0.042-0.178-0.042-0.234c0-0.086,0.014-0.129,0.042-0.129c0.028,0,0.057,0,0.086,0
		c0-0.171-0.021-0.335-0.064-0.492c-0.042-0.156-0.064-0.306-0.064-0.449l0.042-0.214v-0.128c0-0.086-0.042-0.249-0.128-0.492
		c-0.086-0.242-0.128-0.42-0.128-0.534l0.042-0.043v-0.043v-0.129h-0.042l-0.257-0.47c-0.229,0-0.314-0.058-0.257-0.172
		l-0.342-0.128v0.043l0.257,0.171c-0.2,0-0.414-0.186-0.642-0.556c-0.229-0.371-0.342-0.643-0.342-0.813
		c0.171,0,0.364,0.015,0.578,0.043s0.42,0.043,0.62,0.043l0.128-0.043c1.226,0,2.053,0.171,2.481,0.514l-0.086,0.085v0.043
		c0,0.058,0.107,0.25,0.321,0.577c0.214,0.329,0.321,0.55,0.321,0.663v0.6c0,0.143-0.029,0.342-0.086,0.599
		s-0.085,0.471-0.085,0.642l0.085,0.129c0,0.057-0.021,0.106-0.064,0.149s-0.079,0.064-0.107,0.064v0.471
		c0,0.229-0.029,0.399-0.085,0.513h-0.086c-0.085,0.114-0.149,0.385-0.192,0.813c-0.042,0.428-0.079,0.727-0.107,0.897
		c-0.058,0.029-0.1,0.064-0.128,0.107c-0.029,0.043-0.042,0.122-0.042,0.235c0,0.028,0.006,0.05,0.021,0.064
		c0.014,0.015,0.021,0.036,0.021,0.063v0.129l-0.128-0.043c-0.085,0.229-0.128,0.499-0.128,0.812v0.129l0.042,0.042
		c0,0.144-0.021,0.265-0.064,0.364c-0.043,0.101-0.064,0.235-0.064,0.406h-0.128c0,0.086,0.006,0.186,0.021,0.3
		c0.014,0.114-0.007,0.214-0.064,0.299c-0.029-0.027-0.064-0.007-0.107,0.064s-0.064,0.149-0.064,0.235v0.043l0.086,0.128
		c0,0.144-0.072,0.328-0.214,0.557c-0.143,0.229-0.214,0.428-0.214,0.599c0.057-0.028,0.135-0.107,0.235-0.235
		c0.1-0.128,0.193-0.206,0.278-0.235l0.171,0.214h0.086l0.085-0.085c0-0.257,0.057-0.386,0.171-0.386
		c0.086,0,0.128,0.058,0.128,0.171c0.199-0.256,0.485-0.669,0.855-1.24c0.798-0.998,1.298-1.611,1.498-1.84l-0.171-0.085
		c0.086-0.028,0.135-0.086,0.15-0.171c0.014-0.086,0.064-0.1,0.15-0.043c0.028-0.028,0.092-0.1,0.192-0.214
		c0.1-0.114,0.207-0.229,0.321-0.343l-0.085-0.043c0.057-0.085,0.185-0.214,0.385-0.385c0.199-0.171,0.371-0.349,0.514-0.534
		c0.142-0.186,0.214-0.364,0.214-0.535v-0.171v-0.043c0-0.113,0.114-0.214,0.342-0.3c0.228-0.085,0.356-0.171,0.385-0.256
		l-0.042-0.129l-0.086-0.043v-0.043l0.086-0.042c0.057,0.114,0.1,0.157,0.128,0.128c0.028-0.028,0.071-0.043,0.128-0.043
		c0.114,0,0.193-0.063,0.235-0.192c0.043-0.128,0.064-0.235,0.064-0.32h0.042c0-0.086-0.029-0.121-0.085-0.107
		c-0.058,0.015-0.1,0.021-0.128,0.021l0.428-0.342v0.256h0.043c0-0.342,0.085-0.513,0.257-0.513c0.171,0,0.228,0.028,0.171,0.085
		c0.085-0.027,0.156-0.092,0.214-0.192c0.057-0.1,0.085-0.221,0.085-0.363l-0.085-0.086l0.085-0.043v0.086
		c0.114,0,0.171-0.028,0.171-0.086l-0.171-0.085c0.028,0,0.121-0.071,0.278-0.214c0.156-0.143,0.263-0.214,0.321-0.214
		c0.057,0.028,0.1,0.043,0.128,0.043l0.042-0.043l-0.042-0.043c0.113-0.171,0.306-0.343,0.578-0.514
		c0.271-0.171,0.449-0.299,0.535-0.385h0.042c0.143,0,0.328,0.036,0.557,0.106c0.228,0.072,0.428,0.107,0.599,0.107
		c0.143,0,0.3-0.014,0.471-0.043c0.171-0.028,0.355-0.043,0.557-0.043h0.127c0.086,0.029,0.221,0.265,0.406,0.706
		c0.186,0.442,0.307,0.764,0.365,0.963c-0.344,0-0.679,0.128-1.006,0.385c-0.328,0.257-0.563,0.542-0.706,0.855v0.171
		c-0.342,0.657-0.556,1.256-0.642,1.797l0.043,0.129l-0.043,0.085h-0.086c-0.171,0.485-0.399,1.27-0.684,2.354v0.085
		c0,0.029,0.006,0.064,0.021,0.107c0.014,0.043,0.021,0.093,0.021,0.149c0,0.029-0.071,0.214-0.214,0.557
		c-0.143,0.342-0.214,0.613-0.214,0.812l0.085,0.086v0.042c-0.085,0.144-0.164,0.386-0.235,0.728
		c-0.072,0.343-0.122,0.571-0.15,0.685v0.043c0,0.028,0.014,0.064,0.042,0.106c0.028,0.043,0.043,0.079,0.043,0.107
		c0,0.058-0.043,0.143-0.128,0.257s-0.128,0.214-0.128,0.299c0,0.086,0.057,0.129,0.171,0.129c0.114,0,0.285-0.207,0.513-0.62
		c0.228-0.413,0.428-0.621,0.6-0.621c0,0.172-0.086,0.357-0.257,0.557c-0.171,0.2-0.272,0.328-0.3,0.385
		c-0.171,0.171-0.335,0.364-0.492,0.578s-0.235,0.421-0.235,0.62v0.085l0.086-0.085c0,0.285,0.028,0.471,0.085,0.556l1.668-2.994
		v-0.043c0-0.057,0.064-0.143,0.192-0.257c0.129-0.113,0.207-0.199,0.235-0.257c0.171-0.257,0.399-0.627,0.685-1.112
		c0.285-0.484,0.6-0.869,0.941-1.154c-0.059,0-0.086-0.058-0.086-0.172c0-0.027,0.021-0.049,0.064-0.063s0.049-0.036,0.021-0.064
		l0.086,0.043c0.17-0.143,0.412-0.435,0.727-0.877c0.312-0.442,0.471-0.706,0.471-0.792h0.086v0.043c0.057,0,0.42-0.378,1.09-1.134
		c0.67-0.755,1.006-1.161,1.006-1.219h0.172l0.213-0.3h0.086c0.057,0,0.092-0.014,0.107-0.043c0.014-0.028,0.021-0.057,0.021-0.085
		l-0.043-0.257h0.17c0-0.057,0.029-0.107,0.086-0.15c0.057-0.042,0.086-0.12,0.086-0.235h0.043c0-0.085,0.049-0.12,0.15-0.106
		c0.1,0.015,0.162,0.021,0.191,0.021c0-0.086,0.078-0.199,0.236-0.343c0.156-0.142,0.234-0.241,0.234-0.299h-0.086
		c0-0.086,0.057-0.164,0.172-0.235c0.113-0.071,0.186-0.121,0.213-0.149c0,0.085,0.016,0.128,0.043,0.128c0.029,0,0.057,0,0.086,0
		c0-0.228,0.129-0.343,0.385-0.343c0-0.085,0.064-0.185,0.193-0.299c0.127-0.114,0.234-0.171,0.32-0.171
		c0.057,0,0.15,0.028,0.277,0.085c0.129,0.058,0.221,0.114,0.279,0.171h0.598c0.143,0,0.301-0.021,0.471-0.063
		c0.172-0.043,0.357-0.064,0.557-0.064c0.143,0,0.242,0.036,0.299,0.107c0.059,0.071,0.094,0.186,0.107,0.342
		c0.014,0.157,0.035,0.278,0.064,0.363C109.155,138.512,109.235,138.661,109.362,138.817z M83.332,154.646
		c0-0.043-0.015-0.064-0.042-0.064c-0.029,0-0.043,0.021-0.043,0.064s0.014,0.064,0.043,0.064
		C83.317,154.711,83.332,154.689,83.332,154.646z M83.332,154.817c0-0.043-0.015-0.064-0.042-0.064
		c-0.029,0-0.043,0.021-0.043,0.064s0.014,0.064,0.043,0.064C83.317,154.882,83.332,154.86,83.332,154.817z M83.417,154.154
		c0-0.028-0.015-0.043-0.042-0.043c-0.029,0-0.043,0.015-0.043,0.043s0.014,0.043,0.043,0.043
		C83.402,154.197,83.417,154.183,83.417,154.154z M84.145,151.78c-0.058,0.043-0.085,0.079-0.085,0.106
		c0.171,0,0.256-0.014,0.256-0.043v-0.128C84.258,151.716,84.201,151.737,84.145,151.78z M84.187,151.545
		c0,0.028,0.014,0.043,0.043,0.043c0.028,0,0.043-0.015,0.043-0.043s-0.015-0.043-0.043-0.043
		C84.201,151.502,84.187,151.517,84.187,151.545z M84.315,151.16v-0.129l0.086,0.086L84.315,151.16z M84.743,150.604v-0.043h-0.085
		C84.658,150.59,84.686,150.604,84.743,150.604z M86.027,155.353v0.128h-0.128C85.898,155.395,85.941,155.353,86.027,155.353z
		 M86.112,154.197l0.043-0.086C86.155,154.169,86.141,154.197,86.112,154.197z M86.54,153.897c0-0.028,0.014-0.043,0.043-0.043
		v0.086C86.554,153.94,86.54,153.927,86.54,153.897z M86.625,143.053c0,0.043-0.015,0.064-0.042,0.064v-0.129
		C86.611,142.988,86.625,143.01,86.625,143.053z M87.011,142.005c0-0.028-0.015-0.043-0.043-0.043c0.028,0,0.043-0.014,0.043-0.043
		c0-0.027-0.015-0.042-0.043-0.042c-0.029,0-0.042,0.015-0.042,0.042c0,0.029,0.014,0.043,0.042,0.043
		c-0.029,0-0.042,0.015-0.042,0.043s0.014,0.043,0.042,0.043C86.996,142.048,87.011,142.033,87.011,142.005z M87.567,147.588
		c0-0.043-0.015-0.064-0.043-0.064h-0.042c-0.029,0-0.043,0.028-0.043,0.086c0,0.057,0.014,0.085,0.043,0.085l0.042-0.043
		C87.552,147.651,87.567,147.631,87.567,147.588z M87.481,147.523l0.042,0.128C87.495,147.651,87.481,147.609,87.481,147.523z
		 M87.61,147.459c0-0.043-0.015-0.063-0.043-0.063c-0.029,0-0.043,0.021-0.043,0.063s0.014,0.064,0.043,0.064
		C87.595,147.523,87.61,147.502,87.61,147.459z M87.952,147.523c-0.057,0-0.085,0.086-0.085,0.257v0.085
		C87.923,147.809,87.952,147.694,87.952,147.523z M88.294,147.416c0.057-0.07,0.086-0.163,0.086-0.277
		c-0.114,0-0.2-0.057-0.257-0.171c-0.029,0.057-0.072,0.114-0.128,0.171c-0.058,0.058-0.085,0.143-0.085,0.257
		c0,0.028,0.021,0.05,0.064,0.063c0.043,0.015,0.078,0.036,0.107,0.064h0.043C88.18,147.523,88.237,147.488,88.294,147.416z
		 M88.208,150.069c0-0.043,0.028-0.064,0.085-0.064v0.128C88.237,150.133,88.208,150.111,88.208,150.069z M88.679,146.711
		c0-0.058-0.015-0.086-0.043-0.086c-0.029,0-0.042,0.043-0.042,0.128c-0.029,0-0.043,0.016-0.043,0.043
		c0,0.029,0.014,0.043,0.043,0.043l0.042-0.043C88.665,146.796,88.679,146.769,88.679,146.711z M88.636,146.796l-0.042-0.043
		L88.636,146.796z M89.107,148.85c0,0.028-0.015,0.043-0.043,0.043s-0.042-0.015-0.042-0.043s0.014-0.043,0.042-0.043
		S89.107,148.821,89.107,148.85z M89.321,148.636c0,0.028-0.015,0.043-0.043,0.043s-0.042-0.015-0.042-0.043
		s0.014-0.043,0.042-0.043S89.321,148.607,89.321,148.636z M90.775,146.582c0,0.029-0.015,0.043-0.043,0.043
		c-0.029,0-0.042-0.014-0.042-0.043c0-0.027,0.014-0.043,0.042-0.043C90.761,146.539,90.775,146.555,90.775,146.582z
		 M91.973,145.085c0,0.028-0.029,0.043-0.085,0.043c-0.029,0-0.043-0.015-0.043-0.043s0.014-0.043,0.043-0.043
		C91.944,145.042,91.973,145.057,91.973,145.085z M92.486,144.529c0,0.028-0.015,0.042-0.042,0.042l-0.085,0.043
		c-0.029,0-0.043-0.014-0.043-0.043c0-0.027,0.014-0.042,0.043-0.042l0.085-0.043C92.472,144.486,92.486,144.501,92.486,144.529z
		 M92.743,144.101c0.028,0,0.043,0.016,0.043,0.043h-0.085C92.701,144.116,92.714,144.101,92.743,144.101z M93.042,141.234
		c0-0.085-0.015-0.128-0.042-0.128l-0.043,0.043C92.957,141.207,92.985,141.234,93.042,141.234z M93.898,149.876
		c0,0.058,0.014,0.086,0.042,0.086v-0.171C93.912,149.791,93.898,149.819,93.898,149.876z M94.069,149.299
		c0,0.043-0.015,0.064-0.042,0.064c-0.029,0-0.043-0.021-0.043-0.064s0.014-0.064,0.043-0.064
		C94.055,149.234,94.069,149.256,94.069,149.299z M94.069,139.802c0.028,0.043,0.043,0.036,0.043-0.021
		c0-0.028-0.015-0.043-0.043-0.043C94.041,139.737,94.041,139.759,94.069,139.802z M94.198,139.737c0-0.028-0.015-0.043-0.043-0.043
		s-0.042,0.015-0.042,0.043c0,0.029,0.014,0.043,0.042,0.043S94.198,139.767,94.198,139.737z M94.412,139.802
		c0-0.043-0.015-0.064-0.043-0.064s-0.042,0.021-0.042,0.064s0.014,0.064,0.042,0.064S94.412,139.845,94.412,139.802z
		 M94.412,142.39c0,0.029-0.015,0.043-0.043,0.043s-0.042-0.014-0.042-0.043c0-0.028,0.014-0.043,0.042-0.043
		S94.412,142.361,94.412,142.39z M94.455,139.673c0,0.043,0.014,0.064,0.042,0.064v-0.128
		C94.468,139.609,94.455,139.631,94.455,139.673z M94.797,139.438c0-0.028-0.015-0.043-0.043-0.043
		c-0.058,0-0.085,0.015-0.085,0.043s0.028,0.042,0.085,0.042C94.782,139.48,94.797,139.467,94.797,139.438z M94.797,138.775
		c0-0.043,0.014-0.064,0.042-0.064c0.028,0,0.043,0.021,0.043,0.064c0,0.042-0.015,0.063-0.043,0.063
		C94.811,138.839,94.797,138.817,94.797,138.775z M94.925,139.31c0-0.057-0.015-0.086-0.042-0.086c-0.029,0-0.043,0.029-0.043,0.086
		c0,0.058,0.014,0.086,0.043,0.086C94.91,139.396,94.925,139.367,94.925,139.31z M95.096,141.834c0,0.028-0.015,0.043-0.043,0.043
		v-0.086C95.082,141.791,95.096,141.806,95.096,141.834z M95.738,138.176c0-0.043-0.029-0.063-0.085-0.063v0.128
		C95.709,138.24,95.738,138.219,95.738,138.176z M96.037,149.149h-0.042v-0.086h0.042V149.149z M96.166,150.882
		c0-0.043-0.015-0.064-0.042-0.064c-0.058,0-0.086,0.021-0.086,0.064s0.028,0.064,0.086,0.064
		C96.151,150.946,96.166,150.925,96.166,150.882z M96.294,150.711c0.057-0.071,0.085-0.121,0.085-0.15
		c0-0.057-0.015-0.085-0.042-0.085c-0.086,0.028-0.128,0.128-0.128,0.299v0.172C96.208,150.86,96.236,150.782,96.294,150.711z
		 M96.508,150.476v-0.129h-0.128C96.408,150.433,96.45,150.476,96.508,150.476z M96.636,149.962h0.043l0.085,0.043L96.636,149.962z
		 M96.765,150.069c0-0.043-0.029-0.064-0.085-0.064c-0.029,0-0.043,0.021-0.043,0.064c0,0.042,0.014,0.063,0.043,0.063
		C96.736,150.133,96.765,150.111,96.765,150.069z M96.722,149.834c0,0.028,0.014,0.042,0.043,0.042v-0.085
		C96.736,149.791,96.722,149.806,96.722,149.834z M96.893,149.876c0-0.057-0.015-0.085-0.043-0.085h0.043l-0.128-0.129v0.043
		l0.085,0.086c-0.029,0-0.043,0.028-0.043,0.085c0,0.058,0.014,0.086,0.043,0.086C96.878,149.962,96.893,149.934,96.893,149.876z
		 M96.807,149.62c0,0.028,0.014,0.042,0.043,0.042c0.028,0,0.043-0.014,0.043-0.042s-0.015-0.043-0.043-0.043
		C96.821,149.577,96.807,149.592,96.807,149.62z M96.936,149.405v-0.042h0.043L96.936,149.405z M97.192,149.363
		c0-0.028-0.015-0.043-0.043-0.043s-0.042,0.015-0.042,0.043s0.014,0.042,0.042,0.042S97.192,149.392,97.192,149.363z
		 M99.46,137.342c0.027,0,0.043,0.028,0.043,0.086C99.444,137.37,99.431,137.342,99.46,137.342z M99.802,144.208
		c0-0.043,0.014-0.064,0.043-0.064c0.057,0,0.086,0.021,0.086,0.064s-0.029,0.064-0.086,0.064
		C99.815,144.272,99.802,144.251,99.802,144.208z M103.14,140.422c0-0.057,0.027-0.086,0.084-0.086
		C103.224,140.394,103.196,140.422,103.14,140.422z M103.952,153.021c0-0.014-0.029-0.021-0.086-0.021
		c-0.029,0-0.043,0.008-0.043,0.021c0,0.015,0.014,0.021,0.043,0.021C103.923,153.042,103.952,153.035,103.952,153.021z
		 M103.952,153.705c0-0.043-0.029-0.064-0.086-0.064c-0.029,0-0.043,0.021-0.043,0.064s0.014,0.064,0.043,0.064
		C103.923,153.77,103.952,153.748,103.952,153.705z M104.122,147.609c0-0.058-0.027-0.086-0.084-0.086
		c-0.029,0-0.043,0.028-0.043,0.086c0,0.057,0.014,0.085,0.043,0.085C104.095,147.694,104.122,147.666,104.122,147.609z
		 M104.251,146.026c0-0.028-0.014-0.043-0.043-0.043s-0.043,0.015-0.043,0.043s0.014,0.043,0.043,0.043
		S104.251,146.055,104.251,146.026z M104.423,145.791c0-0.043-0.029-0.064-0.086-0.064c-0.029,0-0.043,0.021-0.043,0.064
		s0.014,0.064,0.043,0.064C104.394,145.855,104.423,145.834,104.423,145.791z M104.614,143.737
		c-0.014,0.015-0.021,0.036-0.021,0.064l0.086,0.085v-0.171C104.649,143.716,104.628,143.724,104.614,143.737z M104.636,143.631
		c0,0.028,0.014,0.042,0.043,0.042v-0.085C104.649,143.588,104.636,143.603,104.636,143.631z M104.894,143.203
		c0-0.028-0.016-0.043-0.043-0.043c-0.059,0-0.086,0.015-0.086,0.043s0.027,0.042,0.086,0.042
		C104.878,143.245,104.894,143.231,104.894,143.203z M105.021,142.711c0-0.043-0.027-0.064-0.084-0.064
		c-0.029,0-0.043,0.021-0.043,0.064s0.014,0.063,0.043,0.063C104.993,142.774,105.021,142.754,105.021,142.711z M105.063,142.39
		c0-0.028-0.014-0.043-0.043-0.043c-0.027,0-0.043,0.015-0.043,0.043c0,0.029,0.016,0.043,0.043,0.043
		C105.05,142.433,105.063,142.419,105.063,142.39z M105.021,141.705l0.043,0.043C105.034,141.748,105.021,141.734,105.021,141.705z
		 M105.192,141.684c0-0.042-0.016-0.063-0.043-0.063c-0.029,0-0.043,0.021-0.043,0.063c0,0.043,0.014,0.064,0.043,0.064
		C105.177,141.748,105.192,141.727,105.192,141.684z M105.192,141.556c0,0.043,0.014,0.064,0.043,0.064v-0.129
		C105.206,141.491,105.192,141.513,105.192,141.556z M105.3,156.636c0.043,0,0.064-0.015,0.064-0.043h-0.129
		C105.235,156.621,105.257,156.636,105.3,156.636z M105.792,138.069c0-0.028-0.029-0.043-0.086-0.043
		c-0.029,0-0.043,0.015-0.043,0.043s0.014,0.043,0.043,0.043C105.763,138.112,105.792,138.098,105.792,138.069z M106.134,137.834
		c0-0.043-0.029-0.064-0.086-0.064c-0.029,0-0.043,0.021-0.043,0.064s0.014,0.063,0.043,0.063
		C106.104,137.897,106.134,137.877,106.134,137.834z M106.519,156.336v-0.085h0.043L106.519,156.336z M107.46,141.748
		c0-0.028-0.016-0.043-0.043-0.043c-0.029,0-0.043,0.015-0.043,0.043c0,0.029,0.014,0.043,0.043,0.043
		C107.444,141.791,107.46,141.777,107.46,141.748z M107.63,141.234c0-0.057,0.016-0.085,0.043-0.085
		c0.029,0,0.043,0.028,0.043,0.085c0,0.058-0.014,0.086-0.043,0.086C107.646,141.32,107.63,141.292,107.63,141.234z
		 M107.759,140.893h0.086v0.043L107.759,140.893z M107.888,141.106c0,0.028-0.016,0.043-0.043,0.043
		c-0.029,0-0.043-0.015-0.043-0.043s0.014-0.043,0.043-0.043C107.872,141.063,107.888,141.078,107.888,141.106z"/>
	<path d="M123.694,135.994c-0.585,0.528-0.834,0.92-0.749,1.177c-0.114,0.114-0.221,0.264-0.32,0.449
		c-0.101,0.186-0.179,0.35-0.235,0.492h-0.086l-0.085-0.086v0.086l0.042,0.085h-0.085h-0.129l0.129,0.086l-0.129,0.043v0.428h-0.299
		v0.342c0.113,0,0.171,0.029,0.171,0.086c0,0.058-0.05,0.085-0.149,0.085c-0.101,0-0.15,0.043-0.15,0.129
		c0,0.085,0.071,0.128,0.214,0.128c0,0.144-0.071,0.214-0.214,0.214l0.043,0.129h-0.085v0.171h-0.086v0.214
		c-0.086,0.114-0.129,0.314-0.129,0.599h-0.214c0.172,0.058,0.257,0.157,0.257,0.3c-0.028,0-0.058-0.007-0.085-0.021
		c-0.029-0.014-0.086-0.021-0.172-0.021l-0.042,0.471v0.128l0.042,0.129c0,0.085-0.036,0.207-0.106,0.363
		c-0.071,0.157-0.107,0.293-0.107,0.406v0.129c0-0.086,0.028-0.129,0.086-0.129c0,0.114-0.05,0.222-0.149,0.321
		c-0.101,0.1-0.15,0.192-0.15,0.278l0.129,0.214v0.042c0,0.029-0.029,0.072-0.086,0.129c-0.058,0.058-0.085,0.114-0.085,0.171v0.086
		l0.128-0.129v0.043c0,0.114-0.021,0.214-0.064,0.3c-0.043,0.085-0.106,0.128-0.192,0.128c0,0.029,0.007,0.058,0.021,0.086
		c0.014,0.028,0.021,0.071,0.021,0.128c0,0.086-0.036,0.171-0.107,0.257s-0.106,0.2-0.106,0.342c0,0.058,0.014,0.094,0.043,0.107
		c0.027,0.015,0.043,0.036,0.043,0.064h-0.086c0,0.114-0.036,0.242-0.107,0.385s-0.106,0.271-0.106,0.385
		c-0.029,0.229-0.064,0.528-0.107,0.898c-0.042,0.371-0.063,0.699-0.063,0.984v0.299c0.027,0,0.042,0.021,0.042,0.064
		s0,0.079,0,0.107c-0.085,0-0.128,0.1-0.128,0.299c0,0.086,0.007,0.149,0.021,0.192c0.014,0.043,0.021,0.093,0.021,0.15
		c0,0.085-0.029,0.186-0.086,0.299c-0.058,0.114-0.085,0.2-0.085,0.257v0.129l0.171,0.299l-0.043,0.043l-0.128,1.24v0.386v0.042
		l-0.043,1.412c-0.058,0.628-0.086,1.112-0.086,1.454h0.557l0.171-0.042l0.471,0.042c0,0.058,0.07,0.086,0.214,0.086h-0.043
		c0.086,0.114,0.285,0.171,0.599,0.171l1.326-0.042c0.343,0,0.57,0.042,0.685,0.128s0.192,0.264,0.235,0.535
		c0.043,0.271,0.135,0.506,0.278,0.705c0.028,0.029,0.092,0.086,0.192,0.172c0.1,0.085,0.149,0.214,0.149,0.385
		c0,0.085-0.028,0.128-0.085,0.128h-0.257l-0.642-0.043c-0.144,0-0.293,0.079-0.449,0.235c-0.157,0.157-0.293,0.235-0.406,0.235
		h-0.343c0-0.085-0.085-0.113-0.257-0.085c-0.028,0-0.071,0.015-0.128,0.043c-0.058,0.028-0.114,0.042-0.171,0.042
		c-0.257,0-0.671-0.027-1.241-0.085l-1.283-0.043c-0.257,0-0.57,0.028-0.941,0.086c-0.428,0.057-0.756,0.085-0.983,0.085h-0.129
		l-0.214-0.043l-0.214,0.043v0.086h-0.256l-0.086-0.043c-0.171,0-0.371,0.043-0.599,0.128c-0.229,0.086-0.4,0.129-0.514,0.129
		l-0.171-0.086h-0.043l-0.171,0.171l-0.086-0.042v0.085c-0.456,0-0.812-0.128-1.069-0.385v-0.086l-0.086-0.214l0.129-0.214
		c0.085-0.027,0.206-0.171,0.363-0.428c0.156-0.257,0.264-0.385,0.321-0.385l0.042,0.171h0.043l0.257-0.214h0.043v-0.043
		c0.057-0.057,0.156-0.128,0.3-0.214c0.142-0.085,0.256-0.143,0.342-0.171v-0.043c0-0.085,0.1-0.149,0.3-0.192
		c0.199-0.043,0.355-0.064,0.47-0.064c-0.085-0.256-0.128-0.413-0.128-0.47v-0.257c0.37-1.284,0.642-2.581,0.812-3.894
		c-0.085-0.313-0.05-0.806,0.107-1.476c0.156-0.67,0.249-1.062,0.278-1.177c0-0.057,0.027-0.128,0.085-0.214
		c0.057-0.085,0.086-0.171,0.086-0.257v-0.042l-0.086,0.042v-0.042c0.057-0.028,0.107-0.079,0.15-0.15
		c0.042-0.07,0.063-0.135,0.063-0.192l-0.128-0.128c0.199-0.143,0.292-0.356,0.278-0.642c-0.015-0.285-0.021-0.456-0.021-0.514
		h0.085c0.028,0,0.058-0.121,0.086-0.363s0.086-0.378,0.171-0.407v0.172c0.057-0.114,0.086-0.229,0.086-0.343v-0.085l-0.086,0.042
		v-0.471v-0.085c0-0.086,0.028-0.129,0.086-0.129c0.028-0.142,0.085-0.52,0.171-1.133s0.214-0.92,0.385-0.92v-0.129h-0.085
		c0-0.085,0.014-0.206,0.042-0.363c0.028-0.156,0.058-0.278,0.086-0.363h0.086c0-0.058-0.021-0.107-0.064-0.15
		s-0.064-0.092-0.064-0.149c0-0.086,0.043-0.178,0.129-0.278c0.085-0.1,0.128-0.206,0.128-0.32h-0.128
		c0-0.086,0.057-0.221,0.171-0.406c0.113-0.186,0.171-0.307,0.171-0.364l-0.085-0.043v-0.171c0-0.086,0.049-0.192,0.149-0.32
		c0.1-0.129,0.164-0.25,0.192-0.364l0.128,0.043c0.028-0.028,0.043-0.113,0.043-0.257c0-0.028-0.007-0.049-0.021-0.064
		c-0.015-0.014-0.021-0.035-0.021-0.063v-0.086l0.086,0.086c0.143-0.257,0.214-0.428,0.214-0.514s-0.043-0.128-0.128-0.128v-0.386
		v-0.042v-0.043c0-0.086,0.027-0.15,0.085-0.192c0.057-0.043,0.086-0.093,0.086-0.15l0.085-0.428h0.086v-0.257l0.043-0.299
		l-0.043-0.171c-0.257,0-0.855,0.299-1.797,0.897l-0.983,0.6c0.057,0.058-0.015,0.085-0.214,0.085c-0.058,0-0.101,0-0.129,0
		s-0.043-0.014-0.043-0.042c-0.285,0.028-0.47,0.085-0.556,0.171h0.385c0,0.085-0.157,0.114-0.471,0.085
		c-0.143,0-0.285-0.027-0.428-0.085c-0.143-0.057-0.242-0.086-0.299-0.086c-0.114,0-0.271,0.058-0.471,0.171
		c-0.2,0.114-0.343,0.172-0.428,0.172c0-0.086,0.192-0.221,0.577-0.407c0.385-0.185,0.605-0.306,0.663-0.363l-0.086-0.043
		l0.086-0.085c0.37-0.143,0.72-0.37,1.048-0.685c0.328-0.313,0.549-0.514,0.663-0.599c0.057,0.028,0.143-0.028,0.257-0.172
		c0.113-0.143,0.186-0.199,0.214-0.171c0.114-0.086,0.257-0.192,0.428-0.32c0.171-0.129,0.328-0.235,0.471-0.321l0.086-0.128h0.043
		v-0.129h0.085c0.143-0.086,0.335-0.199,0.578-0.342c0.241-0.143,0.377-0.271,0.406-0.386l0.642-0.642
		c0.028,0.029,0.064,0.021,0.106-0.021c0.043-0.042,0.064-0.078,0.064-0.106l0.257,0.128v0.043l-0.129,0.043
		c0.485,0.171,0.87,0.257,1.155,0.257c0.171,0,0.35-0.028,0.535-0.086c0.185-0.057,0.363-0.085,0.534-0.085
		c0.257,0,0.407,0.021,0.449,0.063c0.043,0.043,0.086,0.129,0.129,0.257s0.063,0.207,0.063,0.235s0.028,0.071,0.086,0.128
		c0.057,0.058,0.086,0.114,0.086,0.172l-0.043,0.128v0.043c0,0.085,0.086,0.229,0.257,0.428c0.171,0.2,0.257,0.385,0.257,0.556
		v0.086C124.6,135.175,124.278,135.467,123.694,135.994z M113.962,157.513c0,0.043-0.015,0.064-0.043,0.064
		c-0.058,0-0.086-0.021-0.086-0.064s0.028-0.064,0.086-0.064C113.947,157.448,113.962,157.47,113.962,157.513z M117.17,149.427
		c0-0.042-0.015-0.063-0.042-0.063c-0.058,0-0.086,0.021-0.086,0.063c0,0.043,0.028,0.064,0.086,0.064
		C117.155,149.491,117.17,149.47,117.17,149.427z M117.427,148.314c0-0.042-0.015-0.063-0.043-0.063s-0.042,0.021-0.042,0.063
		c0,0.043,0.014,0.064,0.042,0.064S117.427,148.357,117.427,148.314z M117.897,146.625c0-0.028-0.015-0.043-0.043-0.043
		s-0.042,0.015-0.042,0.043s0.014,0.043,0.042,0.043S117.897,146.653,117.897,146.625z M117.854,145.171
		c0-0.028,0.015-0.043,0.043-0.043s0.043,0.015,0.043,0.043s-0.015,0.042-0.043,0.042S117.854,145.199,117.854,145.171z
		 M118.154,143.973c0,0.028-0.015,0.043-0.043,0.043v-0.086C118.14,143.93,118.154,143.944,118.154,143.973z M118.24,143.545
		c0,0.058-0.015,0.086-0.043,0.086c-0.029,0-0.043-0.028-0.043-0.086c0-0.057,0.014-0.086,0.043-0.086
		C118.226,143.459,118.24,143.488,118.24,143.545z M118.282,144.465c0-0.043-0.015-0.064-0.042-0.064
		c-0.029,0-0.043,0.021-0.043,0.064s0.014,0.064,0.043,0.064C118.268,144.529,118.282,144.508,118.282,144.465z M118.368,143.802
		c0-0.028-0.015-0.043-0.043-0.043s-0.043,0.015-0.043,0.043s0.015,0.043,0.043,0.043S118.368,143.83,118.368,143.802z
		 M118.496,143.588c0-0.057-0.028-0.086-0.085-0.086c-0.029,0-0.043,0.029-0.043,0.086c0,0.058,0.014,0.085,0.043,0.085
		C118.468,143.673,118.496,143.646,118.496,143.588z M118.582,143.01c0-0.042-0.015-0.063-0.043-0.063s-0.043,0.021-0.043,0.063
		c0,0.043,0.015,0.064,0.043,0.064S118.582,143.053,118.582,143.01z M118.625,142.86c0-0.028-0.015-0.043-0.043-0.043
		s-0.043,0.015-0.043,0.043c0,0.029,0.015,0.043,0.043,0.043S118.625,142.89,118.625,142.86z M118.71,142.197
		c0-0.043-0.015-0.064-0.042-0.064v0.129C118.695,142.262,118.71,142.24,118.71,142.197z M118.839,141.727
		c0-0.043-0.015-0.064-0.043-0.064c0.028,0,0.043-0.014,0.043-0.042s-0.015-0.043-0.043-0.043s-0.043,0.015-0.043,0.043
		s0.015,0.042,0.043,0.042c-0.028,0-0.043,0.021-0.043,0.064s0.015,0.064,0.043,0.064S118.839,141.77,118.839,141.727z
		 M118.882,141.448c0-0.027-0.015-0.042-0.043-0.042c-0.029,0-0.043,0.015-0.043,0.042c0,0.029,0.014,0.043,0.043,0.043
		C118.867,141.491,118.882,141.478,118.882,141.448z M119.053,141.063c0-0.028-0.015-0.043-0.043-0.043s-0.043,0.015-0.043,0.043
		c0,0.029,0.015,0.043,0.043,0.043S119.053,141.093,119.053,141.063z M119.096,140.636c0-0.028-0.015-0.043-0.043-0.043
		c-0.029,0-0.043,0.015-0.043,0.043c0,0.029,0.014,0.043,0.043,0.043C119.081,140.679,119.096,140.665,119.096,140.636z
		 M119.053,140.508c0,0.028,0.014,0.043,0.043,0.043c0.027,0,0.043-0.015,0.043-0.043s-0.016-0.043-0.043-0.043
		C119.066,140.465,119.053,140.479,119.053,140.508z M119.181,140.294c0-0.028-0.015-0.043-0.042-0.043
		c-0.029,0-0.043,0.015-0.043,0.043s0.014,0.042,0.043,0.042C119.166,140.336,119.181,140.322,119.181,140.294z M119.117,157.021
		c0.014,0,0.021-0.014,0.021-0.043c0-0.057-0.008-0.085-0.021-0.085c-0.015,0-0.021,0.028-0.021,0.085
		C119.096,157.007,119.103,157.021,119.117,157.021z M119.267,139.823c0-0.028-0.015-0.043-0.043-0.043v0.086
		c-0.028,0-0.043,0.021-0.043,0.063c0,0.043,0.015,0.064,0.043,0.064v-0.128C119.252,139.866,119.267,139.852,119.267,139.823z
		 M119.523,138.711c0,0.028,0.014,0.043,0.043,0.043c0.027,0,0.042-0.015,0.042-0.043s-0.015-0.043-0.042-0.043
		C119.537,138.668,119.523,138.683,119.523,138.711z M119.651,156.914c0-0.043-0.015-0.064-0.043-0.064s-0.042,0.021-0.042,0.064
		c0,0.042,0.014,0.063,0.042,0.063S119.651,156.956,119.651,156.914z M119.994,137.47c0-0.027-0.015-0.042-0.043-0.042
		c-0.029,0-0.043,0.015-0.043,0.042c0,0.029,0.014,0.043,0.043,0.043C119.979,137.513,119.994,137.499,119.994,137.47z
		 M119.994,148.251c0-0.028-0.015-0.043-0.043-0.043c-0.029,0-0.043,0.015-0.043,0.043s0.014,0.043,0.043,0.043
		C119.979,148.294,119.994,148.279,119.994,148.251z M120.036,137.256c0-0.027-0.015-0.042-0.042-0.042
		c-0.029,0-0.043,0.015-0.043,0.042c0,0.029,0.014,0.043,0.043,0.043C120.021,137.299,120.036,137.285,120.036,137.256z
		 M120.165,146.946c0-0.043,0.014-0.064,0.043-0.064c0.027,0,0.043,0.021,0.043,0.064c0,0.042-0.016,0.063-0.043,0.063
		C120.179,147.01,120.165,146.988,120.165,146.946z M120.636,143.887c0-0.027-0.015-0.042-0.043-0.042s-0.043,0.015-0.043,0.042
		c0,0.029,0.015,0.043,0.043,0.043S120.636,143.916,120.636,143.887z M120.85,142.903v-0.043h-0.043v0.043H120.85z M121.106,132.893
		c0-0.028-0.015-0.043-0.043-0.043c-0.029,0-0.043,0.015-0.043,0.043c0,0.029,0.014,0.043,0.043,0.043
		C121.092,132.936,121.106,132.922,121.106,132.893z M121.448,140.593c0-0.027,0.014-0.042,0.043-0.042v0.085
		C121.462,140.636,121.448,140.622,121.448,140.593z M121.619,139.588c0,0.043,0.015,0.064,0.043,0.064
		c0.057,0,0.086-0.021,0.086-0.064s-0.029-0.064-0.086-0.064C121.634,139.523,121.619,139.545,121.619,139.588z M122.005,138.561
		c0-0.042-0.015-0.063-0.043-0.063c0.057,0,0.085-0.021,0.085-0.064s-0.028-0.064-0.085-0.064c-0.029,0-0.043,0.021-0.043,0.064
		s0.014,0.064,0.043,0.064c-0.029,0-0.043,0.021-0.043,0.063c0,0.043,0.014,0.064,0.043,0.064
		C121.99,138.625,122.005,138.604,122.005,138.561z M122.111,157.149c0.043,0,0.064,0.015,0.064,0.042
		c0,0.029-0.021,0.043-0.064,0.043s-0.064-0.014-0.064-0.043C122.047,157.164,122.068,157.149,122.111,157.149z M122.475,137.812
		c0-0.028-0.015-0.043-0.042-0.043c-0.029,0-0.043,0.015-0.043,0.043s0.014,0.043,0.043,0.043
		C122.46,137.855,122.475,137.841,122.475,137.812z M122.518,137.363c0-0.043-0.015-0.064-0.043-0.064s-0.042,0.021-0.042,0.064
		s0.014,0.064,0.042,0.064S122.518,137.406,122.518,137.363z M122.945,137.106c0-0.043,0.015-0.064,0.043-0.064
		s0.043,0.021,0.043,0.064s-0.015,0.064-0.043,0.064S122.945,137.149,122.945,137.106z M123.801,154.882
		c0-0.028,0.015-0.043,0.043-0.043s0.043,0.015,0.043,0.043s-0.015,0.043-0.043,0.043S123.801,154.91,123.801,154.882z"/>
	<path d="M147.415,150.219c0.228,0.399,0.342,0.699,0.342,0.898c0,0.058-0.042,0.136-0.128,0.235s-0.157,0.121-0.214,0.063
		c-0.058,0.058-0.3,0.321-0.728,0.792s-0.67,0.678-0.727,0.62l-0.343,0.3h-0.085l-0.257,0.342c-1.284,0.97-2.04,1.497-2.268,1.583
		c-0.742,0.571-1.79,1.034-3.145,1.391s-2.56,0.534-3.615,0.534l-0.171-0.128c-0.428-0.057-1.17-0.242-2.225-0.557
		c0,0.058-0.028,0.086-0.085,0.086c-0.114,0-0.2-0.028-0.257-0.086l0.085-0.128c-0.256-0.171-0.57-0.313-0.94-0.428
		c-0.058,0-0.136-0.064-0.235-0.192c-0.101-0.129-0.192-0.207-0.278-0.235l-0.128,0.043c-0.114,0-0.187-0.064-0.214-0.192
		c-0.029-0.129-0.086-0.193-0.172-0.193c-0.085,0-0.128,0.015-0.128,0.043c-0.029,0-0.144-0.1-0.343-0.299l0.086-0.129
		c-0.058-0.057-0.35-0.428-0.877-1.112c-0.528-0.685-0.777-1.055-0.749-1.112l-0.428-0.898c-0.085,0-0.128-0.057-0.128-0.171h0.043
		c0-0.257-0.015-0.478-0.043-0.663c-0.029-0.186-0.058-0.335-0.086-0.449c-0.143-0.57-0.214-0.984-0.214-1.24l0.129-0.086
		l0.085-0.342v-0.043v-0.086l-0.085-0.128l0.128-0.214v-0.043l-0.043-0.043l0.043-0.128l0.043,0.085
		c0.028-0.171,0.064-0.342,0.106-0.513c0.043-0.172,0.05-0.328,0.021-0.471c0.229-0.143,0.285-0.356,0.172-0.642l0.085,0.085
		c0-0.057,0.015-0.1,0.043-0.128s0.043-0.071,0.043-0.129h-0.086c0-0.085,0.143-0.435,0.428-1.048s0.456-0.934,0.514-0.963
		l-0.043-0.128v-0.043c0-0.028,0.014-0.057,0.043-0.085c0-0.086,0.014-0.129,0.043-0.129l0.043,0.043l0.042-0.043h-0.042
		c-0.029,0-0.043-0.014-0.043-0.043c0-0.027,0.014-0.042,0.043-0.042c0.027,0,0.049,0.007,0.063,0.021
		c0.015,0.016,0.007,0.021-0.021,0.021c0.086-0.142,0.186-0.32,0.3-0.534c0.113-0.214,0.228-0.349,0.342-0.406h-0.128
		c0-0.114,0.113-0.257,0.342-0.428c0.229-0.172,0.343-0.328,0.343-0.471h-0.086c0-0.086,0.015-0.15,0.043-0.192
		c0.028-0.043,0.071-0.064,0.129-0.064c0.057,0,0.085,0.028,0.085,0.085c0.028-0.085,0.107-0.198,0.235-0.342
		c0.129-0.143,0.221-0.242,0.278-0.3h-0.129c0.058,0,0.1-0.021,0.129-0.063c0.028-0.043,0.043-0.078,0.043-0.107l0.042-0.171h0.129
		c0.028,0,0.057,0.015,0.085,0.043s0.071,0.043,0.129,0.043c-0.058-0.114-0.058-0.172,0-0.172c0.057,0,0.113,0,0.171,0
		c0-0.142,0.028-0.241,0.086-0.299c0.057-0.058,0.156-0.086,0.299-0.086c0-0.113,0.028-0.186,0.086-0.214
		c0,0.028,0.014,0.043,0.043,0.043c0.028,0,0.043-0.015,0.043-0.043s-0.015-0.071-0.043-0.128c0.143,0,0.257-0.028,0.342-0.086
		l-0.085-0.043l0.042-0.043l-0.085-0.128h-0.086l-0.043,0.171h-0.042l-0.172-0.043c0.086-0.027,0.172-0.106,0.257-0.235
		c0.086-0.128,0.143-0.206,0.171-0.235l0.043,0.086c0.143-0.057,0.186-0.1,0.129-0.128l0.214,0.042c0.027,0,0.113-0.027,0.257-0.085
		l-0.043-0.043c0.143-0.143,0.242-0.257,0.299-0.342l0.172,0.085v-0.085h0.085c0.028-0.028,0.057-0.05,0.086-0.064
		c0.028-0.014,0.043-0.035,0.043-0.064l-0.086-0.085h0.086c0-0.086,0.07-0.193,0.214-0.321c0.142-0.128,0.214-0.249,0.214-0.363
		l0.299-0.043v-0.043h0.086c0-0.057,0.028-0.1,0.086-0.128c-0.086,0-0.129-0.043-0.129-0.129c0-0.057,0.015-0.085,0.043-0.085
		l0.128,0.042l0.043,0.043h0.043c0.086,0,0.128-0.085,0.128-0.257c0.086-0.027,0.179-0.078,0.278-0.149
		c0.1-0.07,0.164-0.135,0.192-0.192v-0.043l-0.042-0.128c0-0.086,0.042-0.129,0.128-0.129c0.057,0,0.1,0.021,0.128,0.064
		s0.058,0.064,0.086,0.064h0.128c-0.114-0.028-0.171-0.114-0.171-0.257c0.114,0,0.199,0.071,0.257,0.214
		c0-0.113,0.064-0.214,0.192-0.3c0.129-0.085,0.192-0.185,0.192-0.299l-0.085-0.043c0.085-0.114,0.228-0.164,0.428-0.15
		c0.199,0.016,0.327,0.021,0.385,0.021v-0.256h0.171l0.984-0.514h0.043l0.299-0.171c0.114-0.028,0.35-0.114,0.706-0.257
		s0.535-0.229,0.535-0.257h2.823c0.428,0,0.841,0.229,1.24,0.685s0.6,0.898,0.6,1.326c0,0.085-0.016,0.143-0.043,0.171
		c-0.029,0.029-0.058,0.043-0.086,0.043s-0.043,0.043-0.043,0.128h0.043c0-0.057,0.014-0.085,0.043-0.085
		c0.028,0,0.043,0.021,0.043,0.063c0,0.043-0.015,0.064-0.043,0.064l-0.043,0.043h-0.043l-0.085,0.043
		c0-0.114-0.008-0.156-0.021-0.129c-0.015,0.029-0.051,0.043-0.107,0.043l-0.085,0.043l0.085,0.128
		c-0.143,0.172-0.271,0.257-0.385,0.257c-0.229,0-0.399-0.07-0.514-0.214c-0.114-0.143-0.235-0.37-0.363-0.685
		c-0.128-0.313-0.25-0.471-0.363-0.471h-0.6c-0.285,0-0.642,0.072-1.069,0.214c-0.428,0.144-0.799,0.3-1.112,0.471v0.086
		l0.043,0.043c-0.028,0.028-0.164,0.071-0.406,0.128c-0.243,0.058-0.379,0.114-0.406,0.171v0.129v0.043l-0.086,0.085h-0.043
		l-0.214-0.043c0.114,0.086,0.043,0.129-0.214,0.129v0.085c-0.171,0-0.35,0.064-0.534,0.193c-0.187,0.128-0.321,0.277-0.407,0.449
		h0.172c-0.029,0.028-0.051,0.071-0.064,0.128c-0.015,0.058-0.064,0.086-0.149,0.086c-0.029,0-0.051-0.015-0.064-0.043
		c-0.015-0.028-0.036-0.057-0.064-0.086c-0.257,0.171-0.428,0.3-0.513,0.385c0.057,0.144-0.043,0.278-0.3,0.407
		c-0.257,0.128-0.471,0.25-0.642,0.363c-0.171,0.114-0.257,0.242-0.257,0.385c0,0.086,0.028,0.129,0.086,0.129h-0.086h-0.128
		l-0.343,0.342v0.043v0.043l0.086,0.085c0,0.058-0.029,0.114-0.086,0.172c-0.058,0.057-0.128,0.085-0.214,0.085l-0.043-0.085
		c-0.114,0.028-0.214,0.106-0.299,0.234c-0.086,0.129-0.129,0.235-0.129,0.321c0.028,0,0.057-0.014,0.086-0.043
		c0.028-0.028,0.057-0.043,0.085-0.043c0,0.058-0.057,0.114-0.171,0.172l-0.085-0.043h-0.043v0.085h0.043l0.085,0.086
		c0,0.058-0.05,0.136-0.149,0.235c-0.101,0.101-0.192,0.192-0.278,0.278c0-0.086-0.043-0.129-0.128-0.129
		c-0.086,0-0.129,0.101-0.129,0.3h0.129c0,0.086-0.072,0.186-0.214,0.3c0-0.114-0.043-0.172-0.129-0.172
		c-0.058,0-0.085,0.086-0.085,0.257h0.085c0,0.144-0.093,0.336-0.278,0.578s-0.277,0.406-0.277,0.491h-0.086
		c0,0.144-0.079,0.328-0.235,0.557c-0.157,0.229-0.235,0.414-0.235,0.556h-0.043l-0.085,0.257l-0.257,0.471
		c-0.028,0.058-0.122,0.314-0.278,0.771c-0.157,0.456-0.264,0.656-0.32,0.599c-0.144,0.314-0.243,0.699-0.3,1.155l-0.086,0.171
		h-0.085c0,0.171-0.036,0.371-0.107,0.599c-0.071,0.229-0.063,0.428,0.021,0.599c-0.058,0.029-0.1,0.064-0.128,0.107
		c-0.029,0.043-0.043,0.079-0.043,0.106l0.086,0.257c0,0.058-0.021,0.144-0.064,0.257c-0.043,0.114-0.064,0.214-0.064,0.3v0.171
		l0.043,0.171l-0.043,0.3v0.128c0,0.828,0.378,1.604,1.134,2.332c0.755,0.728,1.575,1.091,2.46,1.091v-0.043
		c0.028,0,0.07,0.015,0.128,0.043s0.129,0.043,0.214,0.043h0.043l-0.085-0.043c0.142-0.028,0.284-0.064,0.428-0.107
		c0.142-0.042,0.271-0.078,0.385-0.106l0.128-0.171h0.214c0.172,0,0.699-0.214,1.583-0.642l1.455-0.941
		c0.741-0.542,1.154-0.884,1.24-1.027c-0.086,0-0.128-0.07-0.128-0.214c0.228,0,0.398-0.027,0.513-0.085
		c0.114-0.057,0.257-0.186,0.428-0.385l-0.128-0.086l0.128-0.129v-0.085l-0.042-0.043h0.042c0.058,0,0.121-0.021,0.192-0.064
		c0.071-0.042,0.121-0.078,0.15-0.106l0.085,0.085l0.685-0.642c0.028-0.027,0.071-0.156,0.129-0.385
		c0.057-0.228,0.128-0.342,0.214-0.342l0.128-0.172l0.086,0.043h0.043l0.171-0.043h0.043l0.128,0.086l-0.043,0.086l0.813,0.256
		h1.154c0.086,0,0.172-0.027,0.257-0.085c0.086-0.057,0.171-0.086,0.257-0.086s0.186,0.043,0.3,0.129
		c0.113,0.085,0.199,0.128,0.257,0.128C147.073,149.506,147.187,149.819,147.415,150.219z M129.319,147.16
		c0-0.043-0.029-0.064-0.086-0.064c-0.028,0-0.043,0.021-0.043,0.064c0,0.042,0.015,0.063,0.043,0.063
		C129.29,147.224,129.319,147.202,129.319,147.16z M130.517,143.48c0-0.014,0.015-0.021,0.043-0.021v0.043
		C130.531,143.502,130.517,143.495,130.517,143.48z M131.501,154.839h0.043l-0.172-0.086v0.043
		C131.372,154.825,131.415,154.839,131.501,154.839z M132.143,141.513c0,0.043,0.014,0.064,0.043,0.064
		c0.028,0,0.049-0.007,0.064-0.021c0.014-0.014,0.006-0.035-0.021-0.064h0.042v-0.085c-0.028,0-0.05,0.007-0.063,0.021
		c-0.015,0.015-0.008,0.021,0.021,0.021h-0.043C132.156,141.448,132.143,141.47,132.143,141.513z M132.378,141.192
		c-0.015,0-0.021,0.015-0.021,0.042c0,0.058,0.007,0.086,0.021,0.086c0.014,0,0.021-0.028,0.021-0.086
		C132.399,141.207,132.392,141.192,132.378,141.192z M132.399,141.149c0,0.028,0.014,0.043,0.043,0.043
		c0.027,0,0.042-0.015,0.042-0.043s-0.015-0.043-0.042-0.043C132.413,141.106,132.399,141.121,132.399,141.149z M132.399,141.448
		c0,0.029,0.014,0.043,0.043,0.043c0.027,0,0.042-0.014,0.042-0.043c0-0.027-0.015-0.042-0.042-0.042
		C132.413,141.406,132.399,141.421,132.399,141.448z M132.698,140.828c0,0.043,0.015,0.064,0.043,0.064s0.043-0.021,0.043-0.064
		s-0.015-0.063-0.043-0.063S132.698,140.785,132.698,140.828z M133.127,140.379c0,0.058,0.014,0.086,0.042,0.086
		s0.043-0.028,0.043-0.086c0-0.057-0.015-0.085-0.043-0.085S133.127,140.322,133.127,140.379z M133.426,139.908
		c0.028-0.027,0.057-0.042,0.086-0.042l-0.043,0.128C133.411,139.966,133.397,139.938,133.426,139.908z M133.769,139.396
		c0,0.058,0.014,0.085,0.042,0.085s0.043-0.027,0.043-0.085c0-0.057-0.015-0.086-0.043-0.086S133.769,139.339,133.769,139.396z
		 M133.832,139.609c0.015,0,0.021-0.015,0.021-0.043s-0.007-0.043-0.021-0.043s-0.021,0.015-0.021,0.043
		S133.817,139.609,133.832,139.609z M134.024,143.331c0,0.028,0.015,0.043,0.043,0.043s0.043-0.015,0.043-0.043
		s-0.015-0.043-0.043-0.043S134.024,143.303,134.024,143.331z M134.881,142.069c0,0.042,0.014,0.063,0.042,0.063
		s0.043-0.021,0.043-0.063c0-0.043-0.015-0.064-0.043-0.064S134.881,142.026,134.881,142.069z M135.18,141.62
		c0,0.028,0.015,0.042,0.043,0.042c0.057,0,0.086-0.014,0.086-0.042s-0.029-0.043-0.086-0.043
		C135.194,141.577,135.18,141.592,135.18,141.62z M135.437,141.448l-0.085,0.043h-0.043l0.128-0.085V141.448z M135.821,140.828
		c0-0.043,0.015-0.063,0.043-0.063s0.043,0.021,0.043,0.063s-0.015,0.064-0.043,0.064S135.821,140.871,135.821,140.828z
		 M136.292,137.556c0,0.058,0.015,0.086,0.043,0.086s0.043-0.043,0.043-0.129c0.028,0,0.043-0.014,0.043-0.043
		c0-0.027-0.015-0.042-0.043-0.042l-0.043,0.042C136.307,137.47,136.292,137.499,136.292,137.556z M136.335,137.47l0.043,0.043
		L136.335,137.47z M136.506,136.807c0-0.042,0.015-0.063,0.043-0.063s0.043,0.021,0.043,0.063c0,0.043-0.015,0.064-0.043,0.064
		S136.506,136.85,136.506,136.807z M136.549,140.251c0-0.028,0.014-0.043,0.043-0.043c0.057,0,0.086,0.015,0.086,0.043
		s-0.029,0.043-0.086,0.043C136.562,140.294,136.549,140.279,136.549,140.251z M136.678,140.187c0-0.043,0.014-0.064,0.042-0.064
		c0.057,0,0.086,0.021,0.086,0.064s-0.029,0.064-0.086,0.064C136.691,140.251,136.678,140.229,136.678,140.187z M137.147,139.652
		v0.042h-0.171C136.977,139.667,137.033,139.652,137.147,139.652z M137.062,136.914c0,0.028,0.028,0.043,0.085,0.043
		c0.028,0,0.043-0.015,0.043-0.043s-0.015-0.043-0.043-0.043C137.091,136.871,137.062,136.886,137.062,136.914z M137.875,136.016
		c-0.028,0-0.043,0.015-0.043,0.043s0.015,0.043,0.043,0.043s0.043-0.015,0.043-0.043S137.903,136.016,137.875,136.016z
		 M138.132,138.625c0-0.028,0.014-0.043,0.043-0.043c0.027,0,0.043,0.015,0.043,0.043c0,0.029-0.016,0.043-0.043,0.043
		C138.146,138.668,138.132,138.654,138.132,138.625z M138.646,138.283v-0.086h0.042L138.646,138.283z M138.859,137.983
		c0-0.028,0.014-0.043,0.042-0.043c0.058,0,0.086,0.015,0.086,0.043c0,0.029-0.028,0.043-0.086,0.043
		C138.873,138.026,138.859,138.013,138.859,137.983z M139.33,137.684c0-0.027,0.014-0.042,0.042-0.042
		c0.058,0,0.086,0.015,0.086,0.042c0,0.029-0.028,0.043-0.086,0.043C139.344,137.727,139.33,137.713,139.33,137.684z
		 M140.014,137.192c0,0.015,0.015,0.021,0.043,0.021s0.043-0.007,0.043-0.021s-0.015-0.021-0.043-0.021
		S140.014,137.178,140.014,137.192z M141.298,151.353c0,0.043,0.014,0.063,0.042,0.063v-0.128
		C141.312,151.288,141.298,151.31,141.298,151.353z M141.982,134.39l-0.086-0.085h0.385v0.085H141.982z M142.281,150.582
		c0-0.043-0.015-0.064-0.043-0.064s-0.042,0.021-0.042,0.064s0.014,0.064,0.042,0.064S142.281,150.625,142.281,150.582z
		 M143.501,149.021c-0.015,0-0.021,0.015-0.021,0.043l0.128,0.086v-0.129C143.55,149.021,143.515,149.021,143.501,149.021z
		 M143.736,148.978c0-0.027-0.015-0.042-0.043-0.042c-0.029,0-0.043,0.015-0.043,0.042c0,0.029,0.014,0.043,0.043,0.043
		C143.722,149.021,143.736,149.007,143.736,148.978z"/>
</g>
<g>
</g>
<g>
</g>
<g>
</g>
<g>
</g>
<g>
</g>
<g>
</g>
<g>
</g>
<g>
</g>
<g>
</g>
<g>
</g>
<g>
</g>
</svg>
