<?xml version="1.0" encoding="utf-8"?>
<!-- Generator: Adobe Illustrator 27.1.1, SVG Export Plug-In . SVG Version: 6.00 Build 0)  -->
<svg version="1.1" id="图层_1" xmlns="http://www.w3.org/2000/svg" xmlns:xlink="http://www.w3.org/1999/xlink" x="0px" y="0px"
	 viewBox="0 0 192 192" enable-background="new 0 0 192 192" xml:space="preserve">
<g>
	<rect x="109.095" y="112.49" width="7.76" height="7.76"/>
	<rect x="122.19" y="112.49" width="7.76" height="7.76"/>
	<rect x="96" y="112.49" width="7.76" height="7.76"/>
	<path d="M96,18.4c-42.857,0-77.6,34.743-77.6,77.6c0,42.857,34.743,77.6,77.6,77.6s77.6-34.743,77.6-77.6
		C173.6,53.143,138.857,18.4,96,18.4z M138.195,117.825c0,6.402-5.238,11.64-11.64,11.64h-61.11c-6.402,0-11.64-5.238-11.64-11.64
		v-28.13h84.39V117.825z M138.195,81.935h-84.39v-7.76c0-6.402,5.238-11.64,11.64-11.64h61.11c6.402,0,11.64,5.238,11.64,11.64
		V81.935z"/>
</g>
<g>
</g>
<g>
</g>
<g>
</g>
<g>
</g>
<g>
</g>
<g>
</g>
<g>
</g>
<g>
</g>
<g>
</g>
<g>
</g>
<g>
</g>
</svg>
