<?xml version="1.0" encoding="utf-8"?>
<!-- Generator: Adobe Illustrator 27.1.1, SVG Export Plug-In . SVG Version: 6.00 Build 0)  -->
<svg version="1.1" id="图层_1" xmlns="http://www.w3.org/2000/svg" xmlns:xlink="http://www.w3.org/1999/xlink" x="0px" y="0px"
	 viewBox="0 0 192 192" enable-background="new 0 0 192 192" xml:space="preserve">
<g>
	<g>
		<defs>
			<rect id="SVGID_1_" x="18.403" y="18.403" width="155.194" height="155.194"/>
		</defs>
		<clipPath id="SVGID_00000145757351175142938580000018136841688238326434_">
			<use xlink:href="#SVGID_1_"  overflow="visible"/>
		</clipPath>
		<g clip-path="url(#SVGID_00000145757351175142938580000018136841688238326434_)">
			<defs>
				
					<rect id="SVGID_00000114765847283959177120000005234470422540168623_" x="18.403" y="18.403" width="155.194" height="155.194"/>
			</defs>
			<clipPath id="SVGID_00000001648990806939343110000001918686558978174905_">
				<use xlink:href="#SVGID_00000114765847283959177120000005234470422540168623_"  overflow="visible"/>
			</clipPath>
			<path clip-path="url(#SVGID_00000001648990806939343110000001918686558978174905_)" fill="#FFFFFF" d="M49.086,18.403h82.996
				c-3.791,1.56-7.824,3.217-10.435,6.531c2.344,4.187,6.555,6.871,9.392,10.702c-7.913,1.843-15.778,4.187-22.98,8.043
				C101.715,38.7,96.202,32.767,90.52,27.06c-0.307-0.841-0.614-1.681-0.913-2.522c-11.607-0.493-23.222,0.008-34.822-0.267
				c-2.756,0.024-5.585-0.259-8.269,0.485c-1.172,0.226-1.099,1.697-1.326,2.587c-0.315,2.166-0.331,4.357-0.388,6.539
				c-0.299-2.045-0.501-4.122-1.043-6.119c-4.203-0.768-8.503-0.598-12.739-1.091C36.121,22.251,42.547,19.769,49.086,18.403"/>
			<path clip-path="url(#SVGID_00000001648990806939343110000001918686558978174905_)" fill="#FFFFFF" d="M21.838,38.215
				c1.342,7.065,0.622,14.275,0.744,21.412c0.129,8.932-0.267,17.872,0.267,26.803c0.509,0.17,1.52,0.525,2.029,0.703
				c5.715,3.565,9.983,8.875,14.646,13.636c-5.173,0.234-10.5-0.582-15.552,0.808c-0.857,2.627-0.8,5.432-0.784,8.164
				c0.21,11.583-0.032,23.174,0.145,34.757c0.065,3.662-0.17,7.331-0.736,10.952c-2.142-3.791-3.427-7.978-4.195-12.246V48.803
				C19.163,45.166,20.133,41.537,21.838,38.215"/>
			<path clip-path="url(#SVGID_00000001648990806939343110000001918686558978174905_)" fill="#FFFFFF" d="M132.083,18.403h4.09
				c-4.583,1.843-9.514,3.411-12.957,7.162c3.266,2.772,5.868,6.369,9.546,8.616c3.848,0.946,7.832-0.194,11.696-0.533
				c-1.617-5.092-3.419-10.12-4.914-15.245h1.374c2.029,5.02,3.492,10.241,5.464,15.277c2.441-3.88,4.575-7.962,5.812-12.391
				c0.558,0.242,1.115,0.501,1.673,0.768c-1.212,3.823-1.487,7.841-1.398,11.825c4.227,0.558,8.471,1.059,12.715,1.495
				c-0.113-1.6-0.234-3.209-0.356-4.809c2.861,3.015,4.923,6.685,6.475,10.524c-4.793-1.843-9.683-3.435-14.703-4.51
				c-0.671,0.711-1.342,1.423-2.013,2.134c0.065-0.525,0.194-1.576,0.259-2.11c-1.649-0.032-3.298-0.073-4.947-0.105
				c-0.097,0.736-0.291,2.19-0.388,2.926c-0.113-1.035-0.218-2.069-0.323-3.096c-18.389-0.938-36.268,5.626-51.869,14.897
				c2.053-4.211,7.024-5.294,10.742-7.55c7.202-3.856,15.067-6.2,22.98-8.043c-2.837-3.831-7.048-6.515-9.392-10.702
				C124.258,21.62,128.292,19.963,132.083,18.403 M147.634,34.157c1.01-0.162,2.013-0.356,3.007-0.582
				c0.194-1.479,0.194-2.975,0.242-4.454C149.259,30.414,148.208,32.185,147.634,34.157"/>
			<path clip-path="url(#SVGID_00000001648990806939343110000001918686558978174905_)" d="M136.173,18.403h2.336
				c-4.68,3.177-9.692,6.014-15.293,7.162C126.659,21.814,131.589,20.246,136.173,18.403"/>
			<path clip-path="url(#SVGID_00000001648990806939343110000001918686558978174905_)" d="M138.509,18.403h1.035
				c1.495,5.125,3.298,10.152,4.914,15.245c-3.864,0.339-7.849,1.479-11.696,0.533c-3.678-2.247-6.28-5.844-9.546-8.616
				C128.817,24.417,133.828,21.58,138.509,18.403"/>
			<path clip-path="url(#SVGID_00000001648990806939343110000001918686558978174905_)" d="M152.468,33.882
				c-0.089-3.985,0.186-8.002,1.398-11.825c4.171,2.085,7.849,5.052,10.961,8.511c0.121,1.6,0.242,3.209,0.356,4.809
				C160.939,34.941,156.695,34.44,152.468,33.882"/>
			<path clip-path="url(#SVGID_00000001648990806939343110000001918686558978174905_)" d="M57.096,81.976
				c2.433,3.33,5.618,6.248,7.113,10.16c0.016,4.276-1.552,8.39-2.32,12.569c-5.61-2.991-11.017-6.361-16.142-10.12l0.59-0.307
				C51.689,92.185,55.189,87.214,57.096,81.976"/>
			<path clip-path="url(#SVGID_00000001648990806939343110000001918686558978174905_)" d="M40.122,106.371
				c7.105,0.291,14.226,0.736,21.242,1.932c-0.113,2.239-0.186,4.486-0.202,6.741c-7.372,2.296-14.113,6.143-21.323,8.835
				c0.016-0.865,0.057-1.738,0.105-2.595C40.793,116.345,40.971,111.325,40.122,106.371"/>
			<path clip-path="url(#SVGID_00000001648990806939343110000001918686558978174905_)" fill="#FFFFFF" d="M151.829,165.336
				c6.192-6.305,12.763-12.44,20.41-16.95c-0.404,1.301-0.881,2.578-1.423,3.831c-1.431,0.388-3.055,0.461-4.268,1.39
				c-1.681,1.479,0.105,3.565,0.525,5.214c-3.298,4.664-7.744,8.471-12.779,11.138C153.47,168.424,152.654,166.88,151.829,165.336"
				/>
			<path clip-path="url(#SVGID_00000001648990806939343110000001918686558978174905_)" d="M140.917,18.403h0.727
				c3.589,0.639,7.21,1.35,10.548,2.886c-1.237,4.429-3.371,8.511-5.812,12.391C144.409,28.644,142.946,23.423,140.917,18.403"/>
			<path clip-path="url(#SVGID_00000001648990806939343110000001918686558978174905_)" fill="#FFFFFF" d="M46.516,24.756
				c2.684-0.744,5.513-0.461,8.269-0.485c11.599,0.275,23.214-0.226,34.822,0.267c0.299,0.841,0.606,1.681,0.913,2.522
				c0.04,1.091,0.057,2.182,0.049,3.282c-0.299,6.256,0.234,12.529-0.194,18.785c0.218,2.441-2.425,3.088-4.001,4.276
				c1.778,0.671,3.548,1.35,5.302,2.069c-10.952,9.223-21.371,20.434-24.702,34.797c-0.218,1.091-0.372,2.199-0.574,3.298
				c-1.932,5.1-2.514,10.573-2.312,15.996l-0.008,0.744c-1.083,7.339-0.711,14.76-0.202,22.131
				c0.162,6.806,2.417,13.313,3.072,20.054c1.14,6.976,2.336,14.016,1.714,21.105h-1.544c0.154-8.366-1.018-16.691-2.837-24.839
				c-1.212-4.995-0.784-10.193-1.851-15.212c-0.404-2.336-1.075-4.64-1.269-7.016c-0.057-3.322,0.509-6.612,0.606-9.926
				c-5.642,3.055-8.544,9.255-9.772,15.285c-1.406,7.283-0.841,14.743-0.719,22.107c-0.299,0.954-0.639,1.891-0.962,2.837
				c-0.251-3.904-0.485-7.816-0.873-11.704c-0.299,4.785-0.315,9.586-0.073,14.372c-3.451,0.234-6.935,0.21-10.306-0.663
				c-0.533-1.253-1.075-2.498-1.617-3.742c-0.396,0.049-1.196,0.137-1.592,0.186c-0.744,1.487-1.487,2.975-2.223,4.462
				c-2.522,0.267-5.044,0.55-7.558,0.865c-1.285-1.633-2.449-3.354-3.476-5.157c0.566-3.621,0.8-7.291,0.736-10.952
				c-0.178-11.583,0.065-23.174-0.145-34.757c-0.016-2.732-0.073-5.537,0.784-8.164c5.052-1.39,10.379-0.574,15.552-0.808
				c3.08,0.024,6.167,0.178,9.247,0.372c0.234,0.889,0.469,1.77,0.703,2.659c-0.582-0.137-1.738-0.404-2.32-0.542
				c-7.25-1.164-14.679-0.178-22.002-0.509c0.008,18.324,0.04,36.656-0.016,54.981c2.36,0.024,4.729,0.04,7.089,0.057
				c0.065-1.908,0.121-3.807,0.178-5.707c2.562,0.016,5.125,0.016,7.687-0.016c0.089,1.851,0.186,3.694,0.275,5.545
				c2.417,0.008,4.834,0.008,7.25-0.008c0.04-11.559,0.113-23.109-0.04-34.668c-2.417,1.043-4.817,2.118-7.242,3.152
				c-0.194,6.248-0.032,12.496-0.121,18.745c-2.635-0.008-5.27-0.016-7.905-0.024c0.016-11.631,0.04-23.263-0.008-34.894
				c1.075-0.081,2.142-0.154,3.217-0.234c-0.63,3.201-0.784,6.474-0.784,9.732c0,7.703-0.097,15.414,0.121,23.125
				c1.229,0.154,2.465,0.307,3.694,0.461c-0.024-7.55,0.938-15.212-0.736-22.665c-1.196-5.141-1.697-10.451-1.156-15.721
				l0.137-0.792c3.742,0.194,7.485,0.517,11.227,0.76c4.203,1.002,8.503,1.471,12.812,1.746
				c-5.319-3.993-11.381-6.895-16.449-11.243c1.673-2.975,3.387-5.925,5.076-8.891c-1.293-1.665-3.354-3.193-3.209-5.537
				c-0.04-1.98,0.679-4.607,3.039-4.801c4.268-0.59,8.608-0.339,12.909-0.436c-5.876-0.339-11.761-0.234-17.645-0.234
				c0.008,3.354,0.396,6.782-0.428,10.063c-0.445,1.366-1.9,1.188-3.039,1.204c-2.19-0.008-4.349-0.356-6.507-0.663
				c-0.711,0.913-1.423,1.827-2.134,2.74c-2.53-0.388-5.076-0.776-7.566-1.39c-0.509-0.178-1.52-0.533-2.029-0.703
				c-0.533-8.932-0.137-17.872-0.267-26.803c-0.121-7.137,0.598-14.347-0.744-21.412c0.808-1.609,1.754-3.136,2.764-4.623
				c-0.024,17.273-0.073,34.547,0.024,51.812c1.988,0,3.985,0.008,5.981,0.016c0.04-2.296,0.081-4.591,0.137-6.879
				c1.964,0.008,3.92,0.016,5.876,0.016c0.065,1.972,0.129,3.945,0.202,5.917c1.916,0.008,3.831,0.016,5.747,0.024
				c0.065-18.445,0.065-36.899,0-55.344c-4.656,0.04-9.312,0.129-13.959-0.194c0.784-0.784,1.576-1.56,2.409-2.287
				c4.235,0.493,8.536,0.323,12.739,1.091c0.542,1.997,0.744,4.074,1.043,6.119c0.057-2.182,0.073-4.373,0.388-6.539
				C45.417,26.454,45.344,24.983,46.516,24.756 M46.96,26.389c0.04,8.026,0.065,16.053-0.016,24.079
				c1.633,0.04,3.266,0.081,4.89,0.129c-0.04,1.835-0.065,3.678-0.073,5.513c-2.126,0-4.244,0.008-6.369,0.024
				c-0.016,1.956-0.016,3.92,0,5.876c2.142,0,4.284,0.008,6.426,0.024c0.008,1.859,0,3.718-0.016,5.577
				c-1.956,0.081-3.912,0.162-5.86,0.234c0,1.665,0,3.33-0.008,4.995c6.2,0.113,12.399,0.081,18.607,0.032
				c0.049,1.617,0.081,3.233,0.113,4.85c-5.286,0.097-10.573,0.105-15.859,0.016c0.073,2.118,0.113,4.235,0.178,6.353
				c3.031-1.043,5.351-3.338,7.784-5.319c1.326,1.544,2.619,3.12,3.896,4.704c1.285,0.04,2.57,0.089,3.856,0.146
				c0.105,2.053,0.21,4.114,0.38,6.175c1.924-4.761,4.583-9.198,6.167-14.089c0.849-3.128,3.686-5.052,5.505-7.582
				c-1.859-0.21-3.718-0.445-5.561-0.744c0.202-1.996,0.396-4.001,0.833-5.957c-4.874-4.858-5.868-12.222-5.036-18.769
				c0.55-4.05,2.756-7.55,4.51-11.155c3.605-0.339,7.234-0.372,10.864-0.267c0,1.617,0.008,3.233,0.016,4.85
				c-3.217,0.008-6.434,0.024-9.651,0.202c0.234,1.487,0.461,2.975,0.695,4.47c2.983-0.016,5.973-0.016,8.964,0.024
				c-0.008,1.471-0.008,2.95-0.016,4.421c-2.546,0.024-5.092,0.04-7.638,0.097c1.544,3.726,3.379,7.372,5.787,10.621
				c1.9,2.562,6.159,3.597,8.035,0.42c-1.471-0.129-2.95-0.226-4.429-0.307c-0.024-1.819-0.057-3.629-0.081-5.44
				c1.544-0.04,3.096-0.081,4.64-0.121c-0.049-8.035-0.032-16.069-0.008-24.104C74.645,26.268,60.798,26.252,46.96,26.389
				 M68.679,53.685c1.285,5.351,6.466,9.223,11.874,9.481c1.39-0.873,2.562-2.045,3.767-3.144c-1.988-1.164-4.219-2.126-5.642-4.017
				c-4.745-6.499-7.056-14.477-7.291-22.471C67.564,39.484,67.063,46.928,68.679,53.685 M46.572,52.36
				c0.008,0.428,0.032,1.277,0.04,1.697c1.099,0.008,2.199,0.008,3.29,0.008c0.008-0.42,0.024-1.269,0.032-1.689
				C48.811,52.368,47.688,52.368,46.572,52.36 M46.338,94.278l-0.59,0.307c5.125,3.759,10.532,7.129,16.142,10.12
				c0.768-4.179,2.336-8.293,2.32-12.569c-1.495-3.912-4.68-6.83-7.113-10.16l0.315-0.784
				C52.012,83.673,49.207,89.396,46.338,94.278 M38.352,105.732c-0.436,5.222-0.331,10.605,1.592,15.552
				c-0.049,0.857-0.089,1.73-0.105,2.595c7.21-2.692,13.951-6.539,21.323-8.835c0.016-2.255,0.089-4.502,0.202-6.741
				c-7.016-1.196-14.137-1.641-21.242-1.932C39.678,106.217,38.797,105.894,38.352,105.732 M49.789,121.785
				c2.384,0.307,4.866,0.267,6.725-1.463c-0.251-0.412-0.752-1.229-1.002-1.641C53.597,119.716,51.681,120.726,49.789,121.785
				 M50.008,123.765c-0.024,2.457,0,4.923,0.145,7.38c1.018-2.417,1.875-4.898,2.878-7.323
				C52.02,123.806,51.018,123.789,50.008,123.765"/>
			<path clip-path="url(#SVGID_00000001648990806939343110000001918686558978174905_)" fill="#FFFFFF" d="M123.256,72.64
				c2.449-2.538,5.383-4.656,8.81-5.642C130.329,70.029,127.249,74.192,123.256,72.64"/>
			<path clip-path="url(#SVGID_00000001648990806939343110000001918686558978174905_)" fill="#FFFFFF" d="M78.719,109.385
				c1.455-3.363,4.284-5.925,7.663-7.275C85.355,105.772,82.065,108.019,78.719,109.385"/>
			<path clip-path="url(#SVGID_00000001648990806939343110000001918686558978174905_)" d="M46.96,26.389
				c13.838-0.137,27.684-0.121,41.522-0.016c-0.024,8.035-0.04,16.069,0.008,24.104c-1.544,0.04-3.096,0.081-4.64,0.121
				c0.024,1.811,0.057,3.621,0.081,5.44c1.479,0.081,2.958,0.178,4.429,0.307c-1.875,3.177-6.135,2.142-8.035-0.42
				c-2.409-3.249-4.244-6.895-5.787-10.621c2.546-0.057,5.092-0.073,7.638-0.097c0.008-1.471,0.008-2.95,0.016-4.421
				c-2.991-0.04-5.981-0.04-8.964-0.024c-0.234-1.495-0.461-2.983-0.695-4.47c3.217-0.178,6.434-0.194,9.651-0.202
				c-0.008-1.617-0.016-3.233-0.016-4.85c-3.629-0.105-7.259-0.073-10.864,0.267c-1.754,3.605-3.961,7.105-4.51,11.155
				c-0.833,6.547,0.162,13.911,5.036,18.769c-0.436,1.956-0.63,3.961-0.833,5.957c1.843,0.299,3.702,0.533,5.561,0.744
				c-1.819,2.53-4.656,4.454-5.505,7.582c-1.584,4.89-4.244,9.328-6.167,14.089c-0.17-2.061-0.275-4.122-0.38-6.175
				c-1.285-0.057-2.57-0.105-3.856-0.146c-1.277-1.584-2.57-3.16-3.896-4.704c-2.433,1.98-4.753,4.276-7.784,5.319
				c-0.065-2.118-0.105-4.235-0.178-6.353c5.286,0.089,10.573,0.081,15.859-0.016c-0.032-1.617-0.065-3.233-0.113-4.85
				c-6.208,0.049-12.407,0.081-18.607-0.032c0.008-1.665,0.008-3.33,0.008-4.995c1.948-0.073,3.904-0.154,5.86-0.234
				c0.016-1.859,0.024-3.718,0.016-5.577c-2.142-0.016-4.284-0.024-6.426-0.024c-0.016-1.956-0.016-3.92,0-5.876
				c2.126-0.016,4.244-0.024,6.369-0.024c0.008-1.835,0.032-3.678,0.073-5.513c-1.625-0.048-3.257-0.089-4.89-0.129
				C47.025,42.442,47.001,34.416,46.96,26.389 M53.677,31.239c-0.008,1.625-0.008,3.249,0.008,4.874h10.936
				c0.008-1.633,0.016-3.266,0.008-4.89C60.984,31.19,57.331,31.182,53.677,31.239 M53.677,40.785v4.429
				c3.654,0.032,7.307,0.032,10.961,0.016c0-1.479-0.008-2.966-0.008-4.454C60.976,40.736,57.331,40.736,53.677,40.785
				 M57.792,50.557c0.032,1.851,0.065,3.71,0.097,5.561c2.223-0.008,4.446-0.016,6.668-0.008c0.048-1.851,0.073-3.702,0.105-5.553
				C62.375,50.541,60.079,50.541,57.792,50.557 M57.816,62.027c-0.008,1.908,0.008,3.823,0.032,5.739
				c2.255-0.024,4.51-0.024,6.765,0c0.016-1.924,0.024-3.839,0.016-5.755C62.359,62.011,60.087,62.011,57.816,62.027"/>
			<path clip-path="url(#SVGID_00000001648990806939343110000001918686558978174905_)" d="M24.603,33.591
				c1.196-1.657,2.562-3.185,4.009-4.632c4.648,0.323,9.304,0.234,13.959,0.194c0.065,18.445,0.065,36.899,0,55.344
				c-1.916-0.008-3.831-0.016-5.747-0.024c-0.073-1.972-0.137-3.945-0.202-5.917c-1.956,0-3.912-0.008-5.876-0.016
				c-0.057,2.287-0.097,4.583-0.137,6.879c-1.997-0.008-3.993-0.016-5.981-0.016C24.53,68.138,24.579,50.864,24.603,33.591
				 M30.625,35.782c0.073,12.181-0.024,24.362,0.048,36.543c2.021-0.008,4.042-0.016,6.062-0.024
				c0-12.149-0.057-24.298,0.032-36.446C34.723,35.903,32.67,35.879,30.625,35.782"/>
			<path clip-path="url(#SVGID_00000001648990806939343110000001918686558978174905_)" d="M66.4,93.567
				c1.18-1.107,2.409-2.166,3.645-3.225c0.639,3.484,1.261,7,1.18,10.556c-0.121,3.637-2.409,6.652-4.308,9.578
				c-0.946-0.307-1.891-0.606-2.829-0.913C63.886,104.14,64.468,98.667,66.4,93.567"/>
			<path clip-path="url(#SVGID_00000001648990806939343110000001918686558978174905_)" d="M25.152,102.749
				c7.323,0.331,14.751-0.655,22.002,0.509c0.218,0.331,0.647,0.986,0.865,1.318c-3.742-0.242-7.485-0.566-11.227-0.76l-0.137,0.792
				c-0.364,1.697-0.808,3.371-1.14,5.068c-1.075,0.081-2.142,0.154-3.217,0.234c0.048,11.631,0.024,23.263,0.008,34.894
				c2.635,0.008,5.27,0.016,7.905,0.024c0.089-6.248-0.073-12.496,0.121-18.745c2.425-1.035,4.826-2.11,7.242-3.152
				c0.154,11.559,0.081,23.109,0.04,34.668c-2.417,0.016-4.834,0.016-7.25,0.008c-0.089-1.851-0.186-3.694-0.275-5.545
				c-2.562,0.032-5.125,0.032-7.687,0.016c-0.057,1.9-0.113,3.799-0.178,5.707c-2.36-0.016-4.729-0.032-7.089-0.057
				C25.193,139.406,25.16,121.074,25.152,102.749"/>
			<path clip-path="url(#SVGID_00000001648990806939343110000001918686558978174905_)" fill="#020303" d="M112.182,151.037
				c1.01-3.613,4.478-6.208,8.245-6.208c-0.275,3.468-1.649,7.364-5.222,8.625C113.564,154.311,111.802,152.783,112.182,151.037"/>
			
				<path clip-path="url(#SVGID_00000001648990806939343110000001918686558978174905_)" fill="#FFFFFF" stroke="#FFFFFF" stroke-width="0.97" stroke-miterlimit="10" d="
				M90.52,27.06c5.682,5.707,11.195,11.64,17.54,16.619c-3.718,2.255-8.689,3.338-10.742,7.55c-1.584,1.091-3.096,2.304-4.64,3.46
				c-0.097-7.921,0.396-15.835-0.065-23.756c-0.509-0.146-1.536-0.445-2.045-0.59C90.576,29.242,90.56,28.151,90.52,27.06"/>
			<path clip-path="url(#SVGID_00000001648990806939343110000001918686558978174905_)" fill="#FFFFFF" d="M44.552,75.178
				c5.884,0,11.769-0.105,17.645,0.234c-4.3,0.097-8.641-0.154-12.909,0.436c-2.36,0.194-3.08,2.821-3.039,4.801
				c-0.145,2.344,1.916,3.872,3.209,5.537c-1.689,2.966-3.403,5.917-5.076,8.891c5.068,4.349,11.13,7.25,16.449,11.243
				c-4.308-0.275-8.608-0.744-12.812-1.746c-0.218-0.331-0.647-0.986-0.865-1.318c0.582,0.137,1.738,0.404,2.32,0.542
				c-0.234-0.889-0.469-1.77-0.703-2.659c-3.08-0.194-6.167-0.348-9.247-0.372c-4.664-4.761-8.932-10.071-14.646-13.636
				c2.49,0.614,5.036,1.002,7.566,1.39c0.711-0.913,1.423-1.827,2.134-2.74c2.158,0.307,4.316,0.655,6.507,0.663
				c1.14-0.016,2.595,0.162,3.039-1.204C44.948,81.96,44.56,78.533,44.552,75.178"/>
			<path clip-path="url(#SVGID_00000001648990806939343110000001918686558978174905_)" fill="#FFFFFF" d="M49.442,145.129
				c0.388,3.888,0.622,7.8,0.873,11.704c0.323-0.946,0.663-1.883,0.962-2.837c0.533,6.539,1.091,13.086,1.859,19.601h-5.553
				c-8.277-1.997-16.158-6.248-21.509-12.989c2.514-0.315,5.036-0.598,7.558-0.865c0.736-1.487,1.479-2.975,2.223-4.462
				c0.396-0.048,1.196-0.137,1.592-0.186c0.542,1.245,1.083,2.49,1.617,3.742c3.371,0.873,6.854,0.897,10.306,0.663
				C49.127,154.715,49.143,149.914,49.442,145.129"/>
			<path clip-path="url(#SVGID_00000001648990806939343110000001918686558978174905_)" d="M147.634,34.157
				c0.574-1.972,1.625-3.742,3.249-5.036c-0.048,1.479-0.048,2.975-0.242,4.454C149.647,33.801,148.645,33.995,147.634,34.157"/>
			<path clip-path="url(#SVGID_00000001648990806939343110000001918686558978174905_)" fill="#FFFFFF" d="M90.568,30.342
				c0.509,0.146,1.536,0.445,2.045,0.59c0.461,7.921-0.032,15.835,0.065,23.756c-0.251,0.194-0.752,0.59-1.002,0.784
				c-1.754-0.719-3.524-1.398-5.302-2.069c1.576-1.188,4.219-1.835,4.001-4.276C90.803,42.87,90.269,36.598,90.568,30.342"/>
			<path clip-path="url(#SVGID_00000001648990806939343110000001918686558978174905_)" fill="#FFFFFF" d="M53.677,31.239
				c3.654-0.057,7.307-0.048,10.952-0.016c0.008,1.625,0,3.257-0.008,4.89H53.685C53.669,34.488,53.669,32.864,53.677,31.239"/>
			<path clip-path="url(#SVGID_00000001648990806939343110000001918686558978174905_)" d="M68.679,53.685
				c-1.617-6.757-1.115-14.202,2.708-20.151c0.234,7.994,2.546,15.972,7.291,22.471c1.423,1.891,3.654,2.853,5.642,4.017
				c-1.204,1.099-2.376,2.271-3.767,3.144C75.146,62.908,69.965,59.036,68.679,53.685"/>
			<path clip-path="url(#SVGID_00000001648990806939343110000001918686558978174905_)" d="M97.318,51.228
				c15.6-9.271,33.48-15.835,51.869-14.897c0.105,1.027,0.21,2.061,0.323,3.096c0.097-0.736,0.291-2.19,0.388-2.926
				c1.649,0.032,3.298,0.073,4.947,0.105c-0.065,0.533-0.194,1.584-0.259,2.11c0.671-0.711,1.342-1.423,2.013-2.134
				c5.02,1.075,9.91,2.667,14.703,4.51c1.099,2.748,1.657,5.674,2.296,8.568V83.9c-2.853-4.866-1.035-10.686-2.764-15.867
				c-1.835-8.002-8.026-14.089-14.622-18.518c-3.047-2.118-6.596-3.354-10.233-3.985c6.677,4.058,13.879,7.76,18.688,14.153
				c3.864,5.044,5.311,11.502,5.723,17.734c0.517,6.184-2.578,11.809-4.987,17.281c-1.439-1.819-3.08-3.557-3.969-5.723
				c-0.113-2.409,0.226-4.858-0.606-7.186c-3.257,1.439-6.289,3.322-9.134,5.464c-3.072-2.554-6.959-4.559-8.576-8.431
				c-2.603-5.319-5.1-11.033-9.999-14.671c1.56,5.561,5.804,9.772,7.938,15.075c1.859,3.969,2.619,8.309,2.983,12.642
				c-1.253-0.137-2.506-0.283-3.759-0.436c0.024,0.687,0.04,1.382,0.065,2.069c-1.56,1.714-3.104,3.443-4.607,5.214
				c1.14-0.154,2.287-0.299,3.427-0.501c-0.978,1.261-1.875,2.578-2.764,3.904c1.091,0.598,2.182,1.196,3.266,1.803
				c1.245-0.768,2.49-1.528,3.751-2.279c0.55,5.416-2.053,10.338-3.621,15.35c-3.46-1.447-6.774-3.201-10.136-4.858
				c-1.132,4.462-1.115,9.085-1.067,13.66c-3.621,1.083-7.153,2.465-10.823,3.395c-0.849,0.105-1.843,0.582-2.627,0.057
				c-2.53-1.568-4.672-3.67-7.081-5.408c-0.016-0.946-0.032-1.883-0.049-2.821c-2.158,1.471-4.268,3.015-6.483,4.397
				c0.97-1.568,2.005-3.096,3.039-4.623c-1.52,0.889-3.023,1.819-4.526,2.732c-1.067-0.501-2.126-0.994-3.193-1.487
				c0.469,1.027,0.938,2.045,1.415,3.072c-0.558,0.946-1.107,1.891-1.657,2.845c1.245-0.412,2.481-0.824,3.734-1.204
				c-1.867,1.997-3.848,3.888-5.876,5.723c-5.076-3.823-9.789-8.261-13.143-13.693c-2.74-4.421-4.292-9.417-6.466-14.113
				c0.113,9.077,5.383,17.257,11.656,23.457c2.166,2.215,4.704,4.761,4.551,8.107c-1.18,1.754-2.813,3.144-4.357,4.567
				c-0.024-1.544-0.032-3.088-0.057-4.623c-0.533,1.043-1.067,2.093-1.544,3.169c-1.075,3.411-1.164,7.032-1.196,10.581
				c-0.364,7.59,0.339,15.18,1.487,22.673c-1.738-0.76-3.896-1.075-5.06-2.724c-1.867-2.611-3.039-5.626-4.365-8.528
				c-2.231,4.001-4.227,8.123-6.2,12.254h-1.107c0.622-7.089-0.574-14.129-1.714-21.105c-0.655-6.741-2.91-13.248-3.072-20.054
				c-0.509-7.372-0.881-14.792,0.202-22.131c0.364,0.63,1.083,1.891,1.447,2.522c4.64-3.096,7.372-8.374,8.115-13.798
				c-0.323-3.266-1.738-6.297-2.643-9.425c-1.342,0.21-2.684,0.436-4.025,0.663c3.33-14.364,13.749-25.575,24.702-34.797
				c0.251-0.194,0.752-0.59,1.002-0.784C94.222,53.532,95.733,52.319,97.318,51.228 M126.117,45.708
				c1.94,2.781,5.319,3.888,8.592,3.629c-0.703-3.08-2.756-5.424-5.602-6.725C128.081,43.574,126.15,44.059,126.117,45.708
				 M120.095,50.856c0.566,1.293,1.059,2.635,1.835,3.823c1.342,1.463,3.314,2.093,5.044,2.983c0.097-1.609,0.517-3.451-0.784-4.729
				C124.864,50.929,122.173,51.277,120.095,50.856 M123.256,72.64c3.993,1.552,7.073-2.611,8.81-5.642
				C128.639,67.984,125.705,70.102,123.256,72.64 M78.719,109.385c3.346-1.366,6.636-3.613,7.663-7.275
				C83.003,103.461,80.173,106.023,78.719,109.385"/>
			<path clip-path="url(#SVGID_00000001648990806939343110000001918686558978174905_)" d="M71.339,173.597
				c1.52-2.926,3.12-5.812,4.906-8.584c1.067,2.789,1.859,5.666,2.481,8.584H71.339z"/>
			<path clip-path="url(#SVGID_00000001648990806939343110000001918686558978174905_)" fill="#FFFFFF" d="M30.625,35.782
				c2.045,0.097,4.098,0.121,6.143,0.073c-0.089,12.149-0.032,24.298-0.032,36.446c-2.021,0.008-4.042,0.016-6.062,0.024
				C30.6,60.144,30.697,47.963,30.625,35.782"/>
			<path clip-path="url(#SVGID_00000001648990806939343110000001918686558978174905_)" d="M126.117,45.708
				c0.032-1.649,1.964-2.134,2.991-3.096c2.845,1.301,4.898,3.645,5.602,6.725C131.436,49.595,128.057,48.488,126.117,45.708
				 M127.103,44.358c1.132,2.619,3.807,3.645,6.41,4.187C133.036,45.336,129.989,44.236,127.103,44.358"/>
			<path clip-path="url(#SVGID_00000001648990806939343110000001918686558978174905_)" fill="#FFFFFF" d="M53.677,40.785
				c3.654-0.048,7.299-0.048,10.952-0.008c0,1.487,0.008,2.975,0.008,4.454c-3.654,0.016-7.307,0.016-10.961-0.016V40.785z"/>
			<path clip-path="url(#SVGID_00000001648990806939343110000001918686558978174905_)" fill="#FFFFFF" d="M127.103,44.358
				c2.886-0.121,5.933,0.978,6.41,4.187C130.911,48.003,128.235,46.977,127.103,44.358"/>
			<path clip-path="url(#SVGID_00000001648990806939343110000001918686558978174905_)" fill="#030806" d="M145.088,83.778
				c1.762,1.592,3.468,3.241,5.157,4.906c-1.39,0.913-2.764,1.851-4.139,2.781C145.808,88.895,145.46,86.333,145.088,83.778"/>
			<path clip-path="url(#SVGID_00000001648990806939343110000001918686558978174905_)" d="M50.008,123.765
				c1.01,0.024,2.013,0.04,3.023,0.057c-1.002,2.425-1.859,4.906-2.878,7.323C50.008,128.688,49.983,126.222,50.008,123.765"/>
			<path clip-path="url(#SVGID_00000001648990806939343110000001918686558978174905_)" fill="#FFFFFF" d="M145.977,45.53
				c3.637,0.63,7.186,1.867,10.233,3.985c6.596,4.429,12.787,10.516,14.622,18.518c1.73,5.181-0.089,11.001,2.764,15.867v2.093
				c-0.776-0.784-1.576-1.536-2.376-2.296c-1.083,3.678-2.7,7.153-4.05,10.726c-0.897,1.794,0.348,3.589,0.881,5.278
				c1.455,3.597,2.457,7.655,1.277,11.478c-1.18,4.502-6.636,7.719-11.058,5.779c-5.48-2.312-9.247-7.145-13.272-11.3
				c-1.463,4.551-2.684,9.182-4.43,13.644c-3.573-1.463-6.943-3.346-10.273-5.278c-0.032,3.848,0.655,7.735,0.04,11.559
				c-0.065,1.326-1.382,1.819-2.409,2.287c-3.783,1.536-7.832,2.19-11.785,3.112c2.675,4.874,6.434,9.958,5.424,15.835
				c-0.881,4.632-4.931,9.554-10.096,8.802c-5.44-0.711-9.061-5.367-12.973-8.738c-1.706-1.681-4.284-1.56-6.474-2.077
				c0.744,4.438,1.277,8.916,1.132,13.426c2.538,0.954,5.149,1.73,7.8,2.32c-0.881,0.833-1.762,1.665-2.643,2.498
				c0.897,0.978,1.803,1.956,2.708,2.942c2.958-1.754,6.046-3.419,9.53-3.791c-0.873,2.797-2.166,5.432-3.468,8.051
				c3.993-0.606,7.792-2.005,11.567-3.371c-1.14,2.393-2.417,4.753-4.227,6.717h-1.706c1.115-1.221,2.166-2.498,3.209-3.791
				c-4.801,1.067-9.902,1.293-14.267,3.791h-1.326c3.71-2.57,6.976-5.868,9.069-9.902c-6.111,1.229-10.629,5.755-14.945,9.902H92.88
				c2.231-2.465,4.494-4.898,6.895-7.202c-1.293-1.107-2.603-2.207-3.912-3.314c0.194-0.727,0.38-1.463,0.574-2.199
				c-1.067-0.331-2.134-0.655-3.201-0.978c-2.215,4.454-5.739,8.463-5.901,13.693h-6.038c-0.493-1.293-0.986-1.293-1.463,0h-1.107
				c-0.622-2.918-1.415-5.796-2.481-8.584c-1.786,2.772-3.387,5.658-4.906,8.584h-1.568c1.972-4.13,3.969-8.253,6.2-12.254
				c1.326,2.902,2.498,5.917,4.365,8.528c1.164,1.649,3.322,1.964,5.06,2.724c-1.148-7.493-1.851-15.083-1.487-22.673
				c0.372,3.662,0.954,7.299,1.326,10.969c0.234,2.684,0.639,5.343,1.124,7.994c1.948-3.274,4.381-6.442,5.092-10.265
				c0.736-5.141,0.954-11.058-2.983-15.034c-1.115-1.423-2.255-2.821-3.363-4.244c0.477-1.075,1.01-2.126,1.544-3.169
				c0.024,1.536,0.032,3.08,0.057,4.623c1.544-1.423,3.177-2.813,4.357-4.567c0.154-3.346-2.384-5.893-4.551-8.107
				c-6.272-6.2-11.543-14.38-11.656-23.457c2.174,4.696,3.726,9.692,6.466,14.113c3.354,5.432,8.067,9.869,13.143,13.693
				c2.029-1.835,4.009-3.726,5.876-5.723c-1.253,0.38-2.49,0.792-3.734,1.204c0.55-0.954,1.099-1.9,1.657-2.845
				c-0.477-1.027-0.946-2.045-1.415-3.072c1.067,0.493,2.126,0.986,3.193,1.487c1.503-0.913,3.007-1.843,4.526-2.732
				c-1.035,1.528-2.069,3.055-3.039,4.623c2.215-1.382,4.324-2.926,6.483-4.397c0.016,0.938,0.032,1.875,0.049,2.821
				c2.409,1.738,4.551,3.839,7.081,5.408c0.784,0.525,1.778,0.048,2.627-0.057c3.67-0.93,7.202-2.312,10.823-3.395
				c-0.048-4.575-0.065-9.198,1.067-13.66c3.363,1.657,6.677,3.411,10.136,4.858c1.568-5.011,4.171-9.934,3.621-15.35
				c-1.261,0.752-2.506,1.512-3.751,2.279c-1.083-0.606-2.174-1.204-3.266-1.803c0.889-1.326,1.786-2.643,2.764-3.904
				c0.962-0.8,1.932-1.592,2.91-2.384c-0.582-0.776-1.156-1.552-1.73-2.328c-0.024-0.687-0.04-1.382-0.065-2.069
				c1.253,0.154,2.506,0.299,3.759,0.436c-0.364-4.332-1.124-8.673-2.983-12.642c-2.134-5.302-6.377-9.514-7.938-15.075
				c4.898,3.637,7.396,9.352,9.999,14.671c1.617,3.872,5.505,5.876,8.576,8.431c2.845-2.142,5.876-4.025,9.134-5.464
				c0.833,2.328,0.493,4.777,0.606,7.186c0.889,2.166,2.53,3.904,3.969,5.723c2.409-5.472,5.505-11.098,4.987-17.281
				c-0.412-6.232-1.859-12.69-5.723-17.734C159.856,53.289,152.654,49.587,145.977,45.53 M145.088,83.778
				c0.372,2.554,0.719,5.117,1.018,7.687c1.374-0.93,2.748-1.867,4.139-2.781C148.556,87.02,146.85,85.371,145.088,83.778
				 M162.822,97.972c-3.484,2.061-7.008,4.446-8.972,8.115c0.533-0.024,1.592-0.081,2.126-0.113
				c-1.722,1.326-3.532,2.538-5.359,3.71c2.578,2.684,5.529,4.987,9.013,6.361c0.542-2.174,0.647-4.826,2.708-6.216
				c1.673-1.633,4.114-0.97,6.167-0.792c0.097-3.629-0.76-7.178-1.924-10.589C165.36,98.045,164.019,96.921,162.822,97.972
				 M162.693,110.097c-1.883,1.326-2.102,3.751-2.764,5.771c4.066,0.752,8.463-2.296,7.881-6.717
				C166.112,109.369,164.027,108.706,162.693,110.097 M105.166,146.486c-0.784,0.073-1.568,0.154-2.352,0.234
				c-0.226,0.469-0.461,0.946-0.687,1.423c2.611,2.813,5.505,5.561,9.481,6.127c0.162-2.207-0.154-4.72,1.528-6.458
				c1.746-2.603,4.979-3.193,7.776-3.977c-1.01-2.748-2.19-5.432-3.605-7.986C113.217,139.341,108.69,142.364,105.166,146.486
				 M112.182,151.037c-0.38,1.746,1.382,3.274,3.023,2.417c3.573-1.261,4.947-5.157,5.222-8.625
				C116.66,144.829,113.193,147.424,112.182,151.037"/>
			<path clip-path="url(#SVGID_00000001648990806939343110000001918686558978174905_)" fill="#FFFFFF" d="M57.792,50.557
				c2.287-0.016,4.583-0.016,6.871,0c-0.032,1.851-0.057,3.702-0.105,5.553c-2.223-0.008-4.446,0-6.668,0.008
				C57.856,54.267,57.824,52.408,57.792,50.557"/>
			<path clip-path="url(#SVGID_00000001648990806939343110000001918686558978174905_)" d="M120.095,50.856
				c2.077,0.42,4.769,0.073,6.095,2.077c1.301,1.277,0.881,3.12,0.784,4.729c-1.73-0.889-3.702-1.52-5.044-2.983
				C121.154,53.491,120.661,52.15,120.095,50.856 M122.246,52.142c0.703,1.786,2.11,3.031,3.912,3.645
				C125.366,54.073,124.153,52.594,122.246,52.142"/>
			<path clip-path="url(#SVGID_00000001648990806939343110000001918686558978174905_)" fill="#FFFFFF" d="M46.572,52.36
				c1.115,0.008,2.239,0.008,3.363,0.016c-0.008,0.42-0.024,1.269-0.032,1.689c-1.091,0-2.19,0-3.29-0.008
				C46.605,53.637,46.58,52.788,46.572,52.36"/>
			<path clip-path="url(#SVGID_00000001648990806939343110000001918686558978174905_)" fill="#FFFFFF" d="M122.246,52.142
				c1.908,0.453,3.12,1.932,3.912,3.645C124.355,55.173,122.949,53.928,122.246,52.142"/>
			<path clip-path="url(#SVGID_00000001648990806939343110000001918686558978174905_)" fill="#FFFFFF" d="M57.816,62.027
				c2.271-0.016,4.543-0.016,6.814-0.016c0.008,1.916,0,3.831-0.016,5.755c-2.255-0.024-4.51-0.024-6.765,0
				C57.824,65.85,57.808,63.935,57.816,62.027"/>
			<path clip-path="url(#SVGID_00000001648990806939343110000001918686558978174905_)" fill="#FFFFFF" d="M152.484,162.224
				c6.272-6.345,13.054-12.254,20.531-17.16c-0.259,1.107-0.493,2.223-0.776,3.322c-7.647,4.51-14.218,10.645-20.41,16.95
				c0.824,1.544,1.641,3.088,2.465,4.623c-1.503,0.76-3.031,1.455-4.599,2.037c-0.323-1.018-0.655-2.037-0.978-3.047
				c1.212,0.404,2.425,0.8,3.654,1.172c-1.132-1.924-2.57-4.801-5.302-4.017c-3.395,1.924-5.593,5.375-8.875,7.493h-0.921
				c2.013-2.279,3.953-4.64,6.24-6.66C146.042,164.536,150.075,164.819,152.484,162.224"/>
			<path clip-path="url(#SVGID_00000001648990806939343110000001918686558978174905_)" d="M46.338,94.278
				c2.869-4.882,5.674-10.605,11.074-13.086l-0.315,0.784C55.189,87.214,51.689,92.185,46.338,94.278"/>
			<path clip-path="url(#SVGID_00000001648990806939343110000001918686558978174905_)" d="M38.352,105.732
				c0.445,0.162,1.326,0.485,1.77,0.639c0.849,4.955,0.671,9.974-0.178,14.913C38.021,116.337,37.915,110.954,38.352,105.732"/>
			<path clip-path="url(#SVGID_00000001648990806939343110000001918686558978174905_)" d="M171.22,83.698
				c0.8,0.76,1.6,1.512,2.376,2.296v27.361c-2.473-0.752-2.49,3.637,0,2.684v26.343c-0.186,0.897-0.38,1.794-0.582,2.684
				c-7.477,4.906-14.258,10.815-20.531,17.16c-2.409,2.595-6.442,2.312-8.972,4.712c-2.287,2.021-4.227,4.381-6.24,6.66h-22.851
				c1.811-1.964,3.088-4.324,4.227-6.717c-3.775,1.366-7.574,2.764-11.567,3.371c1.301-2.619,2.595-5.254,3.468-8.051
				c-3.484,0.372-6.571,2.037-9.53,3.791c-0.905-0.986-1.811-1.964-2.708-2.942c0.881-0.833,1.762-1.665,2.643-2.498
				c-2.651-0.59-5.262-1.366-7.8-2.32c0.145-4.51-0.388-8.988-1.132-13.426c2.19,0.517,4.769,0.396,6.474,2.077
				c3.912,3.371,7.533,8.026,12.973,8.738c5.165,0.752,9.215-4.171,10.096-8.802c1.01-5.876-2.748-10.961-5.424-15.835
				c3.953-0.921,8.002-1.576,11.785-3.112c1.027-0.469,2.344-0.962,2.409-2.287c0.614-3.823-0.073-7.711-0.04-11.559
				c3.33,1.932,6.701,3.815,10.273,5.278c1.746-4.462,2.966-9.093,4.43-13.644c4.025,4.155,7.792,8.988,13.272,11.3
				c4.421,1.94,9.877-1.277,11.058-5.779c1.18-3.823,0.178-7.881-1.277-11.478c-0.533-1.689-1.778-3.484-0.881-5.278
				C168.521,90.851,170.137,87.375,171.22,83.698 M146.592,137.741c-0.129,1.851,0.17,3.686,0.517,5.505
				c0.364-1.083,0.727-2.174,1.075-3.257c1.156-0.145,2.312-0.291,3.476-0.436C149.954,138.985,148.265,138.379,146.592,137.741"/>
			<path clip-path="url(#SVGID_00000001648990806939343110000001918686558978174905_)" d="M155.976,105.974
				c3.476-2.587,6.879-5.286,10.605-7.525c1.164,3.411,2.021,6.959,1.924,10.589c-2.053-0.178-4.494-0.841-6.167,0.792
				c-2.061,1.39-2.166,4.042-2.708,6.216c-3.484-1.374-6.434-3.678-9.013-6.361C152.444,108.513,154.254,107.3,155.976,105.974"/>
			<path clip-path="url(#SVGID_00000001648990806939343110000001918686558978174905_)" d="M66.974,90.269
				c1.342-0.226,2.684-0.453,4.025-0.663c0.905,3.128,2.32,6.159,2.643,9.425c-0.744,5.424-3.476,10.702-8.115,13.798
				c-0.364-0.63-1.083-1.891-1.447-2.522l0.008-0.744c0.938,0.307,1.883,0.606,2.829,0.913c1.9-2.926,4.187-5.941,4.308-9.578
				c0.081-3.557-0.542-7.073-1.18-10.556c-1.237,1.059-2.465,2.118-3.645,3.225C66.602,92.468,66.756,91.36,66.974,90.269"/>
			<path clip-path="url(#SVGID_00000001648990806939343110000001918686558978174905_)" fill="#FFFFFF" d="M135.736,98.716
				c1.503-1.77,3.047-3.5,4.607-5.214c0.574,0.776,1.148,1.552,1.73,2.328c-0.978,0.792-1.948,1.584-2.91,2.384
				C138.024,98.417,136.876,98.562,135.736,98.716"/>
			
				<path clip-path="url(#SVGID_00000001648990806939343110000001918686558978174905_)" fill="#FFFFFF" stroke="#FFFFFF" stroke-width="0.97" stroke-miterlimit="10" d="
				M162.822,97.972c1.196-1.051,2.538,0.073,3.759,0.477c-3.726,2.239-7.129,4.939-10.605,7.525
				c-0.533,0.032-1.592,0.089-2.126,0.113C155.814,102.418,159.338,100.033,162.822,97.972"/>
			<path clip-path="url(#SVGID_00000001648990806939343110000001918686558978174905_)" fill="#FFFFFF" d="M35.515,109.676
				c0.331-1.697,0.776-3.371,1.14-5.068c-0.542,5.27-0.04,10.581,1.156,15.721c1.673,7.453,0.711,15.115,0.736,22.665
				c-1.229-0.154-2.465-0.307-3.694-0.461c-0.218-7.711-0.121-15.422-0.121-23.125C34.731,116.151,34.884,112.877,35.515,109.676"/>
			<path clip-path="url(#SVGID_00000001648990806939343110000001918686558978174905_)" fill="#020403" d="M162.693,110.097
				c1.334-1.39,3.419-0.727,5.117-0.946c0.582,4.421-3.815,7.469-7.881,6.717C160.591,113.847,160.81,111.422,162.693,110.097"/>
			<path clip-path="url(#SVGID_00000001648990806939343110000001918686558978174905_)" d="M105.166,146.486
				c3.524-4.122,8.051-7.145,12.141-10.637c1.415,2.554,2.595,5.238,3.605,7.986c-2.797,0.784-6.03,1.374-7.776,3.977
				c-1.681,1.738-1.366,4.252-1.528,6.458c-3.977-0.566-6.871-3.314-9.481-6.127c0.226-0.477,0.461-0.954,0.687-1.423
				C103.598,146.64,104.382,146.559,105.166,146.486"/>
			<path clip-path="url(#SVGID_00000001648990806939343110000001918686558978174905_)" fill="#FFFFFF" d="M173.597,116.038
				c-2.49,0.954-2.473-3.435,0-2.684V116.038z"/>
			<path clip-path="url(#SVGID_00000001648990806939343110000001918686558978174905_)" d="M51.996,131.889
				c1.229-6.03,4.13-12.23,9.772-15.285c-0.097,3.314-0.663,6.604-0.606,9.926c0.194,2.376,0.865,4.68,1.269,7.016
				c1.067,5.02,0.639,10.217,1.851,15.212c1.819,8.148,2.991,16.473,2.837,24.839H53.136c-0.768-6.515-1.326-13.062-1.859-19.601
				C51.155,146.632,50.59,139.171,51.996,131.889"/>
			<path clip-path="url(#SVGID_00000001648990806939343110000001918686558978174905_)" fill="#FFFFFF" d="M49.789,121.785
				c1.891-1.059,3.807-2.069,5.723-3.104c0.251,0.412,0.752,1.229,1.002,1.641C54.655,122.052,52.174,122.092,49.789,121.785"/>
			<path clip-path="url(#SVGID_00000001648990806939343110000001918686558978174905_)" fill="#FFFFFF" d="M146.592,137.741
				c1.673,0.639,3.363,1.245,5.068,1.811c-1.164,0.145-2.32,0.291-3.476,0.436c-0.348,1.083-0.711,2.174-1.075,3.257
				C146.761,141.427,146.462,139.592,146.592,137.741"/>
			<path clip-path="url(#SVGID_00000001648990806939343110000001918686558978174905_)" fill="#FFFFFF" d="M83.908,149.922
				c0.032-3.548,0.121-7.17,1.196-10.581c1.107,1.423,2.247,2.821,3.363,4.244c-0.889,0.048-1.77,0.105-2.651,0.162
				c-0.364,5.707-0.76,11.421-0.582,17.144C84.862,157.221,84.28,153.583,83.908,149.922"/>
			<path clip-path="url(#SVGID_00000001648990806939343110000001918686558978174905_)" d="M85.815,143.746
				c0.881-0.057,1.762-0.113,2.651-0.162c3.936,3.977,3.718,9.894,2.983,15.034c-0.711,3.823-3.144,6.992-5.092,10.265
				c-0.485-2.651-0.889-5.311-1.124-7.994C85.056,155.168,85.452,149.453,85.815,143.746"/>
			<path clip-path="url(#SVGID_00000001648990806939343110000001918686558978174905_)" fill="#FFFFFF" d="M166.549,153.608
				c1.212-0.93,2.837-1.002,4.268-1.39c-1.002,2.336-2.288,4.535-3.742,6.604C166.654,157.172,164.867,155.087,166.549,153.608"/>
			<path clip-path="url(#SVGID_00000001648990806939343110000001918686558978174905_)" d="M93.236,159.904
				c1.067,0.323,2.134,0.647,3.201,0.978c-0.194,0.736-0.38,1.471-0.574,2.199c1.309,1.107,2.619,2.207,3.912,3.314
				c-2.401,2.304-4.664,4.737-6.895,7.202h-5.545C87.497,168.367,91.021,164.358,93.236,159.904"/>
			<path clip-path="url(#SVGID_00000001648990806939343110000001918686558978174905_)" d="M94.456,173.597
				c4.316-4.147,8.835-8.673,14.945-9.902c-2.094,4.033-5.359,7.331-9.069,9.902H94.456z"/>
			<path clip-path="url(#SVGID_00000001648990806939343110000001918686558978174905_)" d="M138.193,173.597
				c3.282-2.118,5.48-5.569,8.875-7.493c2.732-0.784,4.171,2.094,5.302,4.017c-1.229-0.372-2.441-0.768-3.654-1.172
				c0.323,1.01,0.655,2.029,0.978,3.047c-2.166,0.582-4.341,1.115-6.531,1.6H138.193z"/>
			<path clip-path="url(#SVGID_00000001648990806939343110000001918686558978174905_)" d="M101.658,173.597
				c4.365-2.498,9.465-2.724,14.267-3.791c-1.043,1.293-2.093,2.57-3.209,3.791H101.658z"/>
			<path clip-path="url(#SVGID_00000001648990806939343110000001918686558978174905_)" fill="#FFFFFF" d="M79.834,173.597
				c0.477-1.293,0.97-1.293,1.463,0H79.834z"/>
		</g>
	</g>
</g>
<path d="M81.45,89.21c-0.047-0.08,0.159-0.269,0.514-0.61c3.368-3.236,4.892-5.48,5.306-5.21c0.318,0.208-0.206,1.783-0.97,2.91
	C84.646,88.741,81.605,89.473,81.45,89.21z"/>
<g>
</g>
<g>
</g>
<g>
</g>
<g>
</g>
<g>
</g>
<g>
</g>
<g>
</g>
<g>
</g>
<g>
</g>
<g>
</g>
<g>
</g>
</svg>
