<?xml version="1.0" encoding="utf-8"?>
<!-- Generator: Adobe Illustrator 27.1.1, SVG Export Plug-In . SVG Version: 6.00 Build 0)  -->
<svg version="1.1" id="图层_1" xmlns="http://www.w3.org/2000/svg" xmlns:xlink="http://www.w3.org/1999/xlink" x="0px" y="0px"
	 viewBox="0 0 192 192" enable-background="new 0 0 192 192" xml:space="preserve">
<g>
	<circle fill="none" cx="96.204" cy="95.662" r="84.446"/>
	<path id="外粗线_2_" d="M96,179.463c45.843,0,83.232-37.389,83.232-83.232S141.843,12.999,96,12.999
		S12.768,50.388,12.768,96.231S50.157,179.463,96,179.463L96,179.463z M96,182.494c-47.512,0-86.263-38.751-86.263-86.263
		S48.488,9.968,96,9.968s86.263,38.751,86.263,86.263S143.512,182.494,96,182.494L96,182.494z"/>
	<circle id="黄色底_2_" fill="none" cx="95.233" cy="96.214" r="80.272"/>
	<path id="外细线_2_" fill="#FFE200" stroke="#000000" stroke-width="0.8528" stroke-miterlimit="10" d="M96,176.415
		c43.912,0,79.726-36.02,79.726-80.184S139.912,16.046,96,16.046s-79.726,36.02-79.726,80.184S52.088,176.415,96,176.415L96,176.415
		z M96,177.003c-44.234,0-80.311-36.284-80.311-80.772S51.766,15.458,96,15.458s80.311,36.284,80.311,80.772
		S140.234,177.003,96,177.003L96,177.003z"/>
	<circle fill-rule="evenodd" clip-rule="evenodd" fill="none" cx="96" cy="95.769" r="86.263"/>
	<circle fill-rule="evenodd" clip-rule="evenodd" fill="none" cx="96" cy="95.77" r="61.078"/>
	<polygon fill-rule="evenodd" clip-rule="evenodd" fill="none" points="47.324,72.547 145.436,72.547 96.139,157.931 47.324,72.547 
			"/>
	<path fill-rule="evenodd" clip-rule="evenodd" fill="none" d="M95.332,74.862v1.795l-4.64,1.243v2.493l0.986,0.569v0.807
		c0,0-13.469,1.654-16.507,16.29l-2.762,0.276v1.933l-7.595,0.276l-0.828,1.243l16.432,28.307l32.173,0.276l16.846-28.307
		l-1.243-1.519h-7.318l-0.138-2.071h-2.485c0,0-2.762-14.084-17.122-16.708v-1.243h1.657l-0.414-2.347l-4.281-1.381l-0.276-1.519
		l-1.105-1.105L95.332,74.862L95.332,74.862z"/>
	<path fill-rule="evenodd" clip-rule="evenodd" d="M84.077,60.68"/>
	<path fill-rule="evenodd" clip-rule="evenodd" d="M84.077,60.68"/>
	<path id="止于至善_2_" fill-rule="evenodd" clip-rule="evenodd" d="M121.865,153.551c0.504,0.016,1.873,0.941,1.585,1.661
		c-0.228,0.53-0.728,0.997-1.261,1.197c0.024,0.258,0.004,0.253-0.108,0.425c-0.096,0.026-0.193,0.052-0.288,0.077
		c-0.06-0.051-0.12-0.103-0.18-0.154c0-0.026,0-0.051,0-0.077c-0.13-0.565,0.332-0.735,0.288-1.159
		c-0.035-0.344-0.439-1.487-0.432-1.545C121.541,153.714,121.686,153.689,121.865,153.551L121.865,153.551z M119.738,156.315
		c0.084,0.026,0.168,0.052,0.252,0.077c-0.012,0.464-0.024,0.927-0.036,1.391c-0.144,0.167-0.288,0.335-0.432,0.502
		c-0.845,0.01-1.186-0.698-1.549-1.197c0.027-0.172,0.045-0.162,0.108-0.271c0.012,0,0.024,0,0.036,0
		c0.465,0.022,0.603,0.268,1.081,0.309C119.264,156.747,119.536,156.551,119.738,156.315L119.738,156.315z M123.374,156.814
		c0.108,0,0.216,0,0.324,0c0.108,0.103,0.216,0.206,0.324,0.309c-0.012,0.103-0.024,0.206-0.036,0.309
		c-0.153,0.318-1.473,0.883-1.909,1.005c-0.024,0.051-0.048,0.103-0.072,0.154c0.047,0.274,0.165,0.504,0.288,0.695
		c0.541,0.037,1.077-0.397,1.441-0.695c0.332,0.02,0.59,0.213,0.396,0.541c-0.455,0.769-1.629,0.579-1.765,1.777
		c0.151,0.404,0.271,0.46,0.504,0.734c-0.106,0.609-2.402,2.021-2.954,2.589c-0.468,0.009-0.715-0.143-0.972-0.348
		c0.012-0.103,0.024-0.206,0.036-0.309c0.084-0.065,0.168-0.129,0.252-0.193c0.288-0.08,0.409,0.082,0.649,0.154
		c0.278-0.824,1.606-0.525,1.657-1.622c-0.123-0.264-0.268-0.402-0.468-0.58c-0.586,0.106-1.049,0.962-1.729,0.696
		c-0.072-0.052-0.144-0.103-0.216-0.155c0.008-0.175,0.025-0.209,0.072-0.31c0.403-0.014,1.94-1.17,2.089-1.468
		c-0.047-0.317-0.211-0.346-0.36-0.541c-0.108-0.013-0.216-0.026-0.324-0.038c-0.381,0.304-0.765,0.631-1.081,1.004
		c-0.416,0.011-0.623-0.107-0.864-0.27c-0.02-0.57,0.759-0.648,1.116-0.927c0.306-0.24,0.722-0.37,1.044-0.618
		c0.658-0.506,1.222-1.315,1.946-1.738C122.966,156.917,123.17,156.865,123.374,156.814L123.374,156.814z M62.443,155.605
		c0.089,0.023,0.179,0.046,0.268,0.069c0.142,0.402,0.651,0.546,0.719,1.003c0.318,2.148-1.887,2.326-2.189,3.543
		c0.026,0.003,0.684,0.261,0.709,0.268c0.739,0.206,0.723,0.161,1.325,0.308c0.875,0.214,2.695,1.227,3.519,1.164
		c0.542-0.042,0.789-0.202,1.364-0.185c0.435,0.255,1.695,1.525,1.339,2.197c-0.302,0.548-1.031,0.288-1.457,0.005
		c-1.265-0.84-3.105-1.524-4.672-2.313c-0.925-0.464-3.166-0.028-3.554-0.259c-0.402-0.203-0.568-0.945-0.231-1.515
		c0.468-0.446,0.935-0.893,1.403-1.339c0.291-0.319,0.358-0.669,0.625-1.061c0.224-0.258,0.449-0.516,0.673-0.774
		c-0.036-0.273-0.072-0.545-0.109-0.817C62.264,155.801,62.354,155.703,62.443,155.605L62.443,155.605z M72.728,157.443
		c1.035,0.142,0.982,0.901,1.201,1.734c0.064,0.243,0.284,0.5,0.161,0.778c-0.516,0.921-2.395,0.145-2.366-0.761
		c0.218-0.258,0.436-0.516,0.654-0.775c0.156-0.454,0.006-0.637,0.264-0.944C72.671,157.466,72.699,157.455,72.728,157.443
		L72.728,157.443z M80.877,165.585c-1.234,0.243-2.857,3.326-4.312,3.108c-0.07-0.024-0.141-0.049-0.211-0.074
		c-0.005-0.1-0.01-0.2-0.016-0.3c0.289-0.5,1.006-0.564,1.523-0.926c0.404-0.283,2.507-2.906,2.617-3.324
		c-0.016-0.085-0.032-0.171-0.048-0.256c-0.07-0.024-0.14-0.05-0.21-0.074c-1.042,0.197-1.275,0.63-1.523,0.791
		c-0.081,0.053-0.795,0.417-0.676,0.348c-0.384,0.223-0.464,0.205-0.731,0.388c-0.339,0.232-0.438,0.168-0.664,0.126
		c-0.077-0.015-0.346,0.104-0.424,0.106c-0.192,0.289-0.234,0.267-0.678,0.401c-0.105-0.069-0.19-0.109-0.294-0.178
		c-0.064-0.521,0.288-1.132,0.642-1.427c0.321-0.268,0.446-0.32,0.723-0.321c0.355-0.001,0.387-0.214,0.575-0.312
		c0.308-0.161,0.452,0.112,1.164,0.026c0.308-0.037,0.538-0.12,0.794-0.294c0.246-0.082,0.331-0.014,0.47-0.03
		c0.967-0.118,1.518-1.243,1.87-1.823c-0.085-0.501-0.187-2.151-0.06-2.45c0.001-0.032,0.016-0.158-0.057-0.16
		c-0.353-0.007-0.646-0.305-0.599-0.4c0.006-0.825,1.544-0.353,1.752,0.092c0.528,1.136-0.174,2.136-0.137,3.091
		c0.23,0.252,0.415,0.333,0.506,0.815c-0.083,0.307-0.191,0.499-0.643,0.573c0.127,0.169,0.213,0.436,0.476,0.442
		c0.488-0.334,2.382-3.068,2.307-3.72c-0.34-0.37-0.319-0.486-0.087-0.893c0.013-0.002,0.026-0.005,0.039-0.007
		c0.756-0.119,1.995,0.998,1.63,1.78c-0.524,1.126-1.31,2.235-2.269,3.071c-0.502,0.437-1.434,0.548-1.697,1.261
		c-0.178,0.48-0.152,0.881-0.258,1.373c-0.061,0.278-0.382,0.607-0.435,0.85c-0.118,0.538-0.026,0.231-0.122,1.025
		c-0.018,0.147-0.04,0.393-0.022,0.49c0.024,0.106,0.003,0.061,0.021,0.162c0.049,0.707-0.102,1.304-0.606,1.654
		c-0.714,0.496-1.42-0.134-1.709-0.379c0.116,0.098-0.064-0.08-0.168-0.183c-0.024-0.058-0.07-0.164-0.094-0.223
		c0.044-0.159,0.079-0.136,0.211-0.241c0.332-0.183,0.744-0.098,0.995-0.374C80.721,168.878,81.009,166.268,80.877,165.585
		L80.877,165.585z M125.283,159.205c0.266,0,0.321,0.054,0.468,0.154c0.012,0.129,0.024,0.258,0.036,0.386
		c-0.313,0.662-1.382,0.63-1.837,1.429c-0.24-0.013-0.481-0.026-0.721-0.039c-0.048-0.025-0.096-0.051-0.144-0.077
		c0.012-0.077,0.024-0.154,0.036-0.232C123.319,160.372,124.758,159.527,125.283,159.205L125.283,159.205z M66.415,156.956
		c0.15,0.03,0.3,0.06,0.449,0.091c0.236,0.276,0.293,0.342,0.556,0.651c0.663,0.337,1.048-0.152,1.555,0.294
		c-0.001,0.014-0.003,0.028-0.004,0.041c-0.037,0.232-0.068,0.24-0.164,0.363c-0.68,0.225-0.946,1.128-1.597,1.267
		c-0.597,0.127-1.55-1.486-1.22-2.245C66.131,157.265,66.273,157.11,66.415,156.956L66.415,156.956z M109.824,158.442
		c0.419,0.022,0.629,0.212,0.805,0.463c-0.014,0.103-0.027,0.205-0.041,0.308c-0.736,0.378-4.057,0.877-4.304,1.311
		c0.108,0.295,0.215,0.591,0.322,0.887c-0.998,1.182-3.018,1.701-3.58,3.238c0.013,0.013,0.026,0.026,0.04,0.039
		c1.092,0.009,1.746-0.505,2.736-0.655c0.014,0.012,0.027,0.025,0.04,0.038c0,0.064,0,0.129,0,0.193
		c-0.852,0.61-2.811,1.335-4.063,1.465c-0.119-0.145-0.272-0.214-0.442-0.309c-0.056-0.239-0.169-0.634-0.08-0.848
		c0.201-0.376,0.759-0.366,1.086-0.617c0.672-0.516,2.069-1.557,2.413-2.313c-0.022-0.191-0.035-0.223-0.161-0.308
		c-0.35-0.21-0.799-0.031-1.207,0c-0.663,0.05-1.172-0.228-1.609-0.54c0.009-0.174,0.028-0.208,0.081-0.309
		c0.937-0.107,1.659-0.343,2.454-0.501c0.215,0,0.429,0,0.644,0c0.272-0.065,0.405-0.232,0.764-0.27
		c0.129-0.029,0.152,0.014,0.23-0.014c0.043-0.016,0.076-0.02,0.113-0.052C106.783,159.044,108.987,158.822,109.824,158.442
		L109.824,158.442z M128.629,160.15c0.522-0.011,0.797,0.311,0.936,0.695c0,0.09,0,0.18,0,0.271
		c-0.167,0.264-0.303,0.493-0.72,0.502c-1.01-0.391-2.478,0.487-2.918,0.309c0-0.064,0-0.129,0-0.193
		C126.503,160.832,127.846,160.82,128.629,160.15L128.629,160.15z M124.344,161.467c0.363-0.032,0.63,0.046,0.576,0.348
		c0.036,0.257,0.072,0.515,0.108,0.772c-0.159,0.485-0.716,0.955-1.152,1.043c-0.012,0.129-0.024,0.258-0.036,0.387
		c-0.072-0.026-0.144-0.052-0.216-0.077c-0.012-0.026-0.024-0.052-0.036-0.077c0.031-0.722,0.535-1.156,0.684-1.738
		C124.353,161.81,124.22,161.695,124.344,161.467L124.344,161.467z M122.325,163.591c0.072,0.013,0.144,0.026,0.216,0.038
		c0.072,0.065,0.144,0.129,0.216,0.193c-0.012,0.103-0.024,0.206-0.036,0.309c-0.394,0.109-0.4,0.767-0.756,0.927
		c-0.204-0.013-0.409-0.026-0.612-0.039c-0.131,0.04-0.254,0.157-0.468,0.193c0.137,0.37-0.039,0.534-0.252,0.734
		c-0.264,0-0.948-0.191-1.008-0.154c-0.046,0.027-0.118,0.332-0.18,0.386c-0.264,0.193-0.528,0.386-0.793,0.58
		c-0.096,0-0.192,0-0.288,0c-0.754,0.536-1.567,2.014-2.809,1.12c-0.012-0.09-0.024-0.18-0.036-0.271
		c0.602-0.669,0.645-0.183,1.297-0.27c0.225-0.687,0.711-0.565,1.297-0.85c1.201-0.585,1.982-1.79,3.098-2.434
		c0.108,0.039,0.216,0.077,0.324,0.116C121.737,163.913,122.114,163.854,122.325,163.591L122.325,163.591z M126.288,163.549
		c0.132,0.013,0.264,0.026,0.396,0.039c0.085,0.011,0.119,0.091,0.261,0.088c0.098-0.002,0.194-0.007,0.351,0.105
		c0,0.412,0,0.824,0,1.236c-0.12,0.141-0.24,0.284-0.36,0.425c0,0.412,0,0.824,0,1.236c-0.25,0.63-0.539,0.229-0.756,0.347
		c-0.287,0.156-0.743,0.562-1.081,0.657c-0.216,0.013-0.432,0.026-0.648,0.039c-0.347,0.126-0.433,0.466-0.865,0.502
		c-0.658-0.37-1.016-1.372-1.476-1.97c-0.199-0.258-0.571-0.114-0.793-0.348c0-0.244,0.031-0.293,0.109-0.425
		c1.881-0.047,1.629,0.837,2.557,1.816c0.795-0.008,1.601-0.687,2.017-1.159c-0.036-0.167-0.072-0.335-0.108-0.502
		c-0.04-0.389,0.136-0.648,0.036-1.043c-0.096-0.025-0.192-0.051-0.288-0.077c-0.366,0.167-0.571,0.511-0.936,0.618
		c-0.012-0.013-0.024-0.026-0.036-0.039c-0.038-0.389-0.017-0.504,0.144-0.734c0.539-0.186,0.288-0.385,0.612-0.618
		C125.711,163.678,125.999,163.614,126.288,163.549L126.288,163.549z M108.23,162.661c1.565-0.009,2.316,0.12,3.138,0.964
		c-0.014,0.103-0.027,0.205-0.04,0.308c-0.081,0.162-0.159,0.192-0.322,0.27c-0.749-0.128-1.316-0.696-1.971-0.887
		c-0.369-0.108-0.843-0.033-1.127-0.193c0-0.013,0-0.026,0-0.038C107.941,162.795,108.043,162.788,108.23,162.661L108.23,162.661z
		 M88.975,161.789c0.828-0.187,2.157,0.301,1.899,1.314c-0.035,0.171-0.062,0.213-0.22,0.306c-0.441,0.286-1.589-0.025-2.464-0.061
		c-0.821-0.034-1.614,0.139-2.175-0.291c-0.009-0.049-0.018-0.098-0.027-0.146c0.073-0.102,0.146-0.204,0.22-0.306
		c0.397-0.066,2.399-0.266,2.609-0.596C88.87,161.934,88.922,161.861,88.975,161.789L88.975,161.789z M107.25,164.816
		c0.884,0.068,0.524,1.12,1.086,1.465c0.478,0.38,0.991-0.268,1.529-0.154c0.063,0.014,0.105-0.01,0.164-0.003
		c0.026-0.013,0.105-0.026,0.132-0.038c0.038-0.023,0.076-0.029,0.106-0.036c0.108,0.013,0.215,0.026,0.322,0.038
		c0.094,0.077,0.188,0.154,0.282,0.232c-0.007,0.266-0.054,0.28-0.161,0.424c-0.834,0.309-2.355,0.453-2.534,1.388
		c-0.071,0.369-0.001,0.761-0.121,1.157c-0.104,0.343-0.372,0.489-0.402,0.925c0.053,0.09,0.107,0.18,0.161,0.269
		c1.474,0.393,3.482-1.625,4.988-0.115c-0.013,0.102-0.026,0.205-0.04,0.308c-0.08,0.051-0.161,0.103-0.241,0.154
		c-0.223,0.108-0.676,0.102-0.885,0c-0.058-0.058-0.127-0.105-0.2-0.095c-0.756,0.11-1.136,0.014-1.892,0.018
		c-0.173,0-0.524,0.291-0.764,0.347c-0.517,0.12-1.048-0.005-1.569,0.115c-0.375,0.167-0.751,0.334-1.126,0.501
		c-0.805,0.296-1.832,0.581-2.575,0.81c-0.702,0.215-1.383-0.223-1.649-0.655c0.013-0.038,0.027-0.077,0.04-0.115
		c0.072-0.159,0.158-0.237,0.322-0.309c0.475-0.229,0.903,0.2,1.408,0.154c0.987-0.089,2.118-0.465,2.815-0.887
		c0.156-0.473,0.266-1.91-0.12-2.235c-0.774-0.358-2.068,0.409-3.017-0.193c0.012-0.216,0.041-0.225,0.121-0.347
		c0.939-0.183,2.829-0.349,3.298-1.118C107.117,166.181,106.728,165.312,107.25,164.816L107.25,164.816z M85.734,165.152
		c0.862-0.192,2.018,0.147,2.237,0.797c0.2,0.592-1.231,2.176-1.785,2.072c-0.576-0.167,0.131-1.072,0.265-1.336
		c-0.261-0.466-0.58-0.479-0.932-0.774c-0.061-0.252-0.112-0.379-0.064-0.556C85.549,165.287,85.642,165.22,85.734,165.152
		L85.734,165.152z M85.309,169.03c0.104-0.006,0.208-0.013,0.312-0.02c0.168,0.263,0.422,0.563,0.658,0.786
		c0.352,0.333,1.456,0.234,1.273,1.127c-0.043,0.213-0.156,0.395-0.338,0.517c-0.238,0.122-0.709,0.311-0.946,0.214
		c-0.289-0.118-0.149-0.406-0.313-0.624C85.559,170.502,84.532,169.898,85.309,169.03L85.309,169.03z"/>
	<circle id="白色底_2_" fill="none" cx="96.017" cy="95.787" r="60.112"/>
	<polygon id="绿色底_2_" fill="none" points="96.403,72.018 147.404,72.018 121.903,116.187 96.403,160.356 70.902,116.187 
		45.401,72.018 	"/>
	<path id="内黄底_2_" fill="none" d="M95.682,75.836l-0.01,1.813l-0.749,0.08l-4.162,1.539v0.91l0.94,0.019l-0.034,2.479
		l-0.517,0.071c-0.437,0.045-12.016,0.856-16.057,13.729l-0.134,0.616l-5.558-0.107l-0.018,5.852l-5.208,0.003l0.377,0.627
		l15.498,26.141l15.945-0.028l15.654,0.091l16.45-26.647l-0.892-0.222l-4.371,0.018v-5.647l-5.513-0.12l-0.094-0.415
		c-3.707-12.551-15.751-13.897-15.789-13.903l-0.736-0.054l-0.054-2.542l0.91,0.013l-0.04-0.763l-4.106-1.582l-0.738-0.144
		l0.031-3.461l-0.553-0.91l-0.472,0.892V75.836z"/>
	<path id="大礼堂轮廓_2_" d="M95.614,75.901l-0.01,1.813l-0.749,0.08l-4.162,1.539v0.91l0.94,0.019l-0.034,2.479l-0.517,0.071
		c-0.437,0.045-12.016,0.856-16.057,13.729l-0.134,0.616l-5.558-0.107l-0.018,5.852l-5.208,0.003l0.377,0.627l15.498,26.141
		l15.945-0.028l15.654,0.091l16.45-26.647l-0.892-0.222l-4.371,0.018v-5.647l-5.513-0.12l-0.094-0.415
		c-3.707-12.551-15.751-13.897-15.789-13.903l-0.736-0.054l-0.054-2.542l0.91,0.013l-0.04-0.763l-4.106-1.582l-0.738-0.144
		l0.031-3.461l-0.553-0.91l-0.472,0.892V75.901z M94.444,75.434l0.018-1.604l0.285-0.152l1.338-0.892l1.017,0.66l0.58,0.303
		l-0.014,1.445l-0.016,1.61l2.649,1.131l2.337,1.251l-0.016,0.642l0.014,1.437l-1.167,0.003l-0.002,0.561
		c3.553,0.518,12.272,2.053,16.589,14.401h5.914l-0.027,5.453l4.068,0.009l1.592,0.013l0.294,0.455l-0.217,0.396l-0.265,0.445
		l-16.783,28.891l-0.182,0.305l-0.356,0.003l-16.164,0.126h-0.01l-16.164-0.126l-0.356-0.003l-0.182-0.305l-16.783-28.891
		l-0.265-0.445l0.384-0.346l0.765-0.29l0.764,0.034l4.169,0.001l0-5.656l5.861-0.069c3.747-12.589,13.912-13.629,16.485-14.159
		l0.018-0.839l-1.088-0.027l-0.027-1.94v-0.455l0.274-0.155l4.609-1.737l0.055-1.279L94.444,75.434z M89.776,78.656l4.684-1.799
		l-0.047,0.301"/>
	<path id="内三角_2_" stroke="#000000" stroke-width="0.2132" stroke-miterlimit="10" d="M151.057,69.961l-2.393,4.105
		l-50.302,86.291L96,164.409l-2.362-4.052L43.335,74.065l-2.393-4.105H151.057L151.057,69.961z M144.371,74.391l-96.323-0.22
		l48.002,83.467l46.4-79.92L144.371,74.391z"/>
	<path fill-rule="evenodd" clip-rule="evenodd" stroke="#000000" stroke-width="0.25" stroke-miterlimit="10" d="M44.756,111.563
		l-0.013,7.868h-1.164l0.022-6.264l-1.976,1.42v-1.097c1.325-0.994,1.538-1.163,2.283-1.915h0.769L44.756,111.563z M46.806,117.595
		h0.915c0.083,0.889,0.513,1.334,1.292,1.334c0.944,0.06,1.541-0.965,1.792-3.081h-0.043c-0.305,0.612-0.874,0.934-1.708,0.966
		c-1.498-0.063-2.276-0.952-2.332-2.669c0.084-1.809,0.889-2.759,2.415-2.85c1.694,0.032,2.57,1.302,2.625,3.818
		c-0.112,3.004-1.027,4.536-2.749,4.597C47.625,119.649,46.889,118.944,46.806,117.595L46.806,117.595z M49.221,115.894
		c0.917-0.032,1.388-0.659,1.416-1.886c-0.055-1.133-0.556-1.716-1.5-1.748c-0.944,0.063-1.429,0.675-1.457,1.84
		C47.651,115.327,48.166,115.925,49.221,115.894L49.221,115.894z M56.326,115.572c-0.028-2.176-0.566-3.28-1.612-3.312
		c-1.075,0-1.597,1.105-1.568,3.312c0,2.207,0.523,3.31,1.568,3.31C55.76,118.882,56.298,117.779,56.326,115.572L56.326,115.572z
		 M57.361,115.572c-0.085,2.698-0.968,4.077-2.649,4.138c-1.737-0.061-2.62-1.44-2.649-4.138c0.029-2.79,0.912-4.216,2.649-4.277
		C56.393,111.356,57.275,112.782,57.361,115.572L57.361,115.572z M58.753,113.864l-1.106-0.027c0.062-1.918,0.935-2.536,2.667-2.596
		c1.481,0.121,2.256,0.985,2.368,2.485c0.056,1.141-0.7,1.853-1.869,2.85l-0.74,0.633c-0.723,0.617-0.808,0.669-0.892,1.24
		l3.501,0.003v0.945h-5.053c0.062-1.501,0.656-1.981,1.784-2.955l1.07-0.883c0.854-0.66,1.249-1.128,1.192-1.879
		c-0.083-0.93-0.405-1.302-1.326-1.332C59.371,112.348,58.842,112.499,58.753,113.864L58.753,113.864z"/>
	<path id="东南大学_2_" fill-rule="evenodd" clip-rule="evenodd" d="M116.418,56.268c-0.021-0.208-0.026-0.276-0.04-0.843
		c-0.01-0.377-0.002-0.606-0.051-0.961c-0.143-1.037-0.069-0.727-0.298-1.51c-0.03-0.104-0.159-0.886-0.17-0.994
		c-0.036-0.348,0.121-0.612,0.259-0.687c0.214-0.116,0.502,0.196,0.628,0.36c0.361,0.47,0.521,0.907,0.57,1.189
		c0.036,0.208,0.15,1.186,0.152,1.204c0.035,0.501,0.093,1.023,0.143,1.49c0.054,0.5-0.098,0.571,0.151,0.86
		c0.123,0.142,0.292,0.078,0.343,0.078c0.329-0.073,0.386-0.5,0.34-0.868c-0.13-1.053-0.301-1.218-0.415-1.862
		c-0.08-0.455-0.067-0.514-0.1-0.74c-0.026-0.177-0.081-0.439-0.123-1.302c-0.027-0.553-0.007-0.568,0.096-1.019
		c0.081-0.356,0.222-0.571,0.377-0.631c0.42-0.165,0.685-0.101,0.707,0.083c0.123,1.024,0.14,1.122,0.158,1.816
		c0.019,0.711,0.091,0.855,0.109,1.268c0.019,0.426,0.143,1.051,0.167,1.673c0.028,0.723,0.171,1.642,0.69,0.951
		c0.187-0.249,0.026-0.546,0.066-0.871c0.046-0.375-0.014-0.451,0.033-0.863c0.08-0.7-0.027-0.897,0.027-1.847
		c0.017-0.295,0.264-0.457,0.254-0.524c-0.018-0.125-0.016-0.09-0.196-0.562c-0.187-0.491,0.116-2.513,0.143-3.437
		c0.01-0.335-0.062-1.011,0.234-1.345c0.175-0.198,0.468-0.082,0.758,0.064l0.178,0.15c0.02,0.281-0.508,0.876,0.87,0.234
		c0.281-0.131,0.823-0.462,1.238-0.288c0.343,0.144,0.107,0.858,0.107,0.87c-0.013,0.095-0.888,0.38-1.211,0.579
		c-0.682,0.419-1.64,0.119-1.565,1.89c-0.008,0.178-0.007,0.555-0.02,0.923c-0.01,0.27,0.443-0.201,0.716-0.201
		c0.136,0,0.389,0.246,0.411,0.261c0.096,0.065,0.281,0.254,0.217,0.184c0.088,0.097,0.146,0.174,0.154,0.231
		c0.037,0.268,0.043,0.877,0.415,0.739c0.517-0.192,0.271-0.099,0.616-0.254c0.165-0.074,0.562,0.007,0.836-0.047
		c0.356-0.069,0.456-0.68,0.475-0.997c0.036-0.589-0.009-0.744-0.227-0.923c-0.306-0.251-0.771-0.174-1.372,0
		c-0.716,0.207-0.936,0.856-1.308,0.83c-0.029-0.002-0.292-0.059-0.321-0.064c-0.013-0.108,0.007-0.137,0.081-0.296
		c0.423-0.904,3.143-2.539,4.111-1.223c0.529,0.719,0.341,1.439,0.201,2.092c-0.134,0.624-0.337,1.096-0.455,1.561
		c-0.104,0.409-0.066,0.437-0.143,0.883c-0.072,0.422-0.061,0.303-0.134,0.664c-0.051,0.255-0.257,0.892-0.071,0.972
		c0.421,0.171,1.094-0.003,1.459-0.087c0.666-0.154,1.887,0.202,2.163,0.502c0.329,0.357-0.484,1.234-0.767,1.392
		c-0.294,0.06-1.169,0.832-1.463,0.892c-0.626,0.359-0.605,0.319-1.231,0.678c-0.681,0.256-1.619-0.259-1.124,0.283
		c0.276,0.302,0.155,0.625-0.055,1.152c-0.211,0.079-0.651,0.349-0.873,0.465c-0.239,0.306-0.247,0.289-0.321,0.446
		c-0.252,0.53-0.932,1.311-0.393,1.295c1.333-0.04,1.053,1.274,1.053,1.274s0.479-0.129,1.053-0.062
		c0.545,0.063,1.007-0.055,1.302,0.018c0.614,0.152,1.164,0.852,1.405,1.34c0.092,0.186,0.025,0.368-0.154,0.428
		c-0.201,0.067-0.424,0.174-0.591,0.06c-0.377-0.257-0.44-0.488-0.767-0.544c-0.758-0.131-2.228-0.152-2.228-0.152
		s-0.081,0.856-0.094,0.897c-0.13,0.403-0.596,1.11-0.789,1.385c-0.361,0.515-1.195,0.909-1.612,1.01
		c-1.94,0.468-2.74-0.922-2.404-2.935c0.116-0.696,0.648-1.117,1.302-1.293c0.553-0.149,1.575-0.025,1.543-0.544
		c-0.027-0.437-0.105-0.197-0.348-0.482c-0.598-0.701-0.097-0.947,0.268-1.322c0.231-0.238,0.226-0.3,0.335-0.475
		c0.081-0.129,0.187-0.391,0.207-0.522c0.03-0.197-0.268-0.114-0.569-0.077c-0.734,0.09-0.786,0.375-1.325,0.22
		c-0.231-0.066-0.417-0.233-0.308-0.397c0.232-0.348,0.202-0.386,0.459-0.508c0.324-0.155,0.424-0.214,0.845-0.448
		c0.604-0.336,0.814-0.449,1.151-0.475c0.245,0.091,0.58,0.204,0.913,0.144c0.623-0.112,0.585-0.175,1.147-0.612
		c0.468-0.364,1.17-0.902,1.445-1.187c0.056-0.058,0.329-0.229,0.645-0.576c0.066-0.073,0.078-0.122,0.074-0.268
		c-0.002-0.064,0.013-0.114-0.023-0.194c-0.037-0.08-0.19-0.1-0.405-0.023c-0.141,0.05-0.221,0.077-0.364,0.149
		c-0.024,0.012-0.386,0.202-0.41,0.214c-0.167,0.087-0.24,0.092-0.4,0.172c-0.392,0.195-0.304,0.166-0.754,0.247
		c-0.089,0.016-0.36,0.142-0.654,0.239c-0.246,0.082-0.365,0.348-0.499,0.055c-0.054-0.117-0.1-0.227-0.07-0.385
		c0.031-0.159,0.064-0.13,0.081-0.301c0.005-0.052-0.007-0.151-0.058-0.164c-0.085-0.022,0.077,0.025-0.191-0.047
		c-0.188-0.05-0.495,0.16-0.461,0.137c0.257-0.176-0.125,0.127-0.432,0.161c-0.163,0.018-0.254,0.171-0.388,0.298
		c-0.208,0.197-0.368,0.288-0.575,0.318c-0.31,0.045-0.321-0.161-0.669-0.254c-0.342-0.092-0.704,0.099-0.934,0.308
		c-0.137,0.124-0.089,0.107-0.41,0.223c-0.096,0.035-0.348,0.08-0.733-0.056c-0.249-0.088-0.079-0.145-0.588-0.145
		c-0.276,0-0.355,0.103-0.785-0.049c-0.169-0.06-0.303-0.2-0.369-0.345 M67.209,47.306c0.654-0.011,1.238,0.402,1.419,0.85
		c0.201,0.495,0.134,0.674,0.134,1.004c0,0.368-0.021,0.747-0.04,0.91c-0.031,0.269-0.039,0.368,0,0.756
		c0.029,0.282,0.411,0.335,0.656,0.56c0.244,0.225,0.298,0.673,0.169,1.008c-0.119,0.207-0.314,0.335-0.508,0.41
		c-0.281,0.108-0.546,0.163-0.452,0.667c0.069,0.053,0.139,0.106,0.209,0.159c0.518,0.129,1.061-0.061,1.457-0.139
		c0.856-0.169,1.366-0.246,2.131-0.299c0.358-0.069,0.877-0.12,1.294-0.156c0.451,0.24,1.053,1.309,0.705,2.096
		c-0.537,1.196-2.567,1.952-3.434,2.944c-0.273,0.312-0.556,0.55-0.776,0.821c-0.335,0.41-0.66,0.611-1.085,0.936
		c-0.312,0.238-0.633,0.374-0.874,0.687c-0.181,0.119-0.219,0.268-0.437,0.509c-0.25,0.276-0.231,1.948-0.218,2.426
		c0.018,0.669-0.027,1.34,0.02,1.902c0.01,0.117,0.12,0.328,0.214,0.649c0.031,0.104,0.056,0.511,0.054,0.656
		c0,0,0.069,0.495-0.038,0.816c-0.088,0.265-0.532,0.403-0.74,0.589c-0.153-0.013-0.427-0.032-0.58-0.045
		c-0.382-0.175-0.775-0.541-1.088-0.776c-0.54-0.405-1.058-0.317-1.16-1.053c-0.042-0.306-0.002-0.214,0.085-0.334
		c0.018-0.025,0.392,0.01,0.42-0.003c0.482,0.006,0.815,0.046,1.252,0.023c0.5-0.027,0.375-0.444,0.429-0.854
		c0.043-0.329,0-0.428-0.018-0.937c-0.011-0.326,0.024-0.637-0.199-0.876c-0.014,0-0.028,0-0.042,0
		c-1.049,0.762-3.158,2.853-4.965,2.545c-0.014-0.133-0.028-0.265-0.042-0.398c0.802-0.403,1.371-0.99,2.003-1.551
		c1.354-1.202,1.645-1.455,2.95-2.956c0.016-0.019,0.023-0.102,0.018-0.28c-0.002-0.082,0.024-0.328-0.009-0.339
		c-0.174-0.061-0.135-0.029-0.268-0.022c-0.349,0.019-0.197,0.016-0.691,0.058c-0.98,0.083-2.288,0.656-2.752,0.018
		c-0.237-0.327-0.189-0.78-0.259-1.178c-0.15-0.291-0.262-0.797-0.491-1.097c-0.189-0.248-0.723-0.636-0.835-0.885
		c-0.126-0.279,0.129-0.449,0.209-0.557c0.918-0.266,1.31,0.207,1.927,0.489c0.263,0.12,0.669,0.003,0.977-0.013
		c0.502-0.027,0.903-0.057,1.175-0.108c0.866-0.164,1.304-0.281,1.287-0.761c-0.004-0.112,0.018-0.06,0.013-0.368
		c-0.001-0.09-0.004-0.206-0.033-0.254c-0.015-0.025-0.21-0.054-0.294-0.02c-0.422,0.169-0.573,0.214-0.93,0.241
		c-0.997,0.074-1.736,0.18-2.388-0.388c-0.207-0.181-0.108-0.509-0.094-0.616c0.028-0.04,0.421-0.077,0.468-0.087
		c1.279-0.266,0.908-0.158,1.579-0.294c0.286-0.058,1.688,0.031,1.677-0.5c-0.006-0.321,0.072-0.729-0.091-0.862
		c-0.356-0.293-0.426-0.053-0.884-0.042c-0.613,0.015-1.285,0.019-1.928-0.751c0-0.292,0.052-0.323,0.167-0.477
		c0.839-0.127,1.624-0.174,2.115-0.246c0.371-0.054,0.627-0.073,0.642-0.348c0.037-0.655,0.016-1.245,0.027-1.539
		c0.016-0.427-0.001-0.329-0.656-1.258c-0.046-0.065-0.042-0.427-0.042-0.507c0.061-0.081,0.177-0.253,0.27-0.31
		C66.411,47.336,66.862,47.525,67.209,47.306L67.209,47.306z M101.554,51.662c0.002-0.079,0.018-1.567,0.036-1.624
		c0.051-0.162,0.051-0.328,0.113-0.39l0.066-0.074c0.504-0.243,0.726-0.028,0.861,0.215c0.128,0.361,0.094,1.621,0.085,1.909
		c-0.029,0.91-0.018,0.955-0.036,1.624c-0.011,0.415,0.071,1.433,0.08,1.766c0.01,0.345,0.035,0.608,0.071,0.758
		c0.046,0.187,0.11,0.363,0.41,0.419c0.669,0.125,1.112,0.004,2.221-0.455c0.883-0.366,1.207-0.361,1.74-0.803
		c0.366-0.303,0.383-0.713,0.601-0.743c0.372-0.051,0.463,0.136,0.586,0.136c0.209,0.272,0.741,1.6,0.598,1.98
		c-0.093,0.201-0.093,0.201-0.449,0.287c-0.874,0.21-1.277,0.25-2.075,0.516c-0.328,0.11-0.544,0.158-0.883,0.294
		c-0.517,0.208-0.576,0.268-1.176,0.427c-0.969,0.257-2.262,0.331-2.276,1.304c-0.014,0.955,0.027,0.749-0.116,1.552
		c-0.066,0.369-0.154,0.818-0.302,1.247c-0.132,0.381-0.151,0.689-0.34,1.045c-0.537,1.01-0.665,1.173-1.641,1.481
		c-1.001,0.315-2.273,0.562-2.928,0.159c-0.048-0.167-0.071-0.26-0.037-0.45c0.417-0.512,1.164-0.754,1.708-1.06
		c0.589-0.331,0.843-0.486,1.334-1.236c0.263-0.402,0.725-1.417,0.847-1.882c0.084-0.318,0.217-0.787,0.231-1.06
		c0.017-0.331,0.043-0.261-0.007-0.619c-0.597-0.299-1.424-0.267-2.097-0.569c-0.357-0.16-0.825-0.551-1.03-0.91
		c-0.335-0.584-0.161-0.031-0.397,0.312c-0.097,0.14-0.201-0.128-0.352-0.259c-0.153-0.132-0.513-0.156-0.562-0.277
		c-0.048-0.118-0.124-0.391-0.027-0.473c0.214-0.178,0.486-0.196,0.709,0.054c0.271,0.303,0.493,0.479,0.843,0.241
		c0.197-0.134,0.722-0.09,0.897-0.087c0.281,0.004,0.835,0.036,1.084,0.027c0.251-0.01,0.525,0.033,0.776,0.016
		c0.466-0.032,0.494,0.061,0.62-0.298c0.263-0.755,0.172-0.97,0.156-1.812 M90.867,60.395c0.083-0.286,0.196-1.088,0.268-1.508
		c0.07-0.41,0.119-1.048,0.12-1.61c0.002-0.666-0.176-0.818-0.435-0.825c-1.191-0.033-2.245-0.181-3.294,0.025
		c-0.519,0.102-0.584,0.104-0.807,0.158c-0.045,0.011-0.166,0.112-0.164,0.158c0.013,0.325,0.017,0.204,0.021,0.41
		c0.002,0.102,0.013,0.657-0.078,0.704c-0.214,0.111-0.859,0.412-1.104,0.813c-0.106,0.175-0.207,0.221-0.094,0.435
		c0.053,0.099,0.416-0.008,0.622-0.134c0.494-0.302,0.711-0.532,1.326-0.555c0.158,0.115,0.317,0.229,0.475,0.344
		c-0.013,0.064-0.026,0.128-0.039,0.191c-0.266,0.442-1.715,0.445-2.245,0.966c0.013,0.115,0.006,0.281,0.002,0.519
		c-0.006,0.281-0.129,0.496,0.134,0.602c0.377-0.051,0.433-0.274,0.843-0.314c0.119,0.064,0.37,0.03,0.488,0.094
		c0.053,0.166,0.053,0.166-0.04,0.428c-0.133,0.377-0.184,0.362-0.308,0.421c-0.388,0.187-0.753,0.089-1.117,0.268
		c-0.16,0.86,0.141,1.992-0.239,2.897c-0.277,0.66-0.2,0.7-0.735,1.291c-0.221,0.244-0.691,0.646-0.873,0.609
		c-0.138-0.028-0.551-0.169-0.551-0.526c0-0.39,0.151-0.179,0.348-0.366c0.297-0.284,0.338-0.427,0.53-0.878
		c0.069-0.162,0.089-0.293,0.175-0.566c0.062-0.195,0.158-0.459,0.145-0.663c0.043-0.178-0.002-0.232,0.015-0.533
		c0.018-0.312-0.127-0.609-0.381-0.549c-0.337,0.08-0.569,0.214-1.124,0.241c-0.37,0.018-0.846,0.102-1.044-0.161
		c-0.002-0.246,0.011-0.231,0.094-0.368c0.689-0.164,1.219-0.324,1.813-0.488c0.27-0.075,0.41-0.058,0.567-0.214
		c0.117-0.116,0.053-0.219,0.049-0.362c-0.013-0.433-0.033-0.862-0.033-0.862s-0.809,0.301-1.245,0.534
		c-0.341,0.182-0.51,0.264-0.91-0.013c-0.241-0.167-0.21-0.284-0.161-0.401c0.107-0.254,0.04-0.308,0.007-0.709
		c-0.07-0.841-0.55-0.754-0.93-1.104c-0.075-0.069-0.221-0.201-0.194-0.406c0.069-0.527,0.796-0.808,1.067-1.162
		c0.215-0.281,0.288-0.398,0.492-0.787c0.113-0.215,0.229-0.495,0.328-0.716c0.233-0.52,0.763-1.418,0.696-2.235
		c-0.019-0.231-0.271-0.515-0.442-0.555c-0.442-0.104-0.64-0.149-0.983-0.033c-0.365,0.123-0.617,0.226-1.01-0.1
		c-0.321-0.267-0.476-0.572-0.232-0.721c0.383-0.137,1.107-0.023,1.476-0.022c0.637,0.002,0.841-0.033,1.305-0.017
		c0.191,0.007,0.164-0.063,0.171-0.207c0.023-0.478-0.045-1.342,0.013-1.78c0.013-0.098-0.045-0.28,0.046-0.339
		c0.104-0.067,0.371-0.214,0.496-0.166c0.417,0.159,1.204,0.765,0.815,0.46c-0.029-0.023,0.282,0.174,0.249,0.405
		c-0.076,0.544-0.232,0.573-0.205,1.035c0.023,0.398,0.102,0.504,0.763,0.312c0.543-0.157,1.19-0.523,1.666-0.566
		c0.207,0.101,0.304,0.293,0.234,0.515c-0.207,0.656-0.658,0.719-1.291,0.905c-0.368,0.108-0.693,0.151-1.017,0.265
		c-0.425,0.15-0.366,0.087-0.555,0.268c-0.415,0.395-0.386,0.709-0.513,1.097c-0.158,0.484-0.322,0.829-0.491,1.258
		c-0.078,0.198-0.184,0.584-0.271,0.796c-0.103,0.251-0.362,0.886-0.456,1.028c-0.189,0.283-0.12,0.201-0.294,0.5
		c-0.069,0.119-0.065,0.397,0.071,0.382c0.375-0.04,0.42-0.001,0.699-0.188c0.224-0.15,0.759-0.546,0.846-0.421
		c0.207,0.298-0.232,0.665-0.455,0.95c-0.21,0.269-0.563,0.548-0.636,0.636c-0.049,0.059-0.182,0.677,0.172,0.512l0.784-0.667
		c0.556-0.356,1.174-1.507,1.011-1.939c-0.141-0.285-0.191-0.335-0.204-0.626c-0.004-0.089,0.084-0.261,0.211-0.368
		c0.11-0.094,0.318-0.164,0.345-0.177c1.891-0.355,2.22-0.195,3.935-0.548c0.29,0,0.819-0.105,1.106-0.143
		c0.936-0.124,1.439-0.325,1.731,0.651c0.384,1.285,0.395,1.722,0.268,2.748c-0.066,0.532-0.195,1.084-0.351,1.597
		c-0.149,0.493-0.212,0.812-0.309,1.124c-0.102,0.33-0.187,0.642-0.357,1.113c-0.137,0.38-0.327,0.936-0.562,1.456
		c-0.354,0.781-0.695,1.751-1.731,1.793c-0.877-0.419-1.626-1.156-2.204-1.88c-0.08-0.1-0.135-0.376,0.03-0.401
		c0.519-0.08,1.774,0.263,2.255-0.06c0.468-0.315,0.632-0.719,0.897-1.425 M120.43,51.827c0.254,0.21,0.357,0.281,0.357,0.415
		c-0.001,0.753-0.029,1.883-0.08,2.48c-0.022,0.26,0.582-0.195,0.629-0.33c0.099-0.283,0.291-0.487,0.317-0.999
		c0.018-0.366,0.008-0.562,0.009-0.821c0.001-0.274,0.019-0.462-0.196-0.473l-0.419-0.125L120.43,51.827z M124.439,52.344
		c-0.251,0.154-0.186,0.224-0.46,0.431c-0.123,0.093-0.511,0.4-0.744,0.519c-0.218,0.111-0.195,0.032-0.301-0.114
		c-0.283-0.095-0.388-0.05-0.401,0.261c-0.018,0.423-0.047,0.455-0.04,0.766c0.006,0.282-0.019,0.324-0.003,0.619
		c0.003,0.054,0.036,0.632,0.081,0.662c0.288,0.192,0.64,0.052,0.914,0.018c1.001-0.125,0.577-0.799,0.129-0.847
		c-0.481-0.052-0.535-0.08-0.517-0.589c0-0.012-0.073-0.405,0.004-0.539c0.142-0.244,0.107-0.222,0.375-0.385
		c0.142-0.086,0.392-0.154,0.473-0.036c0.066,0.097,0.012,0.324,0.018,0.486c0.009,0.253-0.009,0.772,0.227,0.562
		c0.175-0.155,0.326-0.493,0.491-0.928c0.143-0.376,0.194-0.479,0.173-0.784c-0.01-0.147-0.11-0.156-0.174-0.167L124.439,52.344z
		 M69.921,54.882c-0.75,0.1-1.927-0.277-1.82,0.963c0.037,0.432,0.3,0.314,0.562,0.303c0.412-0.017,0.82-0.088,1.004,0.085
		c0.094,0.088,0.158,0.295,0.161,0.486c0.003,0.227-0.195,0.467-0.254,0.526c-0.103,0.103-0.247,0.034-0.393,0.036
		c-0.539,0.007-1.096-0.134-1.062,0.321c0.042,0.549,0.027,1.211,0.693,0.696c0.66-0.51,2.546-2.109,2.986-2.836
		c0.232-0.384,0.21-0.711,0.112-0.768c-0.256-0.126-0.598-0.062-1.026,0.027L69.921,54.882z M114.141,56.612
		c0.41-0.152,0.74,0.641,0.785,0.937c0.12,0.79-0.058,1.341-0.452,2.389c-0.234,0.624-1.857,1.135-1.903,0.6
		c-0.125-1.427,0.637-1.515,0.925-2.378c0.164-0.49,0.177-0.827,0.36-1.19L114.141,56.612z M65.67,57.843
		c-1.057,0.1-1.412-0.154-1.699,0.241c-0.14,0.193-0.229,0.46-0.221,0.629c0.011,0.247-0.034,0.574,0.294,0.609
		c0.663,0.07,0.95,0.054,1.733-0.027c0.404-0.041,0.555-0.207,0.625-0.638c0.032-0.199-0.003-0.218,0.006-0.555
		c0.002-0.062,0.033-0.24-0.069-0.252L65.67,57.843z M78.623,57.998c0.132,0,0.276-0.055,0.397,0
		c0.285,0.131,0.606,0.755,0.66,1.076c0.159,0.953,0.04,1.22,0.013,1.673c-0.029,0.5,0.005,0.605,0.04,0.888
		c0.067,0.544,0.355,0.799,0.346,1.089c-0.016,0.525,0.091,0.463-0.328,1.15c-0.143,0.234-0.418-0.028-0.517-0.178
		c-0.227-0.345-0.227-0.345-0.446-0.694c-0.299-0.477-0.812-0.637-0.598-1.652c0.214-1.015,0.217-0.344,0.214-1.115
		C78.402,59.344,78.114,58.573,78.623,57.998L78.623,57.998z M105.011,60.942c0.137-0.056,0.512,0.051,0.788,0.193
		c0.252,0.13,0.319,0.249,0.589,0.428c0.181,0.12,0.347,0.211,0.544,0.303c0.285,0.134,0.425,0.258,0.535,0.401
		c0.302,0.211,0.496,0.414,0.714,0.7c0.231,0.303,0.443,0.669,0.616,1.044c0.127,0.276,0.388,0.969,0.214,1.512
		c-0.029,0.09-0.368,0.344-0.429,0.416c-0.123-0.012-0.246-0.024-0.369-0.036c-0.648-0.307-1.476-0.701-1.811-1.316
		c-0.27-0.497-0.418-1.283-0.669-2.021 M69.952,62.54c1.175,0.197,1.919,0.506,2.806,0.754c0.981,0.274,1.412,0.444,1.463,1.142
		c0.039,0.528-0.089,0.833-0.468,1.49c-0.341,0.591-0.65,0.487-0.893,0.391c-0.143-0.056-0.22-0.155-0.324-0.291
		c-0.268-0.348-0.259-0.952-0.281-1.05c-0.134-0.602-1.51-1.041-2.275-1.507c-0.41-0.249-0.873-0.42-0.599-0.872
		c0.025-0.012,0.098-0.101,0.381-0.084L69.952,62.54z M121.656,64.596c-0.339-0.006-0.531-0.071-1.021,0.018
		c-0.5,0.091-0.638,0.259-1.026,0.607c-0.661,0.592,0.118,2.329,1.151,2.007c0.477-0.149,1.044-0.553,1.16-1.356
		c0.039-0.269,0.013-0.897,0.013-1.262L121.656,64.596z"/>
	<path id="大礼堂正面_2_" fill-rule="evenodd" clip-rule="evenodd" d="M79.627,112.714H80.4v-10.738
		c10.487,0,20.975,0,31.463,0v10.738l1.331,0.009l-0.009,1.453l-34.255-0.025l0.013-1.438L79.627,112.714z M79.056,115.465h34.184
		v2.782H79.056V115.465L79.056,115.465z M112.062,119.528v7.778h-3.707l0.013-5.261l-4.175-0.01v5.271h-5.995l0-5.265l-4.015,0.058
		l0.027,5.207h-6.209l-0.002-5.259l-3.986,0.079l0.027,5.18h-3.738v-7.778C90.89,119.528,101.476,119.528,112.062,119.528
		L112.062,119.528z M111.92,96.763l-15.718-5.276l-15.718,5.276H111.92L111.92,96.763z M92.889,104.201v8.397h6.227v-8.397H92.889
		L92.889,104.201z M90.038,112.599v-8.397h-6.227v8.397H90.038L90.038,112.599z M102.182,104.201v8.397h6.227v-8.397H102.182
		L102.182,104.201z M80.484,98.152h31.437v2.34H80.484V98.152L80.484,98.152z"/>
	<circle id="左点_2_" fill-rule="evenodd" clip-rule="evenodd" cx="45.401" cy="144.366" r="2.168"/>
	<g id="southeast_2_">
		<path d="M24.216,122.277l3.686-1.598l0.137,0.338c-0.869,0.537-1.461,1.233-1.777,2.086c-0.316,0.853-0.327,1.642-0.033,2.367
			c0.227,0.56,0.556,0.943,0.987,1.148c0.432,0.206,0.842,0.23,1.232,0.072c0.247-0.1,0.443-0.247,0.589-0.44
			c0.194-0.264,0.346-0.623,0.456-1.076c0.077-0.331,0.157-1.057,0.24-2.177c0.113-1.567,0.363-2.694,0.749-3.381
			c0.389-0.681,0.951-1.171,1.687-1.469c0.933-0.378,1.884-0.34,2.851,0.116s1.678,1.243,2.131,2.363
			c0.143,0.351,0.241,0.698,0.297,1.04c0.055,0.342,0.08,0.789,0.073,1.341c-0.003,0.308,0.03,0.547,0.099,0.717
			c0.058,0.143,0.174,0.272,0.348,0.386c0.174,0.115,0.394,0.176,0.659,0.184l0.124,0.305l-4.217,1.708l-0.124-0.305
			c1.088-0.722,1.804-1.553,2.148-2.495c0.344-0.941,0.355-1.81,0.033-2.606c-0.249-0.615-0.615-1.037-1.098-1.267
			c-0.483-0.23-0.946-0.254-1.391-0.074c-0.264,0.107-0.491,0.28-0.681,0.52c-0.19,0.24-0.339,0.548-0.446,0.923
			c-0.107,0.376-0.192,0.998-0.255,1.867c-0.088,1.218-0.218,2.121-0.389,2.708c-0.171,0.587-0.425,1.088-0.763,1.502
			c-0.337,0.415-0.766,0.727-1.288,0.939c-0.89,0.36-1.78,0.341-2.67-0.059c-0.891-0.4-1.537-1.097-1.94-2.091
			c-0.147-0.362-0.245-0.731-0.295-1.107c-0.039-0.285-0.044-0.649-0.015-1.092c0.028-0.443,0.013-0.738-0.047-0.886
			c-0.058-0.143-0.147-0.238-0.268-0.284c-0.121-0.047-0.364-0.038-0.728,0.026L24.216,122.277z"/>
		<path d="M21.076,109.423c-0.389-1.881-0.097-3.512,0.877-4.893c0.975-1.381,2.344-2.22,4.108-2.518
			c1.507-0.254,2.907-0.037,4.201,0.652c1.716,0.912,2.754,2.434,3.114,4.566c0.361,2.138-0.084,3.913-1.336,5.326
			c-0.989,1.116-2.269,1.807-3.841,2.072c-1.764,0.298-3.336-0.054-4.716-1.056C22.104,112.57,21.301,111.187,21.076,109.423z
			 M21.619,109.223c0.183,1.087,0.878,1.82,2.083,2.199c0.989,0.308,2.336,0.318,4.042,0.03c2.027-0.342,3.465-0.951,4.315-1.828
			c0.594-0.611,0.815-1.363,0.664-2.257c-0.102-0.602-0.332-1.079-0.693-1.433c-0.46-0.451-1.125-0.75-1.994-0.898
			c-0.869-0.148-1.964-0.11-3.284,0.113c-1.571,0.265-2.722,0.61-3.452,1.033c-0.731,0.424-1.218,0.889-1.463,1.396
			C21.592,108.085,21.519,108.633,21.619,109.223z"/>
		<path d="M19.914,97.155l0.423-6.206l0.328,0.022l-0.021,0.31c-0.032,0.467-0.005,0.791,0.081,0.972
			c0.086,0.181,0.212,0.314,0.378,0.4c0.166,0.086,0.592,0.152,1.278,0.199l5.886,0.401c1.076,0.073,1.793,0.041,2.153-0.098
			c0.36-0.139,0.668-0.386,0.923-0.743c0.256-0.356,0.403-0.819,0.442-1.386c0.045-0.65-0.064-1.214-0.325-1.692
			c-0.261-0.478-0.641-0.848-1.14-1.111c-0.499-0.263-1.386-0.437-2.663-0.525l-4.902-0.334c-0.538-0.037-0.926-0.007-1.164,0.09
			c-0.238,0.097-0.407,0.228-0.508,0.393c-0.154,0.257-0.248,0.627-0.281,1.112l-0.328-0.022l0.284-4.158l0.328,0.022L21.07,85.05
			c-0.023,0.337,0.026,0.622,0.146,0.856c0.121,0.234,0.313,0.41,0.578,0.529c0.184,0.09,0.521,0.151,1.012,0.185l4.565,0.311
			c1.413,0.096,2.426,0.259,3.039,0.488c0.614,0.229,1.159,0.722,1.636,1.479c0.477,0.757,0.673,1.759,0.588,3.006
			c-0.071,1.04-0.265,1.835-0.581,2.383c-0.431,0.749-0.953,1.262-1.566,1.541c-0.613,0.279-1.419,0.384-2.418,0.316l-5.886-0.402
			c-0.691-0.047-1.124-0.038-1.298,0.027c-0.174,0.065-0.317,0.189-0.43,0.371c-0.114,0.183-0.184,0.528-0.213,1.036L19.914,97.155z
			"/>
		<path d="M24.966,68.882l3.123,0.937l-0.092,0.306c-0.775-0.035-1.353,0.011-1.735,0.138c-0.381,0.127-0.724,0.355-1.027,0.685
			c-0.167,0.185-0.331,0.547-0.493,1.086l-0.258,0.86l8.902,2.672c0.59,0.177,0.969,0.255,1.136,0.234
			c0.167-0.021,0.335-0.11,0.502-0.267c0.168-0.157,0.301-0.4,0.4-0.729l0.115-0.383l0.315,0.094l-1.814,6.043l-0.315-0.095
			l0.115-0.383c0.101-0.335,0.122-0.622,0.064-0.862c-0.035-0.171-0.136-0.329-0.304-0.472c-0.117-0.103-0.465-0.242-1.044-0.415
			l-8.902-2.672l-0.25,0.834c-0.233,0.777-0.238,1.391-0.015,1.842c0.311,0.632,0.873,1.14,1.685,1.526l-0.097,0.323l-3.123-0.938
			L24.966,68.882z"/>
		<path d="M34.844,62.656l3.23,1.869c0.533,0.309,0.884,0.472,1.051,0.49c0.167,0.018,0.351-0.03,0.55-0.144
			c0.199-0.114,0.384-0.317,0.553-0.609l0.2-0.346l0.285,0.165l-3.155,5.453l-0.285-0.165l0.2-0.346
			c0.175-0.302,0.262-0.577,0.261-0.824c0.005-0.175-0.058-0.348-0.191-0.521c-0.091-0.128-0.397-0.343-0.92-0.645l-6.861-3.969
			c-0.533-0.308-0.883-0.473-1.049-0.494c-0.166-0.021-0.349,0.026-0.548,0.14c-0.199,0.114-0.383,0.317-0.553,0.609l-0.2,0.346
			L27.129,63.5l3.155-5.453l0.285,0.165l-0.201,0.346c-0.175,0.303-0.262,0.577-0.261,0.824c-0.005,0.175,0.057,0.351,0.187,0.529
			c0.091,0.128,0.397,0.343,0.92,0.645l2.954,1.709l2.131-3.684l-2.953-1.709c-0.533-0.308-0.883-0.473-1.049-0.494
			c-0.166-0.021-0.349,0.027-0.55,0.144c-0.201,0.117-0.386,0.321-0.555,0.613l-0.196,0.338l-0.284-0.165l3.15-5.446l0.285,0.165
			l-0.196,0.338c-0.178,0.308-0.265,0.582-0.261,0.824c-0.005,0.175,0.057,0.351,0.187,0.529c0.091,0.128,0.397,0.343,0.92,0.645
			l6.861,3.969c0.534,0.309,0.883,0.473,1.049,0.494c0.166,0.021,0.349-0.027,0.55-0.144c0.201-0.116,0.386-0.321,0.555-0.613
			l0.196-0.338l0.285,0.165l-3.15,5.446l-0.285-0.165l0.196-0.338c0.178-0.308,0.265-0.582,0.261-0.824
			c0.005-0.175-0.057-0.351-0.187-0.529c-0.091-0.128-0.397-0.343-0.92-0.645l-3.23-1.869L34.844,62.656z"/>
		<path d="M40.881,44.701l3.564,3.37l0.165-0.174c0.525-0.555,0.731-1.122,0.619-1.702c-0.113-0.579-0.476-1.225-1.091-1.937
			l0.232-0.245l4.584,4.335l-0.232,0.245c-0.548-0.42-1.06-0.698-1.535-0.834c-0.475-0.135-0.872-0.145-1.189-0.03
			c-0.317,0.116-0.673,0.382-1.068,0.8l2.466,2.332c0.482,0.456,0.796,0.714,0.943,0.775c0.146,0.061,0.307,0.068,0.482,0.021
			c0.174-0.047,0.38-0.195,0.616-0.445l0.495-0.523c0.773-0.818,1.204-1.652,1.291-2.503c0.087-0.851-0.155-1.75-0.726-2.698
			l0.226-0.239l2.41,3.025l-7.156,7.566l-0.239-0.226l0.275-0.291c0.24-0.254,0.388-0.501,0.444-0.741
			c0.046-0.169,0.024-0.353-0.066-0.551c-0.059-0.145-0.307-0.425-0.746-0.84l-5.759-5.446c-0.396-0.374-0.649-0.594-0.76-0.658
			c-0.192-0.099-0.383-0.13-0.575-0.091c-0.275,0.05-0.547,0.216-0.816,0.501l-0.275,0.291l-0.239-0.226l6.93-7.327l2.589,2.448
			l-0.232,0.245c-0.751-0.473-1.37-0.727-1.86-0.762c-0.489-0.035-0.994,0.094-1.514,0.385c-0.305,0.168-0.772,0.583-1.398,1.246
			L40.881,44.701z"/>
		<path d="M59.955,38.922l-3.547,2.352l0.226,1.257c0.078,0.418,0.187,0.732,0.328,0.945c0.187,0.281,0.438,0.413,0.753,0.396
			c0.186-0.009,0.553-0.168,1.102-0.475l0.182,0.274l-3.34,2.215l-0.182-0.274c0.324-0.293,0.522-0.639,0.591-1.037
			c0.07-0.398,0.022-1.093-0.145-2.084l-1.722-10.395l0.141-0.093l9.082,5.834c0.863,0.551,1.473,0.854,1.829,0.909
			c0.269,0.042,0.565-0.026,0.888-0.205l0.182,0.274l-4.858,3.221l-0.182-0.274l0.2-0.133c0.39-0.259,0.628-0.495,0.714-0.708
			c0.056-0.151,0.035-0.301-0.063-0.449c-0.059-0.089-0.134-0.17-0.226-0.245c-0.039-0.038-0.236-0.174-0.59-0.408L59.955,38.922z
			 M59.34,38.541l-3.789-2.466l0.753,4.48L59.34,38.541z"/>
		<path d="M71.868,23.343l1.541,3.71l-0.34,0.132c-0.524-0.877-1.21-1.48-2.058-1.809c-0.848-0.329-1.637-0.352-2.366-0.07
			c-0.564,0.218-0.952,0.542-1.164,0.97c-0.212,0.428-0.242,0.839-0.09,1.231c0.096,0.249,0.24,0.447,0.43,0.596
			c0.261,0.198,0.617,0.355,1.069,0.472c0.33,0.082,1.055,0.173,2.173,0.273c1.565,0.137,2.688,0.405,3.369,0.802
			c0.676,0.399,1.157,0.969,1.443,1.709c0.364,0.939,0.31,1.889-0.16,2.849c-0.47,0.96-1.268,1.658-2.395,2.095
			c-0.354,0.137-0.702,0.23-1.044,0.28c-0.343,0.05-0.79,0.068-1.342,0.053c-0.308-0.008-0.548,0.022-0.719,0.088
			c-0.144,0.056-0.274,0.17-0.392,0.342c-0.118,0.173-0.182,0.391-0.194,0.656l-0.307,0.119l-1.642-4.243l0.307-0.119
			c0.705,1.099,1.525,1.828,2.461,2.187c0.936,0.359,1.805,0.383,2.606,0.073c0.619-0.239,1.047-0.599,1.284-1.078
			c0.237-0.479,0.269-0.943,0.095-1.39c-0.103-0.265-0.272-0.495-0.51-0.689c-0.237-0.194-0.543-0.347-0.917-0.46
			c-0.374-0.112-0.995-0.207-1.863-0.284c-1.217-0.107-2.117-0.251-2.702-0.431c-0.584-0.18-1.081-0.442-1.49-0.786
			c-0.409-0.343-0.715-0.777-0.919-1.302c-0.346-0.895-0.313-1.784,0.101-2.669c0.414-0.884,1.12-1.52,2.12-1.907
			c0.365-0.141,0.735-0.234,1.112-0.278c0.285-0.034,0.649-0.034,1.092,0.001c0.443,0.035,0.738,0.024,0.888-0.034
			c0.143-0.056,0.24-0.144,0.288-0.264c0.049-0.12,0.044-0.363-0.015-0.728L71.868,23.343z"/>
		<path d="M89.138,19.929l0.515,3.22L89.337,23.2c-0.306-0.713-0.599-1.214-0.879-1.502c-0.28-0.288-0.635-0.497-1.063-0.626
			c-0.239-0.07-0.637-0.06-1.192,0.029l-0.886,0.142l1.468,9.178c0.097,0.609,0.192,0.983,0.283,1.125
			c0.092,0.141,0.245,0.253,0.459,0.336c0.214,0.083,0.491,0.097,0.83,0.043l0.395-0.063l0.052,0.325l-6.229,0.996l-0.052-0.325
			l0.395-0.063c0.345-0.055,0.613-0.161,0.804-0.317c0.139-0.106,0.237-0.266,0.292-0.479c0.042-0.151,0.015-0.524-0.08-1.121
			l-1.468-9.178l-0.86,0.137c-0.802,0.128-1.356,0.391-1.665,0.788c-0.433,0.555-0.647,1.282-0.641,2.181l-0.333,0.053l-0.515-3.22
			L89.138,19.929z"/>
	</g>
	<g>
		<path stroke="#000000" stroke-width="0.4" stroke-miterlimit="10" d="M137.333,118.868c0.192-0.015,0.261-0.162,0.206-0.444v-4.9
			h-6.762v6.21h-0.907c0.055-0.704,0.083-1.421,0.083-2.154v-2.577c0-0.676-0.028-1.379-0.083-2.112h3.587l0.207-1.183h-1.649
			c-0.688,0-1.484,0.028-2.392,0.084v-0.803c0.632,0.057,1.333,0.084,2.103,0.084h2.02c0.083-0.535,0.124-0.957,0.124-1.268
			c0.357,0.084,0.673,0.142,0.948,0.169c-0.11,0.311-0.193,0.676-0.248,1.099h2.763c0.467,0,0.975-0.014,1.525-0.042v0.718
			c-0.522-0.028-1.031-0.042-1.525-0.042h-2.845l-0.206,1.183h4.164c-0.055,0.648-0.082,1.225-0.082,1.732v4.225
			c-0.028,0.394-0.193,0.626-0.495,0.697c-0.303,0.07-0.646,0.148-1.031,0.232c-0.083-0.31-0.22-0.606-0.412-0.887
			C136.838,118.889,137.141,118.881,137.333,118.868z M131.603,115.298c0.384,0.057,0.866,0.084,1.443,0.084h1.402
			c0.165-0.225,0.302-0.45,0.412-0.676c0.11-0.225,0.261-0.521,0.454-0.887c0.274,0.141,0.591,0.282,0.948,0.422
			c-0.22,0.084-0.392,0.24-0.515,0.465c-0.124,0.226-0.268,0.451-0.433,0.676h0.495c0.274,0,0.604-0.014,0.99-0.042v0.718
			c-0.357-0.028-0.77-0.042-1.237-0.042h-0.948v0.845h1.195c0.577,0,1.003-0.014,1.278-0.042v0.76
			c-0.275-0.028-0.701-0.042-1.278-0.042h-1.195v0.718c0,0.367,0.013,0.732,0.041,1.099h-0.907c0.027-0.311,0.042-0.676,0.042-1.099
			v-0.718h-1.113c-0.605,0-1.072,0.015-1.402,0.042v-0.803c0.412,0.057,0.852,0.084,1.319,0.084h1.196v-0.845h-0.742
			c-0.55,0-1.031,0.014-1.443,0.042V115.298z M132.963,115.255c-0.11-0.225-0.234-0.429-0.371-0.612
			c-0.138-0.183-0.275-0.345-0.412-0.486c0.165-0.084,0.357-0.225,0.577-0.422c0.165,0.197,0.309,0.366,0.433,0.507
			c0.124,0.141,0.268,0.324,0.433,0.549C133.402,114.932,133.183,115.086,132.963,115.255z"/>
		<path stroke="#000000" stroke-width="0.4" stroke-miterlimit="10" d="M145.54,111.284h2.268c0.632,0,1.182-0.014,1.649-0.042
			v0.803c-0.467-0.028-1.017-0.042-1.649-0.042h-5.896c-0.522,0-1.072,0.015-1.649,0.042v-0.803c0.55,0.028,1.099,0.042,1.649,0.042
			h2.639c-0.083-0.253-0.275-0.633-0.577-1.141c0.33-0.112,0.591-0.225,0.783-0.338C145.031,110.257,145.292,110.75,145.54,111.284z
			 M140.963,119.269c-0.22-0.253-0.44-0.479-0.66-0.676c1.154-0.873,1.965-1.661,2.433-2.366c0.192,0.253,0.412,0.479,0.66,0.676
			C142.901,117.41,142.09,118.199,140.963,119.269z M147.931,114.538c0,0.62,0.014,1.098,0.042,1.436h-2.598v2.577
			c0,0.479-0.124,0.788-0.371,0.929c-0.248,0.141-0.715,0.253-1.402,0.338c-0.083-0.338-0.22-0.648-0.412-0.93
			c0.604,0.028,0.982,0.014,1.134-0.042c0.15-0.057,0.227-0.254,0.227-0.592v-2.281h-2.721c0.027-0.479,0.042-1.014,0.042-1.605
			c0-0.591-0.014-1.083-0.042-1.479h6.144C147.945,113.341,147.931,113.89,147.931,114.538z M147.106,115.255v-1.647h-4.412v1.647
			H147.106z M148.323,117.6c0.426,0.353,0.749,0.641,0.969,0.866c-0.221,0.226-0.44,0.465-0.66,0.718
			c-0.385-0.451-1.169-1.155-2.35-2.112c0.165-0.197,0.343-0.422,0.536-0.676C147.395,116.847,147.896,117.249,148.323,117.6z"/>
	</g>
	<g id="university_2_">
		<path d="M102.452,20.049l6.125,1.084l-0.057,0.324l-0.306-0.054c-0.461-0.082-0.786-0.089-0.975-0.024
			c-0.189,0.066-0.335,0.177-0.438,0.333c-0.103,0.156-0.214,0.573-0.334,1.249l-1.028,5.81c-0.188,1.062-0.232,1.778-0.133,2.151
			c0.1,0.373,0.313,0.705,0.64,0.998c0.327,0.292,0.771,0.488,1.331,0.587c0.642,0.114,1.214,0.066,1.717-0.143
			c0.503-0.209,0.912-0.547,1.226-1.015c0.314-0.468,0.583-1.332,0.806-2.592l0.856-4.839c0.094-0.531,0.105-0.92,0.035-1.167
			c-0.071-0.247-0.183-0.429-0.337-0.547c-0.239-0.181-0.598-0.313-1.076-0.398l0.057-0.324l4.104,0.726l-0.057,0.324l-0.245-0.043
			c-0.332-0.059-0.621-0.041-0.867,0.054c-0.246,0.095-0.441,0.268-0.588,0.519c-0.109,0.173-0.206,0.502-0.292,0.986l-0.797,4.506
			c-0.247,1.394-0.516,2.384-0.81,2.97c-0.293,0.586-0.842,1.075-1.645,1.469c-0.803,0.393-1.821,0.481-3.051,0.263
			c-1.027-0.182-1.796-0.459-2.307-0.832c-0.698-0.508-1.153-1.082-1.365-1.721c-0.212-0.639-0.23-1.452-0.056-2.438l1.028-5.81
			c0.121-0.682,0.158-1.114,0.112-1.293c-0.046-0.18-0.154-0.336-0.323-0.468c-0.169-0.132-0.505-0.24-1.008-0.323L102.452,20.049z"
			/>
		<path d="M122.955,25.131l2.607,9.186l1.996-4.781c0.278-0.667,0.371-1.158,0.278-1.473c-0.13-0.427-0.506-0.764-1.128-1.011
			l0.127-0.303l3.673,1.534l-0.127,0.303c-0.495-0.136-0.844-0.19-1.045-0.162c-0.201,0.028-0.392,0.132-0.572,0.31
			c-0.18,0.178-0.38,0.53-0.599,1.054l-3.865,9.257l-0.279-0.116l-3.654-12.397l-2.951,7.068c-0.267,0.64-0.301,1.133-0.102,1.479
			c0.199,0.346,0.487,0.598,0.864,0.756l0.262,0.11l-0.127,0.303l-3.944-1.647l0.127-0.304c0.614,0.25,1.093,0.303,1.437,0.157
			c0.343-0.146,0.638-0.514,0.884-1.104l3.277-7.847l-0.115-0.395c-0.112-0.393-0.239-0.674-0.38-0.842
			c-0.142-0.168-0.38-0.329-0.714-0.481l0.126-0.303L122.955,25.131z"/>
		<path d="M133.19,43.773l-0.177,0.277l-5.307-3.396l0.177-0.277l0.337,0.215c0.294,0.188,0.565,0.288,0.812,0.298
			c0.175,0.013,0.351-0.043,0.529-0.168c0.132-0.085,0.36-0.381,0.686-0.89l4.272-6.676c0.332-0.519,0.512-0.861,0.54-1.026
			c0.028-0.165-0.01-0.349-0.115-0.554c-0.105-0.204-0.299-0.397-0.584-0.579l-0.337-0.215l0.177-0.277l5.306,3.396l-0.177,0.277
			l-0.337-0.216c-0.294-0.188-0.565-0.287-0.812-0.298c-0.174-0.013-0.353,0.041-0.536,0.163c-0.132,0.085-0.36,0.382-0.686,0.89
			l-4.272,6.677c-0.332,0.519-0.511,0.861-0.537,1.028c-0.025,0.166,0.014,0.352,0.119,0.556c0.105,0.204,0.3,0.397,0.584,0.579
			L133.19,43.773z"/>
		<path d="M152.346,44.876l-0.223,0.241c-0.37-0.246-0.816-0.339-1.338-0.281c-0.384,0.049-1.128,0.308-2.233,0.779l-9.296,3.943
			l-0.215-0.199l3.469-9.838c0.419-1.186,0.634-1.91,0.647-2.173c0.013-0.262-0.135-0.572-0.442-0.929l0.223-0.242l4.241,3.921
			l-0.223,0.241l-0.143-0.133c-0.383-0.354-0.688-0.547-0.916-0.58c-0.161-0.027-0.299,0.022-0.416,0.148
			c-0.072,0.078-0.141,0.187-0.204,0.325c-0.064,0.139-0.211,0.533-0.441,1.184l-2.186,6.147l5.374-2.305
			c0.647-0.281,1.069-0.48,1.266-0.597c0.197-0.117,0.347-0.232,0.452-0.345c0.121-0.131,0.192-0.278,0.216-0.442
			c0.023-0.164-0.009-0.335-0.096-0.512c-0.119-0.247-0.332-0.513-0.641-0.799l0.223-0.241L152.346,44.876z"/>
		<path d="M157.28,52.446l-4.022,2.807l0.137,0.197c0.437,0.627,0.951,0.943,1.541,0.951c0.59,0.007,1.296-0.218,2.118-0.676
			l0.193,0.277l-5.173,3.611l-0.193-0.277c0.523-0.452,0.898-0.896,1.127-1.334c0.229-0.438,0.319-0.824,0.27-1.158
			c-0.049-0.334-0.238-0.737-0.567-1.208l-2.783,1.943c-0.544,0.38-0.861,0.635-0.95,0.766c-0.089,0.131-0.129,0.287-0.118,0.467
			c0.01,0.181,0.114,0.411,0.311,0.694l0.412,0.59c0.644,0.923,1.374,1.513,2.19,1.771c0.816,0.258,1.745,0.203,2.789-0.164
			l0.188,0.27l-3.451,1.748l-5.961-8.539l0.27-0.188l0.229,0.328c0.2,0.287,0.412,0.482,0.636,0.586
			c0.156,0.079,0.34,0.094,0.553,0.047c0.154-0.028,0.479-0.215,0.974-0.561l6.499-4.537c0.447-0.312,0.713-0.516,0.798-0.611
			c0.136-0.167,0.204-0.348,0.205-0.544c0.007-0.279-0.101-0.579-0.325-0.9l-0.229-0.328l0.27-0.188l5.773,8.27l-2.922,2.039
			l-0.193-0.277c0.616-0.639,0.99-1.195,1.123-1.667c0.133-0.472,0.11-0.992-0.07-1.56c-0.103-0.333-0.415-0.874-0.937-1.622
			L157.28,52.446z"/>
		<path d="M159.688,68.32l-3.118,1.296c-0.602,0.25-0.965,0.445-1.09,0.583c-0.125,0.139-0.196,0.32-0.211,0.545
			c-0.016,0.225,0.082,0.591,0.294,1.1l-0.304,0.126l-2.368-5.694l0.304-0.126c0.214,0.514,0.407,0.843,0.579,0.986
			c0.172,0.144,0.35,0.22,0.534,0.23c0.184,0.01,0.576-0.11,1.178-0.36l7.22-3.003c0.602-0.25,0.965-0.445,1.09-0.583
			c0.125-0.138,0.195-0.32,0.211-0.545c0.015-0.225-0.082-0.591-0.294-1.1l0.304-0.126l2.15,5.169
			c0.559,1.346,0.876,2.369,0.949,3.07c0.073,0.701-0.058,1.352-0.395,1.954c-0.337,0.602-0.841,1.043-1.514,1.323
			c-0.82,0.341-1.622,0.328-2.403-0.04c-0.496-0.236-0.97-0.659-1.422-1.266l-2.654,4.241c-0.341,0.552-0.541,0.928-0.6,1.125
			c-0.077,0.295-0.061,0.593,0.045,0.895l-0.304,0.126l-1.457-3.503l3.579-5.694L159.688,68.32z M165.144,66.051l-4.873,2.027
			l0.194,0.468c0.316,0.76,0.622,1.3,0.919,1.619c0.296,0.319,0.671,0.512,1.125,0.576c0.453,0.065,0.973-0.024,1.558-0.268
			c0.848-0.353,1.392-0.811,1.632-1.376c0.24-0.565,0.177-1.288-0.189-2.168L165.144,66.051z"/>
		<path d="M171.786,85.475l-3.924,0.863l-0.07-0.358c0.956-0.361,1.67-0.93,2.144-1.707c0.473-0.777,0.635-1.549,0.486-2.317
			c-0.115-0.593-0.365-1.032-0.75-1.316c-0.384-0.284-0.783-0.386-1.196-0.306c-0.262,0.051-0.482,0.157-0.662,0.319
			c-0.241,0.222-0.459,0.545-0.653,0.969c-0.139,0.31-0.356,1.008-0.652,2.091c-0.411,1.516-0.872,2.574-1.383,3.175
			c-0.512,0.594-1.157,0.968-1.936,1.119c-0.989,0.192-1.914-0.027-2.776-0.659c-0.862-0.632-1.409-1.541-1.64-2.727
			c-0.073-0.372-0.103-0.731-0.092-1.077c0.011-0.346,0.073-0.789,0.185-1.33c0.062-0.302,0.075-0.543,0.04-0.723
			c-0.029-0.151-0.119-0.3-0.268-0.446c-0.149-0.146-0.353-0.248-0.612-0.307l-0.063-0.323l4.465-0.869l0.063,0.323
			c-1.206,0.5-2.068,1.18-2.586,2.038c-0.518,0.858-0.695,1.709-0.531,2.552c0.127,0.651,0.405,1.136,0.835,1.454
			c0.43,0.317,0.881,0.43,1.351,0.339c0.279-0.054,0.535-0.181,0.768-0.38s0.437-0.473,0.614-0.821
			c0.176-0.348,0.379-0.943,0.608-1.784c0.32-1.179,0.62-2.04,0.9-2.583c0.281-0.543,0.626-0.986,1.036-1.329
			c0.41-0.342,0.891-0.567,1.444-0.675c0.942-0.183,1.812,0.007,2.609,0.57c0.798,0.563,1.299,1.371,1.504,2.423
			c0.075,0.384,0.101,0.765,0.078,1.144c-0.017,0.287-0.081,0.645-0.194,1.074c-0.113,0.429-0.154,0.722-0.123,0.879
			c0.029,0.151,0.099,0.261,0.209,0.331c0.11,0.069,0.35,0.107,0.719,0.113L171.786,85.475z"/>
		<path d="M160.587,97.487l-0.329,0.011l-0.211-6.296l0.328-0.011l0.013,0.4c0.011,0.349,0.083,0.628,0.215,0.837
			c0.088,0.151,0.234,0.265,0.438,0.341c0.144,0.06,0.518,0.08,1.122,0.06l7.922-0.265c0.616-0.021,0.999-0.066,1.151-0.136
			c0.152-0.071,0.282-0.207,0.391-0.409c0.109-0.202,0.157-0.472,0.146-0.809l-0.013-0.4l0.328-0.011l0.211,6.296l-0.329,0.011
			l-0.013-0.4c-0.012-0.349-0.083-0.629-0.215-0.837c-0.088-0.151-0.234-0.268-0.438-0.35c-0.144-0.061-0.518-0.081-1.122-0.06
			l-7.922,0.265c-0.616,0.021-0.999,0.067-1.151,0.141c-0.152,0.073-0.282,0.211-0.391,0.413c-0.109,0.202-0.158,0.472-0.146,0.809
			L160.587,97.487z"/>
		<path d="M170.711,112.425l-3.228-0.464l0.046-0.317c0.771-0.08,1.337-0.212,1.695-0.394c0.358-0.182,0.663-0.458,0.914-0.829
			c0.137-0.208,0.247-0.59,0.326-1.147l0.128-0.888l-9.2-1.323c-0.61-0.088-0.996-0.109-1.158-0.063
			c-0.162,0.046-0.314,0.158-0.457,0.338c-0.143,0.18-0.238,0.44-0.287,0.78l-0.057,0.396l-0.325-0.047l0.898-6.245l0.325,0.047
			l-0.057,0.396c-0.05,0.346-0.028,0.633,0.065,0.862c0.06,0.164,0.183,0.305,0.37,0.421c0.132,0.085,0.496,0.17,1.094,0.256
			l9.2,1.323l0.124-0.862c0.115-0.803,0.029-1.411-0.259-1.823c-0.402-0.579-1.032-0.998-1.893-1.26l0.048-0.334l3.228,0.464
			L170.711,112.425z"/>
		<path d="M165.043,129.021l-0.307-0.117c0.092-0.39,0.093-0.716,0.003-0.978c-0.126-0.366-0.593-1.045-1.398-2.039l-3.14-4
			l-2.722-1.042c-0.581-0.223-0.954-0.33-1.118-0.323c-0.164,0.007-0.335,0.079-0.512,0.218c-0.177,0.138-0.322,0.357-0.437,0.656
			l-0.241,0.631l-0.307-0.118l2.418-6.315l0.307,0.118l-0.225,0.589c-0.127,0.332-0.17,0.617-0.128,0.855
			c0.022,0.174,0.112,0.338,0.268,0.493c0.11,0.112,0.446,0.276,1.011,0.492l2.257,0.864l5.835-0.801
			c1.153-0.162,1.855-0.318,2.106-0.469s0.449-0.405,0.592-0.763l0.307,0.118l-2.065,5.394l-0.307-0.118l0.092-0.24
			c0.125-0.327,0.165-0.573,0.121-0.739c-0.045-0.166-0.119-0.269-0.224-0.309c-0.199-0.076-0.785-0.047-1.756,0.089l-4.504,0.606
			l2.619,3.325c0.637,0.821,1.091,1.283,1.362,1.387c0.149,0.057,0.301,0.033,0.456-0.073c0.21-0.135,0.426-0.449,0.646-0.942
			l0.307,0.118L165.043,129.021z"/>
	</g>
	<circle id="右点_2_" fill-rule="evenodd" clip-rule="evenodd" cx="146.632" cy="144.366" r="2.168"/>
	<path stroke="#000000" stroke-width="0.8528" stroke-miterlimit="10" d="M96.132,35.152c-33.46,0-60.75,27.321-60.75,60.818
		c0,32.102,25.065,58.526,56.602,60.673l-0.5-0.868c-30.844-2.388-55.271-28.332-55.271-59.805
		c0-33.039,26.916-59.985,59.918-59.985S156.05,62.931,156.05,95.97c0,31.526-24.508,57.503-55.424,59.816l-0.548,0.87
		c31.633-2.047,56.805-28.516,56.805-60.686C156.882,62.472,129.592,35.152,96.132,35.152z"/>
</g>
<g>
</g>
<g>
</g>
<g>
</g>
<g>
</g>
<g>
</g>
<g>
</g>
</svg>
