<?xml version="1.0" encoding="utf-8"?>
<!-- Generator: Adobe Illustrator 27.1.1, SVG Export Plug-In . SVG Version: 6.00 Build 0)  -->
<svg version="1.1" id="图层_1" xmlns="http://www.w3.org/2000/svg" xmlns:xlink="http://www.w3.org/1999/xlink" x="0px" y="0px"
	 viewBox="0 0 192 192" enable-background="new 0 0 192 192" xml:space="preserve">
<g>
	<path d="M48.237,161.53c-15.86-0.13-23.348-13.108-16.564-24.247c6.895-11.322,15.786-21.462,22.262-32.986
		c2.379-4.234,2.322-12.05-0.058-16.313C47.757,77.025,39.635,67.196,32.467,56.81c-5.889-8.531-4.877-16.676,3.345-22.759
		c8.423-6.232,16.889-3.949,22.791,3.885c12.585,16.705,24.835,33.7,36.288,51.188c2.248,3.433,2.196,10.877-0.064,14.335
		c-11.252,17.223-23.312,33.949-35.758,50.34C55.976,157.874,50.388,160.053,48.237,161.53z"/>
	<path d="M114.964,161.522c-16.253-0.226-23.04-13.61-15.635-25.544c6.822-10.994,15.46-20.897,21.847-32.107
		c2.278-3.999,2.183-11.487-0.103-15.533c-6.017-10.651-13.983-20.185-20.884-30.359c-5.769-8.505-6.267-17.313,2.494-23.872
		c8.836-6.614,17.286-3.615,23.414,4.626c12.096,16.264,24.133,32.611,35.178,49.585c2.43,3.735,2.746,11.602,0.406,15.216
		c-11.186,17.276-23.331,33.964-35.817,50.34C122.764,157.94,117.12,160.067,114.964,161.522z"/>
</g>
<g>
</g>
<g>
</g>
<g>
</g>
<g>
</g>
<g>
</g>
<g>
</g>
<g>
</g>
<g>
</g>
<g>
</g>
<g>
</g>
<g>
</g>
</svg>
