<?xml version="1.0" encoding="utf-8"?>
<!-- Generator: Adobe Illustrator 27.1.1, SVG Export Plug-In . SVG Version: 6.00 Build 0)  -->
<svg version="1.1" id="图层_1" xmlns="http://www.w3.org/2000/svg" xmlns:xlink="http://www.w3.org/1999/xlink" x="0px" y="0px"
	 viewBox="0 0 192 192" enable-background="new 0 0 192 192" xml:space="preserve">
<path d="M44.88,63.374c7.778,0,14.073-5.663,14.073-12.608c0-6.949-6.295-12.619-14.073-12.619c-7.766,0-14.061,5.671-14.061,12.619
	C30.819,57.713,37.114,63.374,44.88,63.374z M33.217,68.47l-8.829,13.616l16.346,10.191c0,0,10.886,5.564,5.717,16.009
	c-4.9,9.893-28.703,31.558-28.703,31.558l21.343,13.31c14.737-32.012,13.814-27.747,17.526-39.247
	c3.805-11.756,4.616-20.722-1.815-27.179C46.475,78.394,45.553,77.623,33.217,68.47z"/>
<path d="M171.596,64.891c0,0-4.579-36.037-83.48-13.697c3.345-5.865,5.002-9.708,5.002-9.708l-19.719-5.509
	c0,0-7.945,25.908-22.113,38.012c0,0,13.707,7.899,13.562,7.679c3.923-3.918,7.425-7.923,10.516-11.793
	c3.132-1.389,6.179-2.664,9.141-3.878c-3.628,6.575-9.528,16.385-15.423,22.585l8.301,7.261c0,0,5.639-5.435,11.829-12.002h7.062
	v12.108H68.77v9.67h27.505v23.2c-0.353-0.012-0.714-0.012-1.051-0.058c-3.025-0.135-7.778-0.641-9.598-3.553
	c-2.244-3.547-0.61-10.063-0.486-14.079H66.185l-0.69,0.361c0,0-6.914,31.102,20.059,30.412c25.228,0.681,39.705-7.02,46.643-12.348
	l2.771,10.288l15.572-6.472l-10.513-25.809l-12.667,3.93l2.377,8.855c-3.253,2.41-7.009,4.222-11.01,5.567v-20.293h26.803v-9.67
	h-26.805V83.843h26.919v-9.668H97.825c3.436-4.2,6.142-8.023,6.873-10.481l-8.327-2.248c35.741-12.785,55.659-10.606,55.477,10.377
	v55.279c0,0,2.124,19.02-19.649,17.638l-11.759-2.534l-2.754,11.183c0,0,50.798,14.501,54.961-24.544
	C176.794,89.788,171.596,64.891,171.596,64.891z"/>
<g>
</g>
<g>
</g>
<g>
</g>
<g>
</g>
<g>
</g>
<g>
</g>
<g>
</g>
<g>
</g>
<g>
</g>
<g>
</g>
<g>
</g>
</svg>
