<?xml version="1.0" encoding="utf-8"?>
<!-- Generator: Adobe Illustrator 27.1.1, SVG Export Plug-In . SVG Version: 6.00 Build 0)  -->
<svg version="1.1" id="图层_1" xmlns="http://www.w3.org/2000/svg" xmlns:xlink="http://www.w3.org/1999/xlink" x="0px" y="0px"
	 viewBox="0 0 192 192" enable-background="new 0 0 192 192" xml:space="preserve">
<path id="path" d="M96.125,18.031C54.074,18,18.512,52.755,18.174,94.212c-0.358,44.042,34.265,79.601,77.658,79.756
	c42.462,0.154,77.642-34.835,77.994-77.573C174.175,54.02,138.523,18.063,96.125,18.031z M133.628,153.509
	c-24.839,0-49.474,0-74.68,0c-0.178-2.007-0.352-3.976-0.516-5.822c7.391-1.235,14.442-1.966,21.255-3.655
	c10.638-2.642,12.796-5.845,12.801-16.752c0.002-6.082-0.2-12.171,0.031-18.243c0.175-4.584-1.795-6.133-6.211-6.664
	c-3.392-0.409-9.08-1.861-9.431-3.68c-1.06-5.499-0.409-11.466,0.501-17.102c0.212-1.311,4.063-2.789,6.298-2.886
	c8.164-0.355,16.352-0.175,24.531-0.166c5.647,0.007,8.566,2.72,8.392,8.515c-0.076,2.515-0.093,5.035-0.034,7.55
	c0.133,5.6-2.808,7.8-8.145,7.986c-8.575,0.298-8.578,0.418-8.592,9.023c-0.011,6.082,0.292,12.183-0.076,18.242
	c-0.393,6.447,2.5,10.721,8.213,12.565c5.911,1.907,12.122,2.932,18.249,4.085c2.192,0.411,4.526,0.066,7.414,0.066
	C133.628,149.339,133.628,151.193,133.628,153.509z M125.192,132.012c-1.021,0.649-2.171,1.094-3.731,1.868
	c-2.334-3.852-4.564-7.533-6.74-11.123c20.964-17.42,26.024-30.798,19.003-49.283C128.032,58.49,111.066,47.8,94.265,48.608
	C76.68,49.456,61.987,60.81,57.044,77.37c-4.981,16.684,1.817,31.966,20.553,45.107c-2.114,3.602-4.27,7.279-6.786,11.57
	c-16.738-9.212-27.2-22.554-28.731-41.429c-2.191-27.024,12.724-48.022,38.566-56.143c1.789-0.562,3.564-1.821,4.833-3.222
	c1.475-1.627,2.256-5.303,3.566-5.414c5.344-0.452,10.776,0.102,16.171,0.349c0.277,0.012,0.769,0.61,0.753,0.915
	c-0.362,7.148,5.58,6.902,9.945,8.639c20.514,8.166,32.732,23.052,34.628,45.19C152.371,104.312,143.186,120.585,125.192,132.012z"
	/>
<g>
</g>
<g>
</g>
<g>
</g>
<g>
</g>
<g>
</g>
<g>
</g>
<g>
</g>
<g>
</g>
<g>
</g>
<g>
</g>
<g>
</g>
</svg>
