<?xml version="1.0" encoding="utf-8"?>
<!-- Generator: Adobe Illustrator 27.1.1, SVG Export Plug-In . SVG Version: 6.00 Build 0)  -->
<svg version="1.1" id="图层_1" xmlns="http://www.w3.org/2000/svg" xmlns:xlink="http://www.w3.org/1999/xlink" x="0px" y="0px"
	 viewBox="0 0 192 192" enable-background="new 0 0 192 192" xml:space="preserve">
<g>
	<path d="M136.81,116.169c-9.612,0-19.224,0-28.836,0c-0.503,0-1.006,0.013-1.507-0.015c-2.921-0.161-4.49-1.766-4.495-4.677
		c-0.015-9.172-0.006-18.345-0.006-27.517c0-0.88-0.026-1.76,0.011-2.638c0.116-2.758,2.032-4.696,4.772-4.855
		c0.251-0.015,0.502-0.012,0.754-0.012c19.601-0.001,39.202-0.01,58.803,0.021c0.973,0.002,2.031,0.176,2.901,0.586
		c1.727,0.813,2.618,2.322,2.621,4.245c0.017,10.177,0.025,20.355-0.003,30.532c-0.007,2.402-1.472,3.94-3.919,4.263
		c-0.681,0.09-1.38,0.061-2.07,0.061C156.16,116.168,146.485,116.167,136.81,116.169z M121.882,100.757c0,0.001,0,0.003,0,0.004
		c-2.134,0-4.268-0.001-6.403,0c-3.772,0.001-3.772,0.002-3.697,3.838c0.042,2.148,0.396,2.544,2.528,2.568
		c3.013,0.033,6.026,0.011,9.039,0.011c2.323,0,4.646-0.037,6.967,0.011c1.13,0.023,1.599-0.398,1.537-1.543
		c-0.061-1.126-0.058-2.262,0.013-3.388c0.071-1.138-0.35-1.549-1.511-1.522C127.533,100.802,124.707,100.757,121.882,100.757z
		 M121.74,91.848c2.693,0,5.385,0.005,8.078-0.002c2.007-0.005,2.008-0.012,2.019-2.101c0.004-0.814,0.011-1.628-0.002-2.442
		c-0.028-1.822-0.036-1.847-1.936-1.854c-4.258-0.015-8.516-0.005-12.774-0.005c-0.939,0-1.879-0.019-2.818,0.008
		c-2.031,0.059-2.423,0.451-2.471,2.427c-0.016,0.688-0.012,1.378-0.007,2.066c0.013,1.879,0.015,1.892,1.833,1.899
		C116.354,91.856,119.047,91.848,121.74,91.848z M151.837,91.848c2.07,0,4.139,0,6.209,0c4.006,0,4.006,0,3.918-3.961
		c-0.044-1.981-0.431-2.388-2.467-2.431c-1.755-0.037-3.512-0.011-5.268-0.011c-3.512,0-7.025-0.015-10.537,0.009
		c-1.706,0.012-1.768,0.102-1.803,1.833c-0.016,0.815-0.007,1.631-0.001,2.446c0.016,2.1,0.018,2.108,2.046,2.114
		C146.569,91.854,149.203,91.848,151.837,91.848z M151.978,100.755c-1.944,0-3.889-0.037-5.831,0.013
		c-1.353,0.035-3.231-0.303-3.908,0.425c-0.714,0.768-0.328,2.603-0.337,3.972c-0.013,1.957,0.041,2.002,1.999,2.007
		c5.079,0.013,10.158,0.005,15.237,0.003c0.313,0,0.627-0.008,0.94-0.028c1.192-0.079,1.841-0.689,1.847-1.913
		c0.005-1.066-0.034-2.134,0.022-3.197c0.052-0.982-0.352-1.308-1.315-1.294C157.747,100.784,154.863,100.757,151.978,100.755z"/>
	<path d="M88.906,97.363c0,10.232,0.008,20.465-0.014,30.697c-0.002,0.865-0.064,1.773-0.331,2.585
		c-0.688,2.087-2.618,3.327-4.784,3.229c-2.137-0.097-3.956-1.547-4.437-3.69c-0.217-0.967-0.261-1.989-0.261-2.986
		c-0.008-18.079,0.002-36.159,0.008-54.238c0-0.565,0.006-1.13-0.008-1.695c-0.074-3.047-0.909-3.883-3.985-3.885
		c-7.219-0.005-14.438,0.02-21.658,0.013c-0.874-0.001-1.765-0.038-2.618-0.208c-2.449-0.489-4.021-2.58-3.874-5.039
		c0.139-2.322,1.952-4.226,4.317-4.497c0.559-0.064,1.129-0.041,1.693-0.041c8.914-0.003,17.828-0.006,26.742,0.001
		c0.877,0.001,1.77-0.021,2.629,0.125c3.94,0.668,6.28,3.456,6.527,7.803c0.096,1.69,0.051,3.389,0.052,5.084
		C88.909,79.535,88.907,88.449,88.906,97.363z"/>
	<path d="M58.759,110.627c0,6.152-0.009,12.305,0.005,18.457c0.005,2.166-0.94,3.749-2.862,4.693
		c-2.657,1.304-5.839-0.07-6.66-2.913c-0.273-0.945-0.323-1.981-0.324-2.976c-0.021-11.74-0.012-23.479-0.015-35.219
		c-0.001-2.133-0.009-2.136-2.155-2.139c-2.888-0.004-5.776,0.014-8.663-0.006c-3.301-0.022-5.473-1.985-5.471-4.909
		c0.001-2.91,2.172-4.903,5.475-4.944c3.076-0.039,6.153-0.055,9.228,0.013c1.232,0.027,1.704-0.39,1.61-1.62
		c-0.076-0.998-0.068-2.012,0.012-3.011c0.241-3.007,2.381-4.997,5.162-4.865c2.69,0.128,4.588,2.221,4.655,5.156
		c0.023,1.004,0.056,2.012-0.003,3.012c-0.058,0.982,0.338,1.327,1.301,1.316c3.076-0.033,6.152-0.023,9.228,0
		c0.747,0.006,1.515,0.034,2.237,0.206c2.505,0.594,4.048,2.802,3.787,5.31c-0.249,2.39-2.178,4.247-4.694,4.308
		c-3.263,0.08-6.528,0.019-9.793,0.028c-2.215,0.006-2.051-0.158-2.053,2.019c-0.005,6.027-0.002,12.054-0.002,18.08
		C58.763,110.627,58.761,110.627,58.759,110.627z"/>
	<path d="M136.9,57.983c9.672,0,19.345,0.092,29.015-0.049c3.444-0.05,6.275,2.002,5.944,6.03c-0.123,1.498,0.019,3.015-0.044,4.52
		c-0.105,2.525-1.889,4.424-4.315,4.68c-2.492,0.263-4.59-1.13-5.316-3.532c-0.611-2.021-0.611-2.025-2.774-2.028
		c-15.01-0.021-30.02-0.041-45.031-0.059c-2.187-0.003-2.187,0.003-2.804,2.039c-0.732,2.415-2.86,3.852-5.292,3.573
		c-2.39-0.274-4.207-2.222-4.296-4.721c-0.065-1.819-0.043-3.643-0.008-5.463c0.06-3.037,1.92-4.933,4.964-4.975
		c3.768-0.052,7.536-0.015,11.305-0.015C124.465,57.981,130.683,57.981,136.9,57.983z"/>
	<path d="M28.968,95.936c0,10.617,0.002,21.234-0.005,31.851c0,0.752,0.034,1.524-0.12,2.251c-0.514,2.422-2.815,4.042-5.317,3.826
		c-2.398-0.208-4.294-2.134-4.474-4.573c-0.042-0.563-0.019-1.13-0.019-1.696c-0.001-21.234-0.001-42.467,0-63.701
		c0-0.565-0.022-1.133,0.021-1.696c0.205-2.66,2.38-4.627,5.044-4.583c2.578,0.043,4.658,2,4.85,4.587
		c0.042,0.563,0.019,1.13,0.019,1.696C28.968,74.577,28.968,85.257,28.968,95.936z"/>
	<path d="M152.339,134.395c-6.267-0.083-12.347-1.35-18.43-2.593c-4.372-0.893-8.767-1.485-13.251-1.433
		c-4.22,0.049-8.214,0.865-11.931,2.902c-1.29,0.707-2.621,1.248-4.13,0.833c-1.995-0.548-3.308-1.832-3.678-3.865
		c-0.384-2.113,0.394-3.859,2.217-5.013c3.052-1.934,6.395-3.167,9.927-3.895c6.373-1.313,12.734-0.868,19.078,0.204
		c4.818,0.814,9.601,1.872,14.439,2.53c6.561,0.893,13.032,0.671,19.005-2.76c1.796-1.032,3.616-1.007,5.318,0.198
		c1.559,1.103,2.255,2.67,2.027,4.578c-0.21,1.756-1.235,2.958-2.734,3.827c-3.574,2.07-7.412,3.386-11.492,3.937
		C156.596,134.128,154.462,134.218,152.339,134.395z"/>
	<path d="M33.738,115.348c0-4.523-0.046-9.047,0.016-13.569c0.044-3.224,2.923-5.508,6.003-4.887
		c2.287,0.461,3.871,2.373,3.899,4.879c0.044,4.02,0.015,8.041,0.014,12.061c-0.001,5.026,0.054,10.052-0.026,15.077
		c-0.062,3.906-4.042,6.207-7.369,4.335c-1.743-0.981-2.544-2.523-2.54-4.515C33.743,124.269,33.737,119.808,33.738,115.348z"/>
	<path d="M73.823,115.537c0,4.46,0.059,8.921-0.018,13.379c-0.065,3.78-3.956,6.133-7.23,4.428
		c-1.839-0.957-2.692-2.542-2.685-4.617c0.014-3.957,0.002-7.915,0.003-11.872c0-5.025-0.052-10.051,0.021-15.076
		c0.055-3.786,3.939-6.135,7.222-4.423c1.834,0.957,2.702,2.534,2.696,4.612C73.817,106.491,73.826,111.014,73.823,115.537z"/>
	<path d="M42.905,62.975c-0.015,2.964-2.439,5.343-5.408,5.308c-2.953-0.035-5.318-2.487-5.26-5.455
		c0.056-2.88,2.426-5.205,5.313-5.213C40.519,57.608,42.919,60.01,42.905,62.975z"/>
</g>
<g>
</g>
<g>
</g>
<g>
</g>
<g>
</g>
<g>
</g>
<g>
</g>
<g>
</g>
<g>
</g>
<g>
</g>
<g>
</g>
<g>
</g>
</svg>
