<?xml version="1.0" encoding="utf-8"?>
<!-- Generator: Adobe Illustrator 27.1.1, SVG Export Plug-In . SVG Version: 6.00 Build 0)  -->
<svg version="1.1" id="图层_1" xmlns="http://www.w3.org/2000/svg" xmlns:xlink="http://www.w3.org/1999/xlink" x="0px" y="0px"
	 viewBox="0 0 192 192" enable-background="new 0 0 192 192" xml:space="preserve">
<path d="M95.045,93.121H71.17V56.614h21.118c3.451,0,6.259-2.786,6.259-6.21c0-3.424-2.808-6.209-6.258-6.209l-40.441,0
	c1.065-4.561,1.387-8.614,1.656-12.009l0.032-0.392c0.077-0.952,0.15-1.851,0.24-2.673c0.18-1.644-0.293-3.26-1.333-4.551
	c-1.049-1.302-2.546-2.117-4.216-2.295c-1.681-0.187-3.317,0.281-4.609,1.316c-1.293,1.036-2.105,2.523-2.285,4.185
	c-0.115,1.052-0.203,2.154-0.296,3.322l-0.008,0.105c-0.728,9.156-1.634,20.552-16.624,34.168c-1.24,1.125-1.96,2.661-2.029,4.326
	c-0.069,1.665,0.522,3.256,1.666,4.48c1.18,1.261,2.852,1.985,4.587,1.985c1.565,0,3.064-0.577,4.226-1.629
	c6.302-5.725,11.018-11.611,14.354-17.929c0.115,0.006,0.231,0.009,0.346,0.009h11.1v36.508H30.195c-3.451,0-6.259,2.786-6.259,6.21
	c0,3.424,2.808,6.21,6.258,6.21h28.259c-1.137,18.082-7.674,40.782-31.073,52.47c-1.504,0.751-2.618,2.04-3.138,3.63
	c-0.517,1.579-0.382,3.263,0.378,4.736c1.073,2.09,3.21,3.389,5.578,3.389c0.98,0,1.956-0.232,2.811-0.664
	c16.901-8.44,28.433-22.322,34.102-40.774c0.229,0.88,0.655,1.706,1.26,2.424l19.735,23.42c1.194,1.413,2.944,2.224,4.803,2.224
	c1.451,0,2.864-0.504,3.977-1.417c1.297-1.061,2.097-2.56,2.251-4.223c0.154-1.659-0.354-3.275-1.43-4.552l-19.732-23.417
	c-2.204-2.616-6.147-2.978-8.782-0.81c-0.179,0.146-0.348,0.302-0.507,0.464c1.217-5.304,1.992-10.943,2.313-16.9h24.047
	c3.451,0,6.259-2.786,6.259-6.21C101.304,95.907,98.496,93.121,95.045,93.121z M163.372,42.992h-48.806
	c-3.451,0-6.259,2.786-6.259,6.21v90.21c0,3.424,2.808,6.21,6.259,6.21h3.669l0.858,15.203l0.011,0.136
	c0.234,2.267,1.695,4.222,3.809,5.1c0.766,0.319,1.579,0.481,2.418,0.481c1.415,0,2.8-0.48,3.898-1.352l0.127-0.1l19.645-19.478
	l14.37,0.012c1.637,0,3.244-0.656,4.41-1.804c1.192-1.175,1.848-2.74,1.848-4.407v-90.21
	C169.631,45.778,166.823,42.992,163.372,42.992z M124.014,133.203h-3.19V55.411h36.289v77.787l-10.484-0.008
	c-1.41,0-2.793,0.479-3.893,1.348l-0.157,0.124l-11.942,12.412l-0.384-8.127l-0.012-0.16
	C129.915,135.604,127.238,133.203,124.014,133.203z"/>
<g>
</g>
<g>
</g>
<g>
</g>
<g>
</g>
<g>
</g>
<g>
</g>
<g>
</g>
<g>
</g>
<g>
</g>
<g>
</g>
<g>
</g>
</svg>
