<?xml version="1.0" encoding="utf-8"?>
<!-- Generator: Adobe Illustrator 27.1.1, SVG Export Plug-In . SVG Version: 6.00 Build 0)  -->
<svg version="1.1" id="图层_1" xmlns="http://www.w3.org/2000/svg" x="0px" y="0px"
	 viewBox="0 0 192 192" enable-background="new 0 0 192 192" xml:space="preserve">
<path d="M95.122,93.351H73.156V59.764h19.428c3.175,0,5.758-2.563,5.758-5.713c0-3.15-2.583-5.713-5.758-5.713H55.379
	c0.98-4.196,1.276-7.925,1.524-11.048l0.029-0.361c0.071-0.876,0.138-1.703,0.221-2.459c0.166-1.512-0.27-3-1.227-4.187
	c-0.965-1.198-2.342-1.947-3.879-2.111c-1.546-0.172-3.052,0.259-4.241,1.211c-1.189,0.953-1.936,2.321-2.102,3.85
	c-0.106,0.967-0.187,1.982-0.272,3.056l-0.007,0.097c-0.67,8.424-1.503,18.908-15.294,31.435c-1.14,1.035-1.803,2.448-1.866,3.98
	c-0.063,1.532,0.48,2.995,1.533,4.122c1.086,1.16,2.624,1.826,4.22,1.826c1.44,0,2.819-0.531,3.888-1.498
	c5.798-5.267,10.136-10.682,13.205-16.495c0.106,0.006,0.212,0.009,0.319,0.009h10.212v33.587H35.46
	c-3.175,0-5.758,2.563-5.758,5.713c0,3.15,2.583,5.713,5.758,5.713h25.999c-1.046,16.635-7.06,37.519-28.587,48.272
	c-1.384,0.691-2.409,1.877-2.887,3.34c-0.475,1.453-0.351,3.002,0.347,4.357c0.987,1.923,2.953,3.118,5.132,3.118
	c0.902,0,1.8-0.213,2.586-0.611c15.549-7.764,26.159-20.536,31.374-37.512c0.211,0.81,0.602,1.569,1.159,2.23l18.156,21.547
	c1.098,1.3,2.709,2.046,4.419,2.046c1.335,0,2.635-0.464,3.659-1.304c1.194-0.976,1.929-2.356,2.071-3.885
	c0.142-1.526-0.326-3.013-1.316-4.188l-18.153-21.544c-2.028-2.407-5.655-2.739-8.08-0.745c-0.165,0.135-0.32,0.278-0.467,0.427
	c1.119-4.88,1.833-10.068,2.128-15.548h22.124c3.175,0,5.758-2.563,5.758-5.713C100.879,95.914,98.296,93.351,95.122,93.351z
	 M157.982,47.233h-44.901c-3.175,0-5.758,2.563-5.758,5.713v82.993c0,3.15,2.583,5.713,5.758,5.713h3.376l0.79,13.987l0.01,0.125
	c0.216,2.086,1.559,3.884,3.504,4.692c0.704,0.294,1.453,0.442,2.225,0.442c1.302,0,2.576-0.442,3.586-1.244l0.116-0.092
	l18.074-17.92l13.221,0.011c1.507,0,2.985-0.604,4.058-1.659c1.096-1.081,1.7-2.521,1.7-4.054V52.946
	C163.741,49.796,161.157,47.233,157.982,47.233z M121.773,130.227h-2.934V58.658h33.386v71.564l-9.645-0.007
	c-1.297,0-2.569,0.44-3.582,1.24l-0.144,0.114l-10.987,11.419l-0.354-7.477l-0.011-0.147
	C127.202,132.435,124.739,130.227,121.773,130.227z"/>
<g>
</g>
<g>
</g>
<g>
</g>
<g>
</g>
<g>
</g>
<g>
</g>
<g>
</g>
<g>
</g>
<g>
</g>
<g>
</g>
<g>
</g>
</svg>
